{"glyphs":{"0":{"ha":968,"x_min":103,"x_max":865,"o":"m 485 -18 q 282 43 368 -18 q 149 218 196 104 q 103 486 103 332 q 149 754 103 640 q 282 929 196 868 q 485 990 368 990 q 688 929 601 990 q 819 754 774 868 q 865 486 865 640 q 819 218 865 332 q 688 43 774 104 q 485 -18 601 -18 m 188 486 q 224 262 188 357 q 326 115 260 167 q 485 64 393 64 q 643 115 576 64 q 746 262 710 167 q 782 486 782 357 q 703 796 782 683 q 485 908 624 908 q 267 796 346 908 q 188 486 188 683 z "},"1":{"ha":521,"x_min":57,"x_max":364,"o":"m 281 735 l 57 735 l 57 814 l 186 814 q 259 829 239 814 q 286 888 279 844 l 296 972 l 364 972 l 364 0 l 281 0 l 281 735 z "},"2":{"ha":899,"x_min":113,"x_max":781,"o":"m 113 64 l 525 444 q 639 577 603 517 q 675 703 675 638 q 611 856 675 797 q 446 915 547 915 q 276 851 342 915 q 206 678 210 786 l 126 678 q 170 842 129 771 q 282 951 211 913 q 444 990 353 990 q 606 953 535 990 q 716 851 676 917 q 756 703 756 786 q 713 543 756 621 q 579 382 669 465 l 249 79 l 781 79 l 781 0 l 113 0 l 113 64 z "},"3":{"ha":836,"x_min":89,"x_max":733,"o":"m 410 -18 q 184 59 271 -18 q 89 265 97 136 l 172 265 q 244 119 179 174 q 410 64 308 64 q 585 125 519 64 q 650 286 650 186 q 584 447 650 386 q 411 507 518 507 l 267 507 l 267 568 l 572 893 l 108 893 l 108 972 l 697 972 l 697 910 l 390 585 l 410 585 q 579 547 506 585 q 693 441 653 510 q 733 283 733 372 q 693 126 733 194 q 579 20 653 58 q 410 -18 506 -18 z "},"4":{"ha":838,"x_min":56,"x_max":785,"o":"m 56 286 l 425 972 l 522 972 l 158 299 l 564 299 l 569 624 l 647 624 l 647 300 l 785 300 l 785 219 l 647 219 l 647 0 l 564 0 l 564 219 l 56 219 l 56 286 z "},"5":{"ha":825,"x_min":94,"x_max":739,"o":"m 415 -18 q 189 59 276 -18 q 94 265 101 136 l 176 265 q 248 118 183 172 q 415 64 313 64 q 590 126 524 64 q 656 289 656 188 q 590 451 656 390 q 415 513 524 513 l 125 513 l 163 972 l 690 972 l 690 893 l 239 893 l 213 590 l 415 590 q 585 552 511 590 q 699 445 658 514 q 739 288 739 376 q 699 128 739 197 q 585 20 658 58 q 415 -18 511 -18 z "},"6":{"ha":881,"x_min":90,"x_max":788,"o":"m 439 -18 q 259 24 339 -18 q 135 142 179 67 q 90 311 90 217 q 176 558 90 435 l 463 972 l 558 972 l 308 611 q 450 640 374 640 q 623 598 546 640 q 744 481 700 556 q 788 311 788 406 q 743 142 788 217 q 619 24 699 67 q 439 -18 539 -18 m 171 311 q 205 180 171 238 q 300 90 239 122 q 439 57 361 57 q 577 90 517 57 q 672 180 638 122 q 706 311 706 238 q 672 443 706 385 q 577 534 638 501 q 439 567 517 567 q 300 534 361 567 q 205 443 239 501 q 171 311 171 385 z "},"7":{"ha":742,"x_min":60,"x_max":676,"o":"m 579 893 l 60 893 l 60 972 l 676 972 l 676 911 l 279 0 l 190 0 l 579 893 z "},"8":{"ha":868,"x_min":92,"x_max":776,"o":"m 433 -18 q 256 17 333 -18 q 135 113 178 51 q 92 254 92 175 q 141 403 92 338 q 276 499 190 468 q 157 589 200 529 q 114 728 114 649 q 154 864 114 804 q 267 957 194 924 q 433 990 340 990 q 600 957 528 990 q 713 864 672 924 q 753 728 753 804 q 710 589 753 649 q 590 499 667 529 q 727 402 678 467 q 776 254 776 338 q 733 113 776 175 q 611 17 689 51 q 433 -18 533 -18 m 172 258 q 244 113 172 168 q 433 57 317 57 q 624 113 551 57 q 696 258 696 168 q 624 404 696 349 q 433 460 551 460 q 244 404 317 460 q 172 258 172 349 m 194 725 q 260 587 194 640 q 433 533 326 533 q 606 586 540 533 q 672 725 672 639 q 606 864 672 811 q 433 917 540 917 q 260 863 326 917 q 194 725 194 810 z "},"9":{"ha":881,"x_min":93,"x_max":790,"o":"m 442 990 q 622 948 542 990 q 746 831 701 906 q 790 661 790 756 q 704 414 790 538 l 418 0 l 322 0 l 572 361 q 431 332 508 332 q 258 374 335 332 q 137 492 181 417 q 93 661 93 567 q 138 831 93 756 q 262 948 182 906 q 442 990 342 990 m 175 661 q 209 529 175 588 q 303 438 243 471 q 442 406 364 406 q 581 438 519 406 q 676 529 642 471 q 710 661 710 588 q 676 792 710 735 q 581 883 642 850 q 442 915 519 915 q 303 883 364 915 q 209 792 243 850 q 175 661 175 735 z "},"\r":{"ha":372,"x_min":0,"x_max":0,"o":""}," ":{"ha":372,"x_min":0,"x_max":0,"o":""},"A":{"ha":949,"x_min":31,"x_max":917,"o":"m 433 972 l 514 972 l 917 0 l 828 0 l 726 244 l 221 244 l 121 0 l 31 0 l 433 972 m 694 322 l 474 857 l 254 322 l 694 322 z "},"Á":{"ha":949,"x_min":31,"x_max":917,"o":"m 433 972 l 514 972 l 917 0 l 828 0 l 726 244 l 221 244 l 121 0 l 31 0 l 433 972 m 694 322 l 474 857 l 254 322 l 694 322 m 517 1258 l 603 1258 l 506 1069 l 429 1069 l 517 1258 z "},"Ă":{"ha":949,"x_min":31,"x_max":917,"o":"m 433 972 l 514 972 l 917 0 l 828 0 l 726 244 l 221 244 l 121 0 l 31 0 l 433 972 m 694 322 l 474 857 l 254 322 l 694 322 m 293 1258 l 361 1258 l 361 1236 q 391 1153 361 1183 q 474 1124 421 1124 q 556 1153 526 1124 q 586 1236 586 1183 l 586 1258 l 654 1258 l 654 1232 q 605 1109 654 1156 q 474 1063 556 1063 q 342 1109 392 1063 q 293 1232 293 1156 l 293 1258 z "},"Ǎ":{"ha":949,"x_min":31,"x_max":917,"o":"m 433 972 l 514 972 l 917 0 l 828 0 l 726 244 l 221 244 l 121 0 l 31 0 l 433 972 m 694 322 l 474 857 l 254 322 l 694 322 m 360 1258 l 474 1129 l 588 1258 l 678 1258 l 507 1069 l 440 1069 l 269 1258 l 360 1258 z "},"Â":{"ha":949,"x_min":31,"x_max":917,"o":"m 433 972 l 514 972 l 917 0 l 828 0 l 726 244 l 221 244 l 121 0 l 31 0 l 433 972 m 694 322 l 474 857 l 254 322 l 694 322 m 440 1258 l 508 1258 l 679 1069 l 589 1069 l 475 1199 l 361 1069 l 271 1069 l 440 1258 z "},"Ä":{"ha":949,"x_min":31,"x_max":917,"o":"m 433 972 l 514 972 l 917 0 l 828 0 l 726 244 l 221 244 l 121 0 l 31 0 l 433 972 m 694 322 l 474 857 l 254 322 l 694 322 m 268 1160 q 288 1210 268 1190 q 339 1229 308 1229 q 390 1210 369 1229 q 410 1160 410 1190 q 390 1109 410 1129 q 339 1089 371 1089 q 288 1109 308 1089 q 268 1160 268 1129 m 538 1160 q 558 1210 538 1190 q 608 1229 578 1229 q 660 1210 640 1229 q 679 1160 679 1190 q 660 1108 679 1128 q 608 1089 640 1089 q 558 1109 578 1089 q 538 1160 538 1129 z "},"À":{"ha":949,"x_min":31,"x_max":917,"o":"m 433 972 l 514 972 l 917 0 l 828 0 l 726 244 l 221 244 l 121 0 l 31 0 l 433 972 m 694 322 l 474 857 l 254 322 l 694 322 m 432 1258 l 518 1069 l 443 1069 l 346 1258 l 432 1258 z "},"Ā":{"ha":949,"x_min":31,"x_max":917,"o":"m 433 972 l 514 972 l 917 0 l 828 0 l 726 244 l 221 244 l 121 0 l 31 0 l 433 972 m 694 322 l 474 857 l 254 322 l 694 322 m 271 1196 l 676 1196 l 676 1128 l 271 1128 l 271 1196 z "},"Ą":{"ha":949,"x_min":31,"x_max":932,"o":"m 433 972 l 514 972 l 917 0 q 807 -142 807 -69 q 888 -204 807 -204 l 932 -204 l 932 -271 l 878 -271 q 773 -241 810 -271 q 736 -156 736 -211 q 826 3 736 -71 l 726 244 l 221 244 l 121 0 l 31 0 l 433 972 m 694 322 l 474 857 l 254 322 l 694 322 z "},"Å":{"ha":949,"x_min":31,"x_max":917,"o":"m 433 972 l 514 972 l 917 0 l 828 0 l 726 244 l 221 244 l 121 0 l 31 0 l 433 972 m 694 322 l 474 857 l 254 322 l 694 322 m 321 1186 q 364 1293 321 1251 q 474 1335 407 1335 q 585 1293 542 1335 q 628 1186 628 1251 q 585 1079 628 1121 q 474 1038 542 1038 q 364 1079 407 1038 q 321 1186 321 1121 m 381 1186 q 407 1119 381 1146 q 474 1092 433 1092 q 540 1119 514 1092 q 567 1186 567 1146 q 540 1253 567 1226 q 474 1279 514 1279 q 407 1253 433 1279 q 381 1186 381 1226 z "},"Ã":{"ha":949,"x_min":31,"x_max":917,"o":"m 433 972 l 514 972 l 917 0 l 828 0 l 726 244 l 221 244 l 121 0 l 31 0 l 433 972 m 694 322 l 474 857 l 254 322 l 694 322 m 272 1113 q 301 1201 272 1168 q 381 1233 331 1233 q 438 1221 414 1233 q 488 1185 461 1208 q 524 1158 508 1167 q 558 1149 539 1149 q 598 1165 585 1149 q 611 1210 611 1181 l 611 1229 l 676 1229 l 676 1203 q 647 1115 676 1147 q 568 1083 618 1083 q 512 1096 535 1083 q 463 1132 489 1108 q 424 1160 439 1151 q 390 1168 410 1168 q 351 1151 365 1168 q 338 1107 338 1135 l 338 1086 l 272 1086 l 272 1113 z "},"Æ":{"ha":1353,"x_min":28,"x_max":1253,"o":"m 672 972 l 1238 972 l 1238 893 l 782 893 l 782 535 l 1201 535 l 1201 457 l 782 457 l 782 79 l 1253 79 l 1253 0 l 697 0 l 697 243 l 286 243 l 126 0 l 28 0 l 672 972 m 697 322 l 697 868 l 338 322 l 697 322 z "},"Ǽ":{"ha":1353,"x_min":28,"x_max":1253,"o":"m 672 972 l 1238 972 l 1238 893 l 782 893 l 782 535 l 1201 535 l 1201 457 l 782 457 l 782 79 l 1253 79 l 1253 0 l 697 0 l 697 243 l 286 243 l 126 0 l 28 0 l 672 972 m 697 322 l 697 868 l 338 322 l 697 322 m 782 1258 l 868 1258 l 771 1069 l 694 1069 l 782 1258 z "},"B":{"ha":939,"x_min":157,"x_max":849,"o":"m 157 972 l 526 972 q 741 903 661 972 q 821 719 821 835 q 781 583 821 640 q 671 501 742 526 q 802 415 756 476 q 849 265 849 353 q 766 72 849 143 q 542 0 683 0 l 157 0 l 157 972 m 539 79 q 703 129 644 79 q 763 268 763 179 q 703 408 763 358 q 535 457 643 457 l 242 457 l 242 79 l 539 79 m 524 535 q 679 582 624 535 q 735 714 735 629 q 679 845 735 797 q 525 893 624 893 l 242 893 l 242 535 l 524 535 z "},"C":{"ha":1142,"x_min":89,"x_max":1058,"o":"m 582 -18 q 328 47 440 -18 q 152 226 215 111 q 89 486 89 340 q 152 747 89 632 q 328 926 215 861 q 582 990 440 990 q 876 900 749 990 q 1050 657 1003 810 l 961 657 q 818 839 919 772 q 583 906 717 906 q 372 853 465 906 q 227 704 279 800 q 175 486 175 608 q 227 268 175 364 q 372 119 279 172 q 583 67 465 67 q 825 136 721 67 q 969 326 929 206 l 1058 326 q 960 144 1029 222 q 793 24 890 67 q 582 -18 696 -18 z "},"Ć":{"ha":1142,"x_min":89,"x_max":1058,"o":"m 582 -18 q 328 47 440 -18 q 152 226 215 111 q 89 486 89 340 q 152 747 89 632 q 328 926 215 861 q 582 990 440 990 q 876 900 749 990 q 1050 657 1003 810 l 961 657 q 818 839 919 772 q 583 906 717 906 q 372 853 465 906 q 227 704 279 800 q 175 486 175 608 q 227 268 175 364 q 372 119 279 172 q 583 67 465 67 q 825 136 721 67 q 969 326 929 206 l 1058 326 q 960 144 1029 222 q 793 24 890 67 q 582 -18 696 -18 m 622 1258 l 708 1258 l 611 1069 l 535 1069 l 622 1258 z "},"Č":{"ha":1142,"x_min":89,"x_max":1058,"o":"m 582 -18 q 328 47 440 -18 q 152 226 215 111 q 89 486 89 340 q 152 747 89 632 q 328 926 215 861 q 582 990 440 990 q 876 900 749 990 q 1050 657 1003 810 l 961 657 q 818 839 919 772 q 583 906 717 906 q 372 853 465 906 q 227 704 279 800 q 175 486 175 608 q 227 268 175 364 q 372 119 279 172 q 583 67 465 67 q 825 136 721 67 q 969 326 929 206 l 1058 326 q 960 144 1029 222 q 793 24 890 67 q 582 -18 696 -18 m 465 1258 l 579 1129 l 693 1258 l 783 1258 l 613 1069 l 546 1069 l 375 1258 l 465 1258 z "},"Ç":{"ha":1142,"x_min":89,"x_max":1058,"o":"m 483 -281 l 558 -281 q 620 -263 599 -281 q 642 -214 642 -246 q 620 -165 642 -182 q 558 -147 599 -147 l 515 -147 l 504 -132 l 544 -17 q 309 58 413 -8 q 147 235 206 124 q 89 486 89 346 q 152 747 89 632 q 328 926 215 861 q 582 990 440 990 q 876 900 749 990 q 1050 657 1003 810 l 961 657 q 818 839 919 772 q 583 906 717 906 q 372 853 465 906 q 227 704 279 800 q 175 486 175 608 q 227 268 175 364 q 372 119 279 172 q 583 67 465 67 q 825 136 721 67 q 969 326 929 206 l 1058 326 q 892 82 1015 175 q 606 -18 769 -11 l 579 -90 q 678 -128 642 -94 q 714 -218 714 -162 q 674 -312 714 -278 q 564 -346 633 -346 l 483 -346 l 483 -281 z "},"Ĉ":{"ha":1142,"x_min":89,"x_max":1058,"o":"m 582 -18 q 328 47 440 -18 q 152 226 215 111 q 89 486 89 340 q 152 747 89 632 q 328 926 215 861 q 582 990 440 990 q 876 900 749 990 q 1050 657 1003 810 l 961 657 q 818 839 919 772 q 583 906 717 906 q 372 853 465 906 q 227 704 279 800 q 175 486 175 608 q 227 268 175 364 q 372 119 279 172 q 583 67 465 67 q 825 136 721 67 q 969 326 929 206 l 1058 326 q 960 144 1029 222 q 793 24 890 67 q 582 -18 696 -18 m 546 1258 l 614 1258 l 785 1069 l 694 1069 l 581 1199 l 467 1069 l 376 1069 l 546 1258 z "},"Ċ":{"ha":1142,"x_min":89,"x_max":1058,"o":"m 582 -18 q 328 47 440 -18 q 152 226 215 111 q 89 486 89 340 q 152 747 89 632 q 328 926 215 861 q 582 990 440 990 q 876 900 749 990 q 1050 657 1003 810 l 961 657 q 818 839 919 772 q 583 906 717 906 q 372 853 465 906 q 227 704 279 800 q 175 486 175 608 q 227 268 175 364 q 372 119 279 172 q 583 67 465 67 q 825 136 721 67 q 969 326 929 206 l 1058 326 q 960 144 1029 222 q 793 24 890 67 q 582 -18 696 -18 m 503 1161 q 524 1215 503 1193 q 579 1236 546 1236 q 634 1215 613 1236 q 656 1161 656 1193 q 635 1108 656 1129 q 579 1086 614 1086 q 524 1108 546 1086 q 503 1161 503 1129 z "},"D":{"ha":1058,"x_min":157,"x_max":969,"o":"m 157 972 l 464 972 q 731 912 617 972 q 908 742 846 851 q 969 486 969 632 q 908 231 969 340 q 731 60 846 121 q 464 0 617 0 l 157 0 l 157 972 m 464 81 q 687 131 592 81 q 833 272 782 181 q 883 486 883 364 q 832 700 883 608 q 685 842 781 792 q 461 892 590 892 l 242 892 l 242 81 l 464 81 z "},"Ð":{"ha":1103,"x_min":21,"x_max":1014,"o":"m 201 451 l 21 451 l 21 532 l 201 532 l 201 972 l 508 972 q 776 912 661 972 q 952 742 890 851 q 1014 486 1014 632 q 952 230 1014 340 q 776 60 890 119 q 508 0 661 0 l 201 0 l 201 451 m 508 81 q 731 130 636 81 q 876 271 825 179 q 928 486 928 363 q 876 701 928 610 q 730 842 825 793 q 506 892 635 892 l 285 892 l 285 531 l 588 531 l 588 451 l 285 451 l 285 81 l 508 81 z "},"Ď":{"ha":1058,"x_min":157,"x_max":969,"o":"m 157 972 l 464 972 q 731 912 617 972 q 908 742 846 851 q 969 486 969 632 q 908 231 969 340 q 731 60 846 121 q 464 0 617 0 l 157 0 l 157 972 m 464 81 q 687 131 592 81 q 833 272 782 181 q 883 486 883 364 q 832 700 883 608 q 685 842 781 792 q 461 892 590 892 l 242 892 l 242 81 l 464 81 m 357 1258 l 471 1129 l 585 1258 l 675 1258 l 504 1069 l 438 1069 l 267 1258 l 357 1258 z "},"Đ":{"ha":1103,"x_min":21,"x_max":1014,"o":"m 201 451 l 21 451 l 21 532 l 201 532 l 201 972 l 508 972 q 776 912 661 972 q 952 742 890 851 q 1014 486 1014 632 q 952 230 1014 340 q 776 60 890 119 q 508 0 661 0 l 201 0 l 201 451 m 508 81 q 731 130 636 81 q 876 271 825 179 q 928 486 928 363 q 876 701 928 610 q 730 842 825 793 q 506 892 635 892 l 285 892 l 285 531 l 588 531 l 588 451 l 285 451 l 285 81 l 508 81 z "},"E":{"ha":846,"x_min":157,"x_max":744,"o":"m 157 972 l 729 972 l 729 893 l 242 893 l 242 535 l 693 535 l 693 457 l 242 457 l 242 79 l 744 79 l 744 0 l 157 0 l 157 972 z "},"É":{"ha":846,"x_min":157,"x_max":744,"o":"m 157 972 l 729 972 l 729 893 l 242 893 l 242 535 l 693 535 l 693 457 l 242 457 l 242 79 l 744 79 l 744 0 l 157 0 l 157 972 m 486 1258 l 572 1258 l 475 1069 l 399 1069 l 486 1258 z "},"Ĕ":{"ha":846,"x_min":157,"x_max":744,"o":"m 157 972 l 729 972 l 729 893 l 242 893 l 242 535 l 693 535 l 693 457 l 242 457 l 242 79 l 744 79 l 744 0 l 157 0 l 157 972 m 264 1258 l 331 1258 l 331 1236 q 360 1153 331 1183 q 443 1124 390 1124 q 526 1153 496 1124 q 556 1236 556 1183 l 556 1258 l 624 1258 l 624 1232 q 574 1109 624 1156 q 443 1063 525 1063 q 313 1109 361 1063 q 264 1232 264 1156 l 264 1258 z "},"Ě":{"ha":846,"x_min":157,"x_max":744,"o":"m 157 972 l 729 972 l 729 893 l 242 893 l 242 535 l 693 535 l 693 457 l 242 457 l 242 79 l 744 79 l 744 0 l 157 0 l 157 972 m 329 1258 l 443 1129 l 557 1258 l 647 1258 l 476 1069 l 410 1069 l 239 1258 l 329 1258 z "},"Ê":{"ha":846,"x_min":157,"x_max":744,"o":"m 157 972 l 729 972 l 729 893 l 242 893 l 242 535 l 693 535 l 693 457 l 242 457 l 242 79 l 744 79 l 744 0 l 157 0 l 157 972 m 411 1258 l 478 1258 l 649 1069 l 558 1069 l 444 1199 l 331 1069 l 240 1069 l 411 1258 z "},"Ë":{"ha":846,"x_min":157,"x_max":744,"o":"m 157 972 l 729 972 l 729 893 l 242 893 l 242 535 l 693 535 l 693 457 l 242 457 l 242 79 l 744 79 l 744 0 l 157 0 l 157 972 m 238 1160 q 258 1210 238 1190 q 308 1229 278 1229 q 359 1210 339 1229 q 379 1160 379 1190 q 360 1109 379 1129 q 308 1089 340 1089 q 258 1109 278 1089 q 238 1160 238 1129 m 508 1160 q 528 1210 508 1190 q 579 1229 547 1229 q 630 1210 610 1229 q 650 1160 650 1190 q 631 1109 650 1129 q 579 1089 611 1089 q 528 1108 547 1089 q 508 1160 508 1128 z "},"Ė":{"ha":846,"x_min":157,"x_max":744,"o":"m 157 972 l 729 972 l 729 893 l 242 893 l 242 535 l 693 535 l 693 457 l 242 457 l 242 79 l 744 79 l 744 0 l 157 0 l 157 972 m 367 1161 q 388 1215 367 1193 q 443 1236 410 1236 q 498 1215 476 1236 q 519 1161 519 1193 q 499 1108 519 1129 q 443 1086 478 1086 q 388 1108 410 1086 q 367 1161 367 1129 z "},"È":{"ha":846,"x_min":157,"x_max":744,"o":"m 157 972 l 729 972 l 729 893 l 242 893 l 242 535 l 693 535 l 693 457 l 242 457 l 242 79 l 744 79 l 744 0 l 157 0 l 157 972 m 401 1258 l 488 1069 l 413 1069 l 315 1258 l 401 1258 z "},"Ē":{"ha":846,"x_min":157,"x_max":744,"o":"m 157 972 l 729 972 l 729 893 l 242 893 l 242 535 l 693 535 l 693 457 l 242 457 l 242 79 l 744 79 l 744 0 l 157 0 l 157 972 m 240 1196 l 646 1196 l 646 1128 l 240 1128 l 240 1196 z "},"Ę":{"ha":846,"x_min":157,"x_max":760,"o":"m 157 972 l 729 972 l 729 893 l 242 893 l 242 535 l 693 535 l 693 457 l 242 457 l 242 79 l 744 79 l 744 0 q 635 -142 635 -69 q 715 -204 635 -204 l 760 -204 l 760 -271 l 706 -271 q 601 -241 638 -271 q 564 -156 564 -211 q 650 0 564 -72 l 157 0 l 157 972 z "},"F":{"ha":778,"x_min":157,"x_max":693,"o":"m 157 972 l 693 972 l 693 893 l 242 893 l 242 511 l 657 511 l 657 433 l 242 433 l 242 0 l 157 0 l 157 972 z "},"G":{"ha":1156,"x_min":89,"x_max":1072,"o":"m 581 -18 q 327 47 439 -18 q 152 226 215 111 q 89 486 89 340 q 151 747 89 632 q 326 926 214 861 q 578 990 438 990 q 869 903 744 990 q 1042 672 994 815 l 950 672 q 808 844 904 782 q 582 906 711 906 q 370 853 463 906 q 226 705 278 800 q 175 486 175 610 q 226 268 175 364 q 370 119 278 172 q 582 67 463 67 q 781 113 693 67 q 920 242 868 160 q 981 431 972 325 l 550 431 l 550 511 l 1071 511 q 1011 238 1072 358 q 838 50 950 118 q 581 -18 726 -18 z "},"Ğ":{"ha":1156,"x_min":89,"x_max":1072,"o":"m 581 -18 q 327 47 439 -18 q 152 226 215 111 q 89 486 89 340 q 151 747 89 632 q 326 926 214 861 q 578 990 438 990 q 869 903 744 990 q 1042 672 994 815 l 950 672 q 808 844 904 782 q 582 906 711 906 q 370 853 463 906 q 226 705 278 800 q 175 486 175 610 q 226 268 175 364 q 370 119 278 172 q 582 67 463 67 q 781 113 693 67 q 920 242 868 160 q 981 431 972 325 l 550 431 l 550 511 l 1071 511 q 1011 238 1072 358 q 838 50 950 118 q 581 -18 726 -18 m 399 1258 l 465 1258 l 465 1236 q 495 1153 465 1183 q 578 1124 525 1124 q 660 1153 631 1124 q 690 1236 690 1183 l 690 1258 l 758 1258 l 758 1232 q 709 1109 758 1156 q 578 1063 660 1063 q 447 1109 496 1063 q 399 1232 399 1156 l 399 1258 z "},"Ǧ":{"ha":1156,"x_min":89,"x_max":1072,"o":"m 581 -18 q 327 47 439 -18 q 152 226 215 111 q 89 486 89 340 q 151 747 89 632 q 326 926 214 861 q 578 990 438 990 q 869 903 744 990 q 1042 672 994 815 l 950 672 q 808 844 904 782 q 582 906 711 906 q 370 853 463 906 q 226 705 278 800 q 175 486 175 610 q 226 268 175 364 q 370 119 278 172 q 582 67 463 67 q 781 113 693 67 q 920 242 868 160 q 981 431 972 325 l 550 431 l 550 511 l 1071 511 q 1011 238 1072 358 q 838 50 950 118 q 581 -18 726 -18 m 464 1258 l 578 1129 l 692 1258 l 782 1258 l 611 1069 l 544 1069 l 374 1258 l 464 1258 z "},"Ĝ":{"ha":1156,"x_min":89,"x_max":1072,"o":"m 581 -18 q 327 47 439 -18 q 152 226 215 111 q 89 486 89 340 q 151 747 89 632 q 326 926 214 861 q 578 990 438 990 q 869 903 744 990 q 1042 672 994 815 l 950 672 q 808 844 904 782 q 582 906 711 906 q 370 853 463 906 q 226 705 278 800 q 175 486 175 610 q 226 268 175 364 q 370 119 278 172 q 582 67 463 67 q 781 113 693 67 q 920 242 868 160 q 981 431 972 325 l 550 431 l 550 511 l 1071 511 q 1011 238 1072 358 q 838 50 950 118 q 581 -18 726 -18 m 546 1258 l 613 1258 l 783 1069 l 693 1069 l 579 1199 l 465 1069 l 375 1069 l 546 1258 z "},"Ģ":{"ha":1156,"x_min":89,"x_max":1072,"o":"m 581 -18 q 327 47 439 -18 q 152 226 215 111 q 89 486 89 340 q 151 747 89 632 q 326 926 214 861 q 578 990 438 990 q 869 903 744 990 q 1042 672 994 815 l 950 672 q 808 844 904 782 q 582 906 711 906 q 370 853 463 906 q 226 705 278 800 q 175 486 175 610 q 226 268 175 364 q 370 119 278 172 q 582 67 463 67 q 781 113 693 67 q 920 242 868 160 q 981 431 972 325 l 550 431 l 550 511 l 1071 511 q 1011 238 1072 358 q 838 50 950 118 q 581 -18 726 -18 m 503 -161 q 522 -115 503 -133 q 571 -97 540 -97 q 632 -127 608 -97 q 656 -206 656 -157 q 621 -324 656 -272 q 536 -387 586 -376 l 536 -340 q 585 -291 568 -325 q 599 -215 601 -257 q 565 -224 582 -224 q 521 -206 539 -224 q 503 -161 503 -189 z "},"Ġ":{"ha":1156,"x_min":89,"x_max":1072,"o":"m 581 -18 q 327 47 439 -18 q 152 226 215 111 q 89 486 89 340 q 151 747 89 632 q 326 926 214 861 q 578 990 438 990 q 869 903 744 990 q 1042 672 994 815 l 950 672 q 808 844 904 782 q 582 906 711 906 q 370 853 463 906 q 226 705 278 800 q 175 486 175 610 q 226 268 175 364 q 370 119 278 172 q 582 67 463 67 q 781 113 693 67 q 920 242 868 160 q 981 431 972 325 l 550 431 l 550 511 l 1071 511 q 1011 238 1072 358 q 838 50 950 118 q 581 -18 726 -18 m 501 1161 q 523 1215 501 1193 q 578 1236 544 1236 q 633 1215 611 1236 q 654 1161 654 1193 q 633 1108 654 1129 q 578 1086 613 1086 q 523 1108 544 1086 q 501 1161 501 1129 z "},"H":{"ha":1053,"x_min":157,"x_max":896,"o":"m 811 456 l 242 456 l 242 0 l 157 0 l 157 972 l 242 972 l 242 536 l 811 536 l 811 972 l 896 972 l 896 0 l 811 0 l 811 456 z "},"Ħ":{"ha":1074,"x_min":38,"x_max":1038,"o":"m 822 451 l 251 451 l 251 0 l 168 0 l 168 750 l 38 750 l 38 818 l 168 818 l 168 972 l 251 972 l 251 818 l 822 818 l 822 972 l 906 972 l 906 818 l 1038 818 l 1038 750 l 906 750 l 906 0 l 822 0 l 822 451 m 822 532 l 822 753 l 251 753 l 251 532 l 822 532 z "},"Ĥ":{"ha":1053,"x_min":157,"x_max":896,"o":"m 811 456 l 242 456 l 242 0 l 157 0 l 157 972 l 242 972 l 242 536 l 811 536 l 811 972 l 896 972 l 896 0 l 811 0 l 811 456 m 493 1258 l 561 1258 l 731 1069 l 642 1069 l 528 1199 l 413 1069 l 324 1069 l 493 1258 z "},"I":{"ha":399,"x_min":157,"x_max":242,"o":"m 157 972 l 242 972 l 242 0 l 157 0 l 157 972 z "},"Ĳ":{"ha":1063,"x_min":157,"x_max":910,"o":"m 157 972 l 242 972 l 242 0 l 157 0 l 157 972 m 464 81 l 604 81 q 773 138 719 81 q 826 307 826 196 l 826 972 l 910 972 l 910 303 q 833 79 910 158 q 604 0 756 0 l 464 0 l 464 81 z "},"Í":{"ha":399,"x_min":154,"x_max":328,"o":"m 157 972 l 242 972 l 242 0 l 157 0 l 157 972 m 242 1258 l 328 1258 l 231 1069 l 154 1069 l 242 1258 z "},"Ĭ":{"ha":399,"x_min":19,"x_max":379,"o":"m 157 972 l 242 972 l 242 0 l 157 0 l 157 972 m 19 1258 l 86 1258 l 86 1236 q 116 1153 86 1183 q 199 1124 146 1124 q 282 1153 251 1124 q 313 1236 313 1183 l 313 1258 l 379 1258 l 379 1232 q 330 1109 379 1156 q 199 1063 281 1063 q 68 1109 117 1063 q 19 1232 19 1156 l 19 1258 z "},"Î":{"ha":399,"x_min":10,"x_max":389,"o":"m 157 972 l 242 972 l 242 0 l 157 0 l 157 972 m 165 1258 l 233 1258 l 389 1069 l 300 1069 l 199 1196 l 99 1069 l 10 1069 l 165 1258 z "},"Ï":{"ha":399,"x_min":-7,"x_max":406,"o":"m 157 972 l 242 972 l 242 0 l 157 0 l 157 972 m -7 1160 q 13 1210 -7 1190 q 64 1229 33 1229 q 115 1210 94 1229 q 135 1160 135 1190 q 115 1109 135 1129 q 64 1089 96 1089 q 13 1109 33 1089 q -7 1160 -7 1129 m 264 1160 q 283 1210 264 1190 q 335 1229 303 1229 q 385 1210 365 1229 q 406 1160 406 1190 q 386 1109 406 1129 q 335 1089 367 1089 q 283 1108 303 1089 q 264 1160 264 1128 z "},"İ":{"ha":399,"x_min":124,"x_max":275,"o":"m 157 972 l 242 972 l 242 0 l 157 0 l 157 972 m 124 1161 q 144 1215 124 1193 q 199 1236 165 1236 q 253 1215 232 1236 q 275 1161 275 1193 q 254 1108 275 1129 q 199 1086 233 1086 q 144 1107 165 1086 q 124 1161 124 1128 z "},"Ì":{"ha":399,"x_min":71,"x_max":244,"o":"m 157 972 l 242 972 l 242 0 l 157 0 l 157 972 m 157 1258 l 244 1069 l 168 1069 l 71 1258 l 157 1258 z "},"Ī":{"ha":399,"x_min":15,"x_max":382,"o":"m 157 972 l 242 972 l 242 0 l 157 0 l 157 972 m 15 1196 l 382 1196 l 382 1128 l 15 1128 l 15 1196 z "},"Į":{"ha":399,"x_min":79,"x_max":271,"o":"m 157 972 l 242 972 l 242 0 q 149 -139 149 -61 q 226 -201 149 -201 l 271 -201 l 271 -265 l 219 -265 q 116 -236 153 -265 q 79 -153 79 -207 q 160 0 79 -72 l 157 0 l 157 972 z "},"Ĩ":{"ha":399,"x_min":-3,"x_max":401,"o":"m 157 972 l 242 972 l 242 0 l 157 0 l 157 972 m -3 1113 q 26 1201 -3 1168 q 107 1233 56 1233 q 163 1221 140 1233 q 213 1185 186 1208 q 251 1157 236 1165 q 285 1149 265 1149 q 323 1165 310 1149 q 336 1210 336 1181 l 336 1229 l 401 1229 l 401 1203 q 372 1115 401 1147 q 293 1083 343 1083 q 237 1096 260 1083 q 188 1132 214 1108 q 149 1160 164 1151 q 115 1168 135 1168 q 77 1152 90 1168 q 64 1107 64 1136 l 64 1086 l -3 1086 l -3 1113 z "},"J":{"ha":665,"x_min":65,"x_max":511,"o":"m 65 81 l 206 81 q 374 138 321 81 q 428 307 428 196 l 428 972 l 511 972 l 511 303 q 434 79 511 158 q 206 0 357 0 l 65 0 l 65 81 z "},"Ĵ":{"ha":665,"x_min":65,"x_max":660,"o":"m 65 81 l 206 81 q 374 138 321 81 q 428 307 428 196 l 428 972 l 511 972 l 511 303 q 434 79 511 158 q 206 0 357 0 l 65 0 l 65 81 m 435 1258 l 503 1258 l 660 1069 l 569 1069 l 469 1196 l 369 1069 l 279 1069 l 435 1258 z "},"K":{"ha":947,"x_min":157,"x_max":888,"o":"m 157 972 l 242 972 l 242 535 l 396 535 q 564 574 507 535 q 656 701 621 613 l 758 972 l 847 972 l 731 668 q 675 565 707 607 q 597 499 643 524 l 888 0 l 790 0 l 519 468 q 396 454 468 454 l 242 454 l 242 0 l 157 0 l 157 972 z "},"Ķ":{"ha":947,"x_min":157,"x_max":888,"o":"m 157 972 l 242 972 l 242 535 l 396 535 q 564 574 507 535 q 656 701 621 613 l 758 972 l 847 972 l 731 668 q 675 565 707 607 q 597 499 643 524 l 888 0 l 790 0 l 519 468 q 396 454 468 454 l 242 454 l 242 0 l 157 0 l 157 972 m 424 -161 q 442 -115 424 -133 q 492 -97 461 -97 q 553 -127 529 -97 q 576 -206 576 -157 q 542 -324 576 -272 q 457 -387 507 -376 l 457 -340 q 506 -290 489 -325 q 519 -215 524 -256 q 486 -224 503 -224 q 442 -206 460 -224 q 424 -161 424 -189 z "},"L":{"ha":782,"x_min":157,"x_max":735,"o":"m 157 972 l 242 972 l 242 81 l 735 81 l 735 0 l 157 0 l 157 972 z "},"Ĺ":{"ha":782,"x_min":154,"x_max":735,"o":"m 157 972 l 242 972 l 242 81 l 735 81 l 735 0 l 157 0 l 157 972 m 242 1258 l 328 1258 l 231 1069 l 154 1069 l 242 1258 z "},"Ľ":{"ha":783,"x_min":157,"x_max":735,"o":"m 157 972 l 242 972 l 242 81 l 735 81 l 735 0 l 157 0 l 157 972 m 569 972 l 654 972 l 590 689 l 518 689 l 569 972 z "},"Ļ":{"ha":782,"x_min":157,"x_max":735,"o":"m 157 972 l 242 972 l 242 81 l 735 81 l 735 0 l 157 0 l 157 972 m 376 -161 q 395 -115 376 -133 q 443 -97 414 -97 q 505 -127 482 -97 q 528 -206 528 -157 q 494 -324 528 -272 q 408 -387 460 -376 l 408 -340 q 458 -290 440 -325 q 472 -215 475 -256 q 438 -224 456 -224 q 394 -206 411 -224 q 376 -161 376 -187 z "},"Ŀ":{"ha":782,"x_min":157,"x_max":735,"o":"m 157 972 l 242 972 l 242 81 l 735 81 l 735 0 l 157 0 l 157 972 z "},"Ł":{"ha":808,"x_min":14,"x_max":760,"o":"m 183 450 l 14 381 l 14 461 l 183 531 l 183 972 l 267 972 l 267 564 l 538 674 l 538 593 l 267 483 l 267 81 l 760 81 l 760 0 l 183 0 l 183 450 z "},"M":{"ha":1279,"x_min":157,"x_max":1122,"o":"m 157 972 l 236 972 l 640 364 l 1044 972 l 1122 972 l 1122 0 l 1039 0 l 1039 817 l 675 271 l 606 271 l 242 817 l 242 0 l 157 0 l 157 972 z "},"N":{"ha":1068,"x_min":157,"x_max":911,"o":"m 157 972 l 236 972 l 828 146 l 828 972 l 911 972 l 911 0 l 832 0 l 240 828 l 240 0 l 157 0 l 157 972 z "},"Ń":{"ha":1068,"x_min":157,"x_max":911,"o":"m 157 972 l 236 972 l 828 146 l 828 972 l 911 972 l 911 0 l 832 0 l 240 828 l 240 0 l 157 0 l 157 972 m 576 1258 l 663 1258 l 565 1069 l 490 1069 l 576 1258 z "},"Ň":{"ha":1068,"x_min":157,"x_max":911,"o":"m 157 972 l 236 972 l 828 146 l 828 972 l 911 972 l 911 0 l 832 0 l 240 828 l 240 0 l 157 0 l 157 972 m 421 1258 l 535 1129 l 649 1258 l 739 1258 l 568 1069 l 501 1069 l 331 1258 l 421 1258 z "},"Ņ":{"ha":1068,"x_min":157,"x_max":911,"o":"m 157 972 l 236 972 l 828 146 l 828 972 l 911 972 l 911 0 l 832 0 l 240 828 l 240 0 l 157 0 l 157 972 m 463 -161 q 481 -115 463 -133 q 531 -97 500 -97 q 592 -127 568 -97 q 615 -206 615 -157 q 581 -324 615 -272 q 496 -387 546 -376 l 496 -340 q 545 -290 528 -325 q 558 -215 563 -256 q 525 -224 542 -224 q 481 -206 499 -224 q 463 -161 463 -187 z "},"Ñ":{"ha":1068,"x_min":157,"x_max":911,"o":"m 157 972 l 236 972 l 828 146 l 828 972 l 911 972 l 911 0 l 832 0 l 240 828 l 240 0 l 157 0 l 157 972 m 333 1113 q 363 1201 333 1168 q 442 1233 392 1233 q 498 1221 475 1233 q 547 1185 521 1208 q 585 1157 571 1165 q 619 1149 600 1149 q 658 1165 644 1149 q 672 1210 672 1181 l 672 1229 l 738 1229 l 738 1203 q 708 1115 738 1147 q 629 1083 679 1083 q 573 1096 596 1083 q 524 1132 550 1108 q 485 1160 500 1151 q 451 1168 471 1168 q 413 1151 426 1168 q 399 1107 399 1135 l 399 1086 l 333 1086 l 333 1113 z "},"Ŋ":{"ha":1068,"x_min":157,"x_max":911,"o":"m 624 -201 l 692 -201 q 798 -169 768 -201 q 828 -56 828 -137 l 828 6 l 240 828 l 240 0 l 157 0 l 157 972 l 236 972 l 828 144 l 828 972 l 911 972 l 911 -58 q 863 -226 911 -174 q 694 -278 814 -278 l 624 -278 l 624 -201 z "},"O":{"ha":1181,"x_min":89,"x_max":1092,"o":"m 590 -18 q 331 46 444 -18 q 153 224 217 110 q 89 486 89 339 q 153 748 89 633 q 331 926 217 863 q 590 990 444 990 q 851 926 738 990 q 1028 748 965 863 q 1092 486 1092 633 q 1028 224 1092 339 q 851 46 965 110 q 590 -18 738 -18 m 175 486 q 228 268 175 364 q 374 119 281 172 q 590 67 468 67 q 807 119 713 67 q 954 267 901 172 q 1007 486 1007 363 q 954 705 1007 610 q 807 853 901 800 q 590 906 713 906 q 374 853 468 906 q 228 705 281 800 q 175 486 175 610 z "},"Ó":{"ha":1181,"x_min":89,"x_max":1092,"o":"m 590 -18 q 331 46 444 -18 q 153 224 217 110 q 89 486 89 339 q 153 748 89 633 q 331 926 217 863 q 590 990 444 990 q 851 926 738 990 q 1028 748 965 863 q 1092 486 1092 633 q 1028 224 1092 339 q 851 46 965 110 q 590 -18 738 -18 m 175 486 q 228 268 175 364 q 374 119 281 172 q 590 67 468 67 q 807 119 713 67 q 954 267 901 172 q 1007 486 1007 363 q 954 705 1007 610 q 807 853 901 800 q 590 906 713 906 q 374 853 468 906 q 228 705 281 800 q 175 486 175 610 m 632 1258 l 719 1258 l 622 1069 l 546 1069 l 632 1258 z "},"Ŏ":{"ha":1181,"x_min":89,"x_max":1092,"o":"m 590 -18 q 331 46 444 -18 q 153 224 217 110 q 89 486 89 339 q 153 748 89 633 q 331 926 217 863 q 590 990 444 990 q 851 926 738 990 q 1028 748 965 863 q 1092 486 1092 633 q 1028 224 1092 339 q 851 46 965 110 q 590 -18 738 -18 m 175 486 q 228 268 175 364 q 374 119 281 172 q 590 67 468 67 q 807 119 713 67 q 954 267 901 172 q 1007 486 1007 363 q 954 705 1007 610 q 807 853 901 800 q 590 906 713 906 q 374 853 468 906 q 228 705 281 800 q 175 486 175 610 m 410 1258 l 478 1258 l 478 1236 q 508 1153 478 1183 q 590 1124 538 1124 q 673 1153 643 1124 q 703 1236 703 1183 l 703 1258 l 771 1258 l 771 1232 q 722 1109 771 1156 q 590 1063 672 1063 q 459 1109 508 1063 q 410 1232 410 1156 l 410 1258 z "},"Ô":{"ha":1181,"x_min":89,"x_max":1092,"o":"m 590 -18 q 331 46 444 -18 q 153 224 217 110 q 89 486 89 339 q 153 748 89 633 q 331 926 217 863 q 590 990 444 990 q 851 926 738 990 q 1028 748 965 863 q 1092 486 1092 633 q 1028 224 1092 339 q 851 46 965 110 q 590 -18 738 -18 m 175 486 q 228 268 175 364 q 374 119 281 172 q 590 67 468 67 q 807 119 713 67 q 954 267 901 172 q 1007 486 1007 363 q 954 705 1007 610 q 807 853 901 800 q 590 906 713 906 q 374 853 468 906 q 228 705 281 800 q 175 486 175 610 m 557 1258 l 625 1258 l 794 1069 l 706 1069 l 592 1199 l 478 1069 l 388 1069 l 557 1258 z "},"Ö":{"ha":1181,"x_min":89,"x_max":1092,"o":"m 590 -18 q 331 46 444 -18 q 153 224 217 110 q 89 486 89 339 q 153 748 89 633 q 331 926 217 863 q 590 990 444 990 q 851 926 738 990 q 1028 748 965 863 q 1092 486 1092 633 q 1028 224 1092 339 q 851 46 965 110 q 590 -18 738 -18 m 175 486 q 228 268 175 364 q 374 119 281 172 q 590 67 468 67 q 807 119 713 67 q 954 267 901 172 q 1007 486 1007 363 q 954 705 1007 610 q 807 853 901 800 q 590 906 713 906 q 374 853 468 906 q 228 705 281 800 q 175 486 175 610 m 385 1160 q 405 1210 385 1190 q 456 1229 425 1229 q 506 1210 486 1229 q 526 1160 526 1190 q 507 1109 526 1129 q 456 1089 488 1089 q 405 1109 425 1089 q 385 1160 385 1129 m 654 1160 q 674 1210 654 1190 q 725 1229 694 1229 q 776 1210 757 1229 q 796 1160 796 1190 q 776 1108 796 1128 q 725 1089 757 1089 q 674 1109 694 1089 q 654 1160 654 1129 z "},"Ò":{"ha":1181,"x_min":89,"x_max":1092,"o":"m 590 -18 q 331 46 444 -18 q 153 224 217 110 q 89 486 89 339 q 153 748 89 633 q 331 926 217 863 q 590 990 444 990 q 851 926 738 990 q 1028 748 965 863 q 1092 486 1092 633 q 1028 224 1092 339 q 851 46 965 110 q 590 -18 738 -18 m 175 486 q 228 268 175 364 q 374 119 281 172 q 590 67 468 67 q 807 119 713 67 q 954 267 901 172 q 1007 486 1007 363 q 954 705 1007 610 q 807 853 901 800 q 590 906 713 906 q 374 853 468 906 q 228 705 281 800 q 175 486 175 610 m 549 1258 l 635 1069 l 560 1069 l 463 1258 l 549 1258 z "},"Ő":{"ha":1181,"x_min":89,"x_max":1092,"o":"m 590 -18 q 331 46 444 -18 q 153 224 217 110 q 89 486 89 339 q 153 748 89 633 q 331 926 217 863 q 590 990 444 990 q 851 926 738 990 q 1028 748 965 863 q 1092 486 1092 633 q 1028 224 1092 339 q 851 46 965 110 q 590 -18 738 -18 m 175 486 q 228 268 175 364 q 374 119 281 172 q 590 67 468 67 q 807 119 713 67 q 954 267 901 172 q 1007 486 1007 363 q 954 705 1007 610 q 807 853 901 800 q 590 906 713 906 q 374 853 468 906 q 228 705 281 800 q 175 486 175 610 m 528 1258 l 611 1258 l 518 1069 l 444 1069 l 528 1258 m 739 1258 l 828 1258 l 721 1069 l 644 1069 l 739 1258 z "},"Ō":{"ha":1181,"x_min":89,"x_max":1092,"o":"m 590 -18 q 331 46 444 -18 q 153 224 217 110 q 89 486 89 339 q 153 748 89 633 q 331 926 217 863 q 590 990 444 990 q 851 926 738 990 q 1028 748 965 863 q 1092 486 1092 633 q 1028 224 1092 339 q 851 46 965 110 q 590 -18 738 -18 m 175 486 q 228 268 175 364 q 374 119 281 172 q 590 67 468 67 q 807 119 713 67 q 954 267 901 172 q 1007 486 1007 363 q 954 705 1007 610 q 807 853 901 800 q 590 906 713 906 q 374 853 468 906 q 228 705 281 800 q 175 486 175 610 m 388 1196 l 793 1196 l 793 1128 l 388 1128 l 388 1196 z "},"Ø":{"ha":1181,"x_min":89,"x_max":1092,"o":"m 267 88 q 135 259 182 157 q 89 486 89 361 q 153 748 89 633 q 331 926 217 863 q 590 990 444 990 q 846 929 732 990 l 914 1026 l 1013 1026 l 914 885 q 1045 714 999 817 q 1092 486 1092 611 q 1028 224 1092 339 q 851 46 965 110 q 590 -18 738 -18 q 335 43 449 -18 l 267 -54 l 168 -54 l 267 88 m 175 486 q 212 299 175 383 q 317 158 249 215 l 799 858 q 590 906 707 906 q 374 853 468 906 q 228 705 281 800 q 175 486 175 610 m 383 115 q 590 67 472 67 q 807 119 713 67 q 954 267 901 172 q 1007 486 1007 363 q 969 674 1007 590 q 864 814 932 758 l 383 115 z "},"Ǿ":{"ha":1181,"x_min":89,"x_max":1092,"o":"m 267 88 q 135 259 182 157 q 89 486 89 361 q 153 748 89 633 q 331 926 217 863 q 590 990 444 990 q 846 929 732 990 l 914 1026 l 1013 1026 l 914 885 q 1045 714 999 817 q 1092 486 1092 611 q 1028 224 1092 339 q 851 46 965 110 q 590 -18 738 -18 q 335 43 449 -18 l 267 -54 l 168 -54 l 267 88 m 175 486 q 212 299 175 383 q 317 158 249 215 l 799 858 q 590 906 707 906 q 374 853 468 906 q 228 705 281 800 q 175 486 175 610 m 383 115 q 590 67 472 67 q 807 119 713 67 q 954 267 901 172 q 1007 486 1007 363 q 969 674 1007 590 q 864 814 932 758 l 383 115 m 632 1258 l 719 1258 l 622 1069 l 546 1069 l 632 1258 z "},"Õ":{"ha":1181,"x_min":89,"x_max":1092,"o":"m 590 -18 q 331 46 444 -18 q 153 224 217 110 q 89 486 89 339 q 153 748 89 633 q 331 926 217 863 q 590 990 444 990 q 851 926 738 990 q 1028 748 965 863 q 1092 486 1092 633 q 1028 224 1092 339 q 851 46 965 110 q 590 -18 738 -18 m 175 486 q 228 268 175 364 q 374 119 281 172 q 590 67 468 67 q 807 119 713 67 q 954 267 901 172 q 1007 486 1007 363 q 954 705 1007 610 q 807 853 901 800 q 590 906 713 906 q 374 853 468 906 q 228 705 281 800 q 175 486 175 610 m 389 1113 q 418 1201 389 1168 q 497 1233 447 1233 q 554 1221 531 1233 q 604 1185 578 1208 q 640 1158 625 1167 q 675 1149 656 1149 q 715 1165 701 1149 q 728 1210 728 1181 l 728 1229 l 793 1229 l 793 1203 q 764 1115 793 1147 q 685 1083 735 1083 q 628 1096 651 1083 q 579 1132 606 1108 q 541 1160 556 1151 q 507 1168 526 1168 q 468 1151 482 1168 q 454 1107 454 1135 l 454 1086 l 389 1086 l 389 1113 z "},"Œ":{"ha":1414,"x_min":89,"x_max":1313,"o":"m 603 -18 q 332 46 449 -18 q 152 224 215 110 q 89 486 89 339 q 152 748 89 633 q 332 926 215 863 q 603 990 449 990 q 760 972 688 990 l 1297 972 l 1297 893 l 838 893 l 838 535 l 1261 535 l 1261 457 l 838 457 l 838 79 l 1313 79 l 1313 0 l 760 0 q 603 -18 688 -18 m 175 486 q 227 265 175 360 q 377 119 279 171 q 608 67 475 67 q 753 83 685 67 l 753 889 q 608 906 685 906 q 377 853 475 906 q 227 707 279 801 q 175 486 175 613 z "},"P":{"ha":889,"x_min":157,"x_max":824,"o":"m 157 972 l 465 972 q 729 888 635 972 q 824 653 824 804 q 729 417 824 501 q 465 333 635 333 l 242 333 l 242 0 l 157 0 l 157 972 m 464 411 q 669 472 600 411 q 739 651 739 532 q 669 831 739 771 q 464 892 600 892 l 242 892 l 242 411 l 464 411 z "},"Þ":{"ha":889,"x_min":157,"x_max":824,"o":"m 157 972 l 242 972 l 242 813 l 465 813 q 728 728 633 813 q 824 492 824 643 q 728 257 824 342 q 465 172 633 172 l 242 172 l 242 0 l 157 0 l 157 972 m 464 253 q 669 313 600 253 q 739 492 739 374 q 464 732 739 732 l 242 732 l 242 253 l 464 253 z "},"Q":{"ha":1181,"x_min":89,"x_max":1092,"o":"m 590 -18 q 331 46 444 -18 q 153 224 217 110 q 89 486 89 339 q 153 748 89 633 q 331 926 217 863 q 590 990 444 990 q 851 926 738 990 q 1028 748 965 863 q 1092 486 1092 633 q 997 174 1092 304 q 740 1 901 44 l 753 -29 q 828 -128 783 -101 q 961 -156 872 -156 l 1039 -156 l 1039 -236 l 956 -236 q 779 -194 846 -236 q 674 -60 713 -153 l 656 -15 q 590 -18 614 -18 m 175 486 q 228 268 175 364 q 374 119 281 172 q 590 67 468 67 q 807 119 713 67 q 954 267 901 172 q 1007 486 1007 363 q 954 705 1007 610 q 807 853 901 800 q 590 906 713 906 q 374 853 468 906 q 228 705 281 800 q 175 486 175 610 z "},"R":{"ha":950,"x_min":157,"x_max":856,"o":"m 157 972 l 517 972 q 687 935 614 972 q 800 829 760 897 q 840 669 840 761 q 774 471 840 550 q 592 372 707 392 l 856 0 l 754 0 l 493 365 l 242 365 l 242 0 l 157 0 l 157 972 m 508 446 q 689 506 624 446 q 754 669 754 565 q 689 832 754 772 q 508 892 624 892 l 242 892 l 242 446 l 508 446 z "},"Ŕ":{"ha":950,"x_min":157,"x_max":856,"o":"m 157 972 l 517 972 q 687 935 614 972 q 800 829 760 897 q 840 669 840 761 q 774 471 840 550 q 592 372 707 392 l 856 0 l 754 0 l 493 365 l 242 365 l 242 0 l 157 0 l 157 972 m 508 446 q 689 506 624 446 q 754 669 754 565 q 689 832 754 772 q 508 892 624 892 l 242 892 l 242 446 l 508 446 m 469 1258 l 556 1258 l 458 1069 l 383 1069 l 469 1258 z "},"Ř":{"ha":950,"x_min":157,"x_max":856,"o":"m 157 972 l 517 972 q 687 935 614 972 q 800 829 760 897 q 840 669 840 761 q 774 471 840 550 q 592 372 707 392 l 856 0 l 754 0 l 493 365 l 242 365 l 242 0 l 157 0 l 157 972 m 314 1258 l 428 1129 l 542 1258 l 632 1258 l 461 1069 l 394 1069 l 224 1258 l 314 1258 m 508 446 q 689 506 624 446 q 754 669 754 565 q 689 832 754 772 q 508 892 624 892 l 242 892 l 242 446 l 508 446 z "},"Ŗ":{"ha":950,"x_min":157,"x_max":856,"o":"m 157 972 l 517 972 q 687 935 614 972 q 800 829 760 897 q 840 669 840 761 q 774 471 840 550 q 592 372 707 392 l 856 0 l 754 0 l 493 365 l 242 365 l 242 0 l 157 0 l 157 972 m 508 446 q 689 506 624 446 q 754 669 754 565 q 689 832 754 772 q 508 892 624 892 l 242 892 l 242 446 l 508 446 m 401 -161 q 420 -115 401 -133 q 469 -97 439 -97 q 531 -127 507 -97 q 554 -206 554 -157 q 519 -324 554 -272 q 435 -387 485 -376 l 435 -340 q 484 -290 467 -325 q 497 -215 501 -256 q 464 -224 481 -224 q 419 -206 438 -224 q 401 -161 401 -187 z "},"S":{"ha":913,"x_min":97,"x_max":814,"o":"m 469 -18 q 276 19 360 -18 q 147 126 193 57 q 97 289 100 196 l 181 289 q 264 122 186 182 q 469 63 342 63 q 658 112 589 63 q 728 246 728 161 q 663 370 728 322 q 453 450 599 418 q 192 558 272 492 q 113 732 113 624 q 202 920 113 850 q 446 990 292 990 q 699 913 607 990 q 797 694 792 835 l 714 694 q 638 853 708 797 q 446 910 568 910 q 263 861 329 910 q 197 732 197 813 q 260 610 197 658 q 474 529 324 563 q 735 420 656 488 q 814 247 814 353 q 721 53 814 125 q 469 -18 628 -18 z "},"Ś":{"ha":913,"x_min":97,"x_max":814,"o":"m 469 -18 q 276 19 360 -18 q 147 126 193 57 q 97 289 100 196 l 181 289 q 264 122 186 182 q 469 63 342 63 q 658 112 589 63 q 728 246 728 161 q 663 370 728 322 q 453 450 599 418 q 192 558 272 492 q 113 732 113 624 q 202 920 113 850 q 446 990 292 990 q 699 913 607 990 q 797 694 792 835 l 714 694 q 638 853 708 797 q 446 910 568 910 q 263 861 329 910 q 197 732 197 813 q 260 610 197 658 q 474 529 324 563 q 735 420 656 488 q 814 247 814 353 q 721 53 814 125 q 469 -18 628 -18 m 490 1258 l 578 1258 l 481 1069 l 404 1069 l 490 1258 z "},"Š":{"ha":913,"x_min":97,"x_max":814,"o":"m 469 -18 q 276 19 360 -18 q 147 126 193 57 q 97 289 100 196 l 181 289 q 264 122 186 182 q 469 63 342 63 q 658 112 589 63 q 728 246 728 161 q 663 370 728 322 q 453 450 599 418 q 192 558 272 492 q 113 732 113 624 q 202 920 113 850 q 446 990 292 990 q 699 913 607 990 q 797 694 792 835 l 714 694 q 638 853 708 797 q 446 910 568 910 q 263 861 329 910 q 197 732 197 813 q 260 610 197 658 q 474 529 324 563 q 735 420 656 488 q 814 247 814 353 q 721 53 814 125 q 469 -18 628 -18 m 335 1258 l 449 1129 l 563 1258 l 653 1258 l 482 1069 l 415 1069 l 244 1258 l 335 1258 z "},"Ş":{"ha":913,"x_min":97,"x_max":814,"o":"m 379 -281 l 456 -281 q 517 -263 496 -281 q 539 -214 539 -246 q 517 -165 539 -182 q 456 -147 496 -147 l 411 -147 l 400 -132 l 442 -18 q 194 72 286 -10 q 97 289 103 154 l 181 289 q 264 122 186 182 q 469 63 342 63 q 658 112 589 63 q 728 246 728 161 q 663 370 728 322 q 453 450 599 418 q 192 558 272 492 q 113 732 113 624 q 202 920 113 850 q 446 990 292 990 q 699 913 607 990 q 797 694 792 835 l 714 694 q 638 853 708 797 q 446 910 568 910 q 263 861 329 910 q 197 732 197 813 q 260 610 197 658 q 474 529 324 563 q 735 420 656 488 q 814 247 814 353 q 731 61 814 132 q 504 -17 647 -10 l 476 -90 q 574 -128 539 -94 q 610 -218 610 -162 q 570 -312 610 -278 q 461 -346 531 -346 l 379 -346 l 379 -281 z "},"Ŝ":{"ha":913,"x_min":97,"x_max":814,"o":"m 469 -18 q 276 19 360 -18 q 147 126 193 57 q 97 289 100 196 l 181 289 q 264 122 186 182 q 469 63 342 63 q 658 112 589 63 q 728 246 728 161 q 663 370 728 322 q 453 450 599 418 q 192 558 272 492 q 113 732 113 624 q 202 920 113 850 q 446 990 292 990 q 699 913 607 990 q 797 694 792 835 l 714 694 q 638 853 708 797 q 446 910 568 910 q 263 861 329 910 q 197 732 197 813 q 260 610 197 658 q 474 529 324 563 q 735 420 656 488 q 814 247 814 353 q 721 53 814 125 q 469 -18 628 -18 m 415 1258 l 483 1258 l 653 1069 l 564 1069 l 450 1199 l 336 1069 l 246 1069 l 415 1258 z "},"Ș":{"ha":913,"x_min":97,"x_max":814,"o":"m 469 -18 q 276 19 360 -18 q 147 126 193 57 q 97 289 100 196 l 181 289 q 264 122 186 182 q 469 63 342 63 q 658 112 589 63 q 728 246 728 161 q 663 370 728 322 q 453 450 599 418 q 192 558 272 492 q 113 732 113 624 q 202 920 113 850 q 446 990 292 990 q 699 913 607 990 q 797 694 792 835 l 714 694 q 638 853 708 797 q 446 910 568 910 q 263 861 329 910 q 197 732 197 813 q 260 610 197 658 q 474 529 324 563 q 735 420 656 488 q 814 247 814 353 q 721 53 814 125 q 469 -18 628 -18 m 406 -161 q 424 -115 406 -133 q 474 -97 443 -97 q 535 -127 511 -97 q 558 -206 558 -157 q 524 -324 558 -272 q 439 -387 489 -376 l 439 -340 q 488 -290 471 -325 q 501 -215 506 -256 q 468 -224 485 -224 q 424 -206 442 -224 q 406 -161 406 -189 z "},"ẞ":{"ha":964,"x_min":144,"x_max":881,"o":"m 144 650 q 467 972 144 972 l 804 972 l 804 907 l 553 583 l 567 583 q 795 504 710 583 q 881 292 881 425 q 795 79 881 158 q 567 0 710 0 l 407 0 l 407 79 l 563 79 q 731 137 668 79 q 794 293 794 194 q 732 448 794 390 q 563 506 669 506 l 447 506 l 447 571 l 699 894 l 475 894 q 289 835 350 894 q 228 642 228 776 l 228 0 l 144 0 l 144 650 z "},"Ə":{"ha":1161,"x_min":88,"x_max":1072,"o":"m 581 -18 q 320 49 432 -18 q 148 237 208 115 q 89 518 88 358 l 990 518 q 930 725 983 636 q 786 863 876 814 q 581 913 696 913 q 354 855 453 913 q 208 694 256 797 l 119 694 q 298 912 176 833 q 581 990 419 990 q 837 926 725 990 q 1010 747 949 863 q 1072 483 1072 632 q 1010 222 1072 336 q 837 45 949 108 q 581 -18 725 -18 m 168 446 q 232 240 178 326 q 376 106 286 153 q 581 60 465 60 q 786 108 696 60 q 930 243 876 156 q 990 446 983 331 l 168 446 z "},"T":{"ha":860,"x_min":53,"x_max":807,"o":"m 388 892 l 53 892 l 53 972 l 807 972 l 807 892 l 471 892 l 471 0 l 388 0 l 388 892 z "},"Ŧ":{"ha":867,"x_min":56,"x_max":810,"o":"m 392 446 l 156 446 l 156 515 l 392 515 l 392 892 l 56 892 l 56 972 l 810 972 l 810 892 l 475 892 l 475 515 l 711 515 l 711 446 l 475 446 l 475 0 l 392 0 l 392 446 z "},"Ť":{"ha":860,"x_min":53,"x_max":807,"o":"m 388 892 l 53 892 l 53 972 l 807 972 l 807 892 l 471 892 l 471 0 l 388 0 l 388 892 m 315 1258 l 429 1129 l 543 1258 l 633 1258 l 463 1069 l 396 1069 l 225 1258 l 315 1258 z "},"Ţ":{"ha":860,"x_min":53,"x_max":807,"o":"m 388 892 l 53 892 l 53 972 l 807 972 l 807 892 l 471 892 l 471 0 l 463 0 l 429 -90 q 528 -128 492 -94 q 564 -218 564 -162 q 524 -312 564 -278 q 415 -346 485 -346 l 333 -346 l 333 -281 l 408 -281 q 470 -263 449 -281 q 492 -214 492 -246 q 470 -165 492 -182 q 408 -147 449 -147 l 365 -147 l 354 -132 l 401 0 l 388 0 l 388 892 z "},"Ț":{"ha":860,"x_min":53,"x_max":807,"o":"m 388 892 l 53 892 l 53 972 l 807 972 l 807 892 l 471 892 l 471 0 l 388 0 l 388 892 m 360 -161 q 378 -115 360 -133 q 428 -97 397 -97 q 489 -127 465 -97 q 513 -206 513 -157 q 478 -324 513 -272 q 392 -387 443 -376 l 392 -340 q 441 -290 424 -325 q 456 -215 458 -256 q 422 -224 439 -224 q 378 -206 396 -224 q 360 -161 360 -189 z "},"U":{"ha":1022,"x_min":144,"x_max":878,"o":"m 511 -17 q 242 90 340 -17 q 144 383 144 196 l 144 972 l 228 972 l 228 388 q 301 149 228 232 q 511 65 375 65 q 721 149 647 65 q 794 388 794 232 l 794 972 l 878 972 l 878 383 q 780 90 878 196 q 511 -17 682 -17 z "},"Ú":{"ha":1022,"x_min":144,"x_max":878,"o":"m 511 -17 q 242 90 340 -17 q 144 383 144 196 l 144 972 l 228 972 l 228 388 q 301 149 228 232 q 511 65 375 65 q 721 149 647 65 q 794 388 794 232 l 794 972 l 878 972 l 878 383 q 780 90 878 196 q 511 -17 682 -17 m 553 1258 l 640 1258 l 542 1069 l 467 1069 l 553 1258 z "},"Ŭ":{"ha":1022,"x_min":144,"x_max":878,"o":"m 511 -17 q 242 90 340 -17 q 144 383 144 196 l 144 972 l 228 972 l 228 388 q 301 149 228 232 q 511 65 375 65 q 721 149 647 65 q 794 388 794 232 l 794 972 l 878 972 l 878 383 q 780 90 878 196 q 511 -17 682 -17 m 331 1258 l 399 1258 l 399 1236 q 428 1153 399 1183 q 511 1124 458 1124 q 594 1153 564 1124 q 624 1236 624 1183 l 624 1258 l 692 1258 l 692 1232 q 642 1109 692 1156 q 511 1063 593 1063 q 380 1109 429 1063 q 331 1232 331 1156 l 331 1258 z "},"Û":{"ha":1022,"x_min":144,"x_max":878,"o":"m 511 -17 q 242 90 340 -17 q 144 383 144 196 l 144 972 l 228 972 l 228 388 q 301 149 228 232 q 511 65 375 65 q 721 149 647 65 q 794 388 794 232 l 794 972 l 878 972 l 878 383 q 780 90 878 196 q 511 -17 682 -17 m 478 1258 l 546 1258 l 715 1069 l 626 1069 l 513 1199 l 397 1069 l 308 1069 l 478 1258 z "},"Ü":{"ha":1022,"x_min":144,"x_max":878,"o":"m 511 -17 q 242 90 340 -17 q 144 383 144 196 l 144 972 l 228 972 l 228 388 q 301 149 228 232 q 511 65 375 65 q 721 149 647 65 q 794 388 794 232 l 794 972 l 878 972 l 878 383 q 780 90 878 196 q 511 -17 682 -17 m 306 1160 q 326 1210 306 1190 q 376 1229 346 1229 q 427 1210 407 1229 q 447 1160 447 1190 q 428 1109 447 1129 q 376 1089 408 1089 q 326 1109 346 1089 q 306 1160 306 1129 m 575 1160 q 595 1210 575 1190 q 646 1229 615 1229 q 697 1210 676 1229 q 717 1160 717 1190 q 697 1109 717 1129 q 646 1089 678 1089 q 595 1109 615 1089 q 575 1160 575 1129 z "},"Ù":{"ha":1022,"x_min":144,"x_max":878,"o":"m 511 -17 q 242 90 340 -17 q 144 383 144 196 l 144 972 l 228 972 l 228 388 q 301 149 228 232 q 511 65 375 65 q 721 149 647 65 q 794 388 794 232 l 794 972 l 878 972 l 878 383 q 780 90 878 196 q 511 -17 682 -17 m 469 1258 l 556 1069 l 481 1069 l 382 1258 l 469 1258 z "},"Ű":{"ha":1022,"x_min":144,"x_max":878,"o":"m 511 -17 q 242 90 340 -17 q 144 383 144 196 l 144 972 l 228 972 l 228 388 q 301 149 228 232 q 511 65 375 65 q 721 149 647 65 q 794 388 794 232 l 794 972 l 878 972 l 878 383 q 780 90 878 196 q 511 -17 682 -17 m 447 1258 l 532 1258 l 438 1069 l 364 1069 l 447 1258 m 660 1258 l 749 1258 l 642 1069 l 565 1069 l 660 1258 z "},"Ū":{"ha":1022,"x_min":144,"x_max":878,"o":"m 511 -17 q 242 90 340 -17 q 144 383 144 196 l 144 972 l 228 972 l 228 388 q 301 149 228 232 q 511 65 375 65 q 721 149 647 65 q 794 388 794 232 l 794 972 l 878 972 l 878 383 q 780 90 878 196 q 511 -17 682 -17 m 308 1196 l 714 1196 l 714 1128 l 308 1128 l 308 1196 z "},"Ų":{"ha":1022,"x_min":144,"x_max":878,"o":"m 621 -271 q 515 -241 553 -271 q 478 -157 478 -211 q 494 -85 478 -121 q 543 -17 511 -49 l 514 -17 q 241 90 338 -17 q 144 385 144 196 l 144 972 l 228 972 l 228 390 q 301 150 228 235 q 511 65 374 65 q 722 150 649 65 q 794 390 794 235 l 794 972 l 878 972 l 878 385 q 831 160 878 250 q 685 19 785 69 q 583 -56 618 -14 q 549 -139 549 -97 q 629 -204 549 -204 l 674 -204 l 674 -271 l 621 -271 z "},"Ů":{"ha":1022,"x_min":144,"x_max":878,"o":"m 511 -17 q 242 90 340 -17 q 144 383 144 196 l 144 972 l 228 972 l 228 388 q 301 149 228 232 q 511 65 375 65 q 721 149 647 65 q 794 388 794 232 l 794 972 l 878 972 l 878 383 q 780 90 878 196 q 511 -17 682 -17 m 358 1186 q 401 1293 358 1251 q 511 1335 443 1335 q 622 1293 579 1335 q 664 1186 664 1251 q 622 1079 664 1121 q 511 1038 579 1038 q 401 1079 443 1038 q 358 1186 358 1121 m 418 1186 q 444 1119 418 1146 q 511 1092 471 1092 q 578 1119 551 1092 q 604 1186 604 1146 q 578 1253 604 1226 q 511 1279 551 1279 q 444 1253 471 1279 q 418 1186 418 1226 z "},"Ũ":{"ha":1022,"x_min":144,"x_max":878,"o":"m 511 -17 q 242 90 340 -17 q 144 383 144 196 l 144 972 l 228 972 l 228 388 q 301 149 228 232 q 511 65 375 65 q 721 149 647 65 q 794 388 794 232 l 794 972 l 878 972 l 878 383 q 780 90 878 196 q 511 -17 682 -17 m 310 1113 q 339 1201 310 1168 q 418 1233 368 1233 q 474 1221 451 1233 q 524 1185 497 1208 q 562 1157 547 1165 q 596 1149 576 1149 q 635 1165 621 1149 q 649 1210 649 1181 l 649 1229 l 714 1229 l 714 1203 q 685 1115 714 1147 q 606 1083 656 1083 q 549 1096 572 1083 q 500 1132 526 1108 q 462 1160 476 1151 q 428 1168 447 1168 q 389 1151 403 1168 q 375 1107 375 1135 l 375 1086 l 310 1086 l 310 1113 z "},"V":{"ha":921,"x_min":31,"x_max":890,"o":"m 31 972 l 121 972 l 461 117 l 607 486 l 801 972 l 890 972 l 501 0 l 421 0 l 31 972 z "},"W":{"ha":1485,"x_min":33,"x_max":1451,"o":"m 33 972 l 122 972 l 267 529 l 394 132 l 540 529 l 701 972 l 782 972 l 1090 131 l 1219 529 l 1363 972 l 1451 972 l 1132 0 l 1053 0 l 742 844 l 569 375 l 432 0 l 351 0 l 33 972 z "},"Ẃ":{"ha":1485,"x_min":33,"x_max":1451,"o":"m 33 972 l 122 972 l 267 529 l 394 132 l 540 529 l 701 972 l 782 972 l 1090 131 l 1219 529 l 1363 972 l 1451 972 l 1132 0 l 1053 0 l 742 844 l 569 375 l 432 0 l 351 0 l 33 972 m 785 1258 l 871 1258 l 774 1069 l 697 1069 l 785 1258 z "},"Ŵ":{"ha":1485,"x_min":33,"x_max":1451,"o":"m 33 972 l 122 972 l 267 529 l 394 132 l 540 529 l 701 972 l 782 972 l 1090 131 l 1219 529 l 1363 972 l 1451 972 l 1132 0 l 1053 0 l 742 844 l 569 375 l 432 0 l 351 0 l 33 972 m 710 1258 l 776 1258 l 947 1069 l 857 1069 l 743 1199 l 629 1069 l 539 1069 l 710 1258 z "},"Ẅ":{"ha":1485,"x_min":33,"x_max":1451,"o":"m 33 972 l 122 972 l 267 529 l 394 132 l 540 529 l 701 972 l 782 972 l 1090 131 l 1219 529 l 1363 972 l 1451 972 l 1132 0 l 1053 0 l 742 844 l 569 375 l 432 0 l 351 0 l 33 972 m 536 1160 q 556 1210 536 1190 q 607 1229 576 1229 q 658 1210 639 1229 q 678 1160 678 1190 q 658 1108 678 1128 q 607 1089 639 1089 q 556 1109 576 1089 q 536 1160 536 1129 m 807 1160 q 827 1210 807 1190 q 878 1229 847 1229 q 928 1210 908 1229 q 949 1160 949 1190 q 929 1109 949 1129 q 878 1089 910 1089 q 827 1109 847 1089 q 807 1160 807 1129 z "},"Ẁ":{"ha":1485,"x_min":33,"x_max":1451,"o":"m 33 972 l 122 972 l 267 529 l 394 132 l 540 529 l 701 972 l 782 972 l 1090 131 l 1219 529 l 1363 972 l 1451 972 l 1132 0 l 1053 0 l 742 844 l 569 375 l 432 0 l 351 0 l 33 972 m 700 1258 l 788 1069 l 711 1069 l 614 1258 l 700 1258 z "},"X":{"ha":946,"x_min":61,"x_max":885,"o":"m 419 497 l 76 972 l 176 972 l 394 671 l 474 560 l 551 671 l 769 972 l 868 972 l 525 497 l 885 0 l 785 0 l 549 325 l 474 432 l 397 325 l 163 0 l 61 0 l 419 497 z "},"Y":{"ha":881,"x_min":31,"x_max":850,"o":"m 399 357 l 31 972 l 128 972 l 442 447 l 754 972 l 850 972 l 482 360 l 482 0 l 399 0 l 399 357 z "},"Ý":{"ha":881,"x_min":31,"x_max":850,"o":"m 399 357 l 31 972 l 128 972 l 442 447 l 754 972 l 850 972 l 482 360 l 482 0 l 399 0 l 399 357 m 483 1258 l 569 1258 l 472 1069 l 396 1069 l 483 1258 z "},"Ŷ":{"ha":881,"x_min":31,"x_max":850,"o":"m 399 357 l 31 972 l 128 972 l 442 447 l 754 972 l 850 972 l 482 360 l 482 0 l 399 0 l 399 357 m 408 1258 l 475 1258 l 646 1069 l 556 1069 l 442 1199 l 328 1069 l 238 1069 l 408 1258 z "},"Ÿ":{"ha":881,"x_min":31,"x_max":850,"o":"m 399 357 l 31 972 l 128 972 l 442 447 l 754 972 l 850 972 l 482 360 l 482 0 l 399 0 l 399 357 m 235 1160 q 255 1210 235 1190 q 306 1229 275 1229 q 357 1210 338 1229 q 376 1160 376 1190 q 357 1108 376 1128 q 306 1089 338 1089 q 255 1109 275 1089 q 235 1160 235 1129 m 506 1160 q 526 1210 506 1190 q 576 1229 546 1229 q 627 1210 607 1229 q 647 1160 647 1190 q 628 1109 647 1129 q 576 1089 608 1089 q 526 1109 546 1089 q 506 1160 506 1129 z "},"Ỳ":{"ha":881,"x_min":31,"x_max":850,"o":"m 399 357 l 31 972 l 128 972 l 442 447 l 754 972 l 850 972 l 482 360 l 482 0 l 399 0 l 399 357 m 399 1258 l 486 1069 l 410 1069 l 313 1258 l 399 1258 z "},"Z":{"ha":836,"x_min":81,"x_max":758,"o":"m 81 63 l 635 892 l 93 892 l 93 972 l 746 972 l 746 908 l 192 81 l 758 81 l 758 0 l 81 0 l 81 63 z "},"Ź":{"ha":836,"x_min":81,"x_max":758,"o":"m 81 63 l 635 892 l 93 892 l 93 972 l 746 972 l 746 908 l 192 81 l 758 81 l 758 0 l 81 0 l 81 63 m 454 1258 l 540 1258 l 443 1069 l 367 1069 l 454 1258 z "},"Ž":{"ha":836,"x_min":81,"x_max":758,"o":"m 81 63 l 635 892 l 93 892 l 93 972 l 746 972 l 746 908 l 192 81 l 758 81 l 758 0 l 81 0 l 81 63 m 297 1258 l 411 1129 l 525 1258 l 615 1258 l 444 1069 l 378 1069 l 207 1258 l 297 1258 z "},"Ż":{"ha":836,"x_min":81,"x_max":758,"o":"m 81 63 l 635 892 l 93 892 l 93 972 l 746 972 l 746 908 l 192 81 l 758 81 l 758 0 l 81 0 l 81 63 m 336 1161 q 358 1215 336 1193 q 413 1236 379 1236 q 467 1215 446 1236 q 488 1161 488 1193 q 467 1108 488 1129 q 413 1086 446 1086 q 358 1108 379 1086 q 336 1161 336 1129 z "},"a":{"ha":867,"x_min":97,"x_max":739,"o":"m 368 -11 q 170 47 243 -11 q 97 203 97 104 q 164 355 97 299 q 342 411 231 411 l 658 411 l 658 463 q 598 607 658 553 q 438 661 538 661 q 297 623 357 661 q 215 519 238 585 l 133 519 q 241 678 160 619 q 436 736 322 736 q 594 702 525 736 q 701 607 663 668 q 739 467 739 546 l 739 0 l 672 0 l 664 124 q 540 24 617 58 q 368 -11 464 -11 m 178 204 q 230 100 178 139 q 371 61 282 61 q 519 93 453 61 q 622 182 585 125 q 660 310 660 239 l 660 340 l 344 340 q 224 303 271 340 q 178 204 178 265 z "},"á":{"ha":867,"x_min":97,"x_max":739,"o":"m 368 -11 q 170 47 243 -11 q 97 203 97 104 q 164 355 97 299 q 342 411 231 411 l 658 411 l 658 463 q 598 607 658 553 q 438 661 538 661 q 297 623 357 661 q 215 519 238 585 l 133 519 q 241 678 160 619 q 436 736 322 736 q 594 702 525 736 q 701 607 663 668 q 739 467 739 546 l 739 0 l 672 0 l 664 124 q 540 24 617 58 q 368 -11 464 -11 m 178 204 q 230 100 178 139 q 371 61 282 61 q 519 93 453 61 q 622 182 585 125 q 660 310 660 239 l 660 340 l 344 340 q 224 303 271 340 q 178 204 178 265 m 460 1047 l 547 1047 l 460 838 l 383 838 l 460 1047 z "},"ă":{"ha":867,"x_min":97,"x_max":739,"o":"m 368 -11 q 170 47 243 -11 q 97 203 97 104 q 164 355 97 299 q 342 411 231 411 l 658 411 l 658 463 q 598 607 658 553 q 438 661 538 661 q 297 623 357 661 q 215 519 238 585 l 133 519 q 241 678 160 619 q 436 736 322 736 q 594 702 525 736 q 701 607 663 668 q 739 467 739 546 l 739 0 l 672 0 l 664 124 q 540 24 617 58 q 368 -11 464 -11 m 178 204 q 230 100 178 139 q 371 61 282 61 q 519 93 453 61 q 622 182 585 125 q 660 310 660 239 l 660 340 l 344 340 q 224 303 271 340 q 178 204 178 265 m 244 1047 l 311 1047 l 311 1017 q 345 924 311 958 q 436 890 379 890 q 527 924 493 890 q 561 1017 561 958 l 561 1047 l 629 1047 l 629 1013 q 576 880 629 931 q 436 829 522 829 q 297 880 350 829 q 244 1013 244 931 l 244 1047 z "},"ǎ":{"ha":867,"x_min":97,"x_max":739,"o":"m 368 -11 q 170 47 243 -11 q 97 203 97 104 q 164 355 97 299 q 342 411 231 411 l 658 411 l 658 463 q 598 607 658 553 q 438 661 538 661 q 297 623 357 661 q 215 519 238 585 l 133 519 q 241 678 160 619 q 436 736 322 736 q 594 702 525 736 q 701 607 663 668 q 739 467 739 546 l 739 0 l 672 0 l 664 124 q 540 24 617 58 q 368 -11 464 -11 m 178 204 q 230 100 178 139 q 371 61 282 61 q 519 93 453 61 q 622 182 585 125 q 660 310 660 239 l 660 340 l 344 340 q 224 303 271 340 q 178 204 178 265 m 319 1047 l 436 901 l 553 1047 l 640 1047 l 468 838 l 404 838 l 232 1047 l 319 1047 z "},"â":{"ha":867,"x_min":97,"x_max":739,"o":"m 368 -11 q 170 47 243 -11 q 97 203 97 104 q 164 355 97 299 q 342 411 231 411 l 658 411 l 658 463 q 598 607 658 553 q 438 661 538 661 q 297 623 357 661 q 215 519 238 585 l 133 519 q 241 678 160 619 q 436 736 322 736 q 594 702 525 736 q 701 607 663 668 q 739 467 739 546 l 739 0 l 672 0 l 664 124 q 540 24 617 58 q 368 -11 464 -11 m 178 204 q 230 100 178 139 q 371 61 282 61 q 519 93 453 61 q 622 182 585 125 q 660 310 660 239 l 660 340 l 344 340 q 224 303 271 340 q 178 204 178 265 m 404 1047 l 468 1047 l 640 838 l 553 838 l 436 983 l 319 838 l 232 838 l 404 1047 z "},"ä":{"ha":867,"x_min":97,"x_max":739,"o":"m 368 -11 q 170 47 243 -11 q 97 203 97 104 q 164 355 97 299 q 342 411 231 411 l 658 411 l 658 463 q 598 607 658 553 q 438 661 538 661 q 297 623 357 661 q 215 519 238 585 l 133 519 q 241 678 160 619 q 436 736 322 736 q 594 702 525 736 q 701 607 663 668 q 739 467 739 546 l 739 0 l 672 0 l 664 124 q 540 24 617 58 q 368 -11 464 -11 m 178 204 q 230 100 178 139 q 371 61 282 61 q 519 93 453 61 q 622 182 585 125 q 660 310 660 239 l 660 340 l 344 340 q 224 303 271 340 q 178 204 178 265 m 231 922 q 251 972 231 953 q 301 992 271 992 q 352 972 332 992 q 372 922 372 953 q 353 872 372 892 q 301 851 333 851 q 251 872 271 851 q 231 922 231 892 m 500 922 q 520 972 500 953 q 571 992 540 992 q 622 972 601 992 q 642 922 642 953 q 622 872 642 892 q 571 851 603 851 q 520 872 540 851 q 500 922 500 892 z "},"à":{"ha":867,"x_min":97,"x_max":739,"o":"m 368 -11 q 170 47 243 -11 q 97 203 97 104 q 164 355 97 299 q 342 411 231 411 l 658 411 l 658 463 q 598 607 658 553 q 438 661 538 661 q 297 623 357 661 q 215 519 238 585 l 133 519 q 241 678 160 619 q 436 736 322 736 q 594 702 525 736 q 701 607 663 668 q 739 467 739 546 l 739 0 l 672 0 l 664 124 q 540 24 617 58 q 368 -11 464 -11 m 178 204 q 230 100 178 139 q 371 61 282 61 q 519 93 453 61 q 622 182 585 125 q 660 310 660 239 l 660 340 l 344 340 q 224 303 271 340 q 178 204 178 265 m 413 1047 l 489 838 l 413 838 l 326 1047 l 413 1047 z "},"ā":{"ha":867,"x_min":97,"x_max":739,"o":"m 368 -11 q 170 47 243 -11 q 97 203 97 104 q 164 355 97 299 q 342 411 231 411 l 658 411 l 658 463 q 598 607 658 553 q 438 661 538 661 q 297 623 357 661 q 215 519 238 585 l 133 519 q 241 678 160 619 q 436 736 322 736 q 594 702 525 736 q 701 607 663 668 q 739 467 739 546 l 739 0 l 672 0 l 664 124 q 540 24 617 58 q 368 -11 464 -11 m 178 204 q 230 100 178 139 q 371 61 282 61 q 519 93 453 61 q 622 182 585 125 q 660 310 660 239 l 660 340 l 344 340 q 224 303 271 340 q 178 204 178 265 m 243 954 l 629 954 l 629 888 l 243 888 l 243 954 z "},"ą":{"ha":867,"x_min":97,"x_max":754,"o":"m 368 -11 q 170 47 243 -11 q 97 203 97 104 q 164 355 97 299 q 342 411 231 411 l 658 411 l 658 463 q 598 607 658 553 q 438 661 538 661 q 297 623 357 661 q 215 519 238 585 l 133 519 q 241 678 160 619 q 436 736 322 736 q 594 702 525 736 q 701 607 663 668 q 739 467 739 546 l 739 0 q 632 -139 632 -68 q 710 -201 632 -201 l 754 -201 l 754 -265 l 703 -265 q 599 -236 635 -265 q 563 -153 563 -207 q 671 18 563 -60 l 664 124 q 540 24 617 58 q 368 -11 464 -11 m 178 204 q 230 100 178 139 q 371 61 282 61 q 519 93 453 61 q 622 182 585 125 q 660 310 660 239 l 660 340 l 344 340 q 224 303 271 340 q 178 204 178 265 z "},"å":{"ha":867,"x_min":97,"x_max":739,"o":"m 368 -11 q 170 47 243 -11 q 97 203 97 104 q 164 355 97 299 q 342 411 231 411 l 658 411 l 658 463 q 598 607 658 553 q 438 661 538 661 q 297 623 357 661 q 215 519 238 585 l 133 519 q 241 678 160 619 q 436 736 322 736 q 594 702 525 736 q 701 607 663 668 q 739 467 739 546 l 739 0 l 672 0 l 664 124 q 540 24 617 58 q 368 -11 464 -11 m 178 204 q 230 100 178 139 q 371 61 282 61 q 519 93 453 61 q 622 182 585 125 q 660 310 660 239 l 660 340 l 344 340 q 224 303 271 340 q 178 204 178 265 m 283 965 q 326 1072 283 1031 q 436 1114 369 1114 q 546 1072 503 1114 q 589 965 589 1031 q 546 859 589 900 q 436 818 503 818 q 326 859 369 818 q 283 965 283 900 m 343 965 q 369 899 343 925 q 436 872 396 872 q 503 899 476 872 q 529 965 529 925 q 503 1033 529 1007 q 436 1060 476 1060 q 369 1033 396 1060 q 343 965 343 1007 z "},"ã":{"ha":867,"x_min":97,"x_max":739,"o":"m 368 -11 q 170 47 243 -11 q 97 203 97 104 q 164 355 97 299 q 342 411 231 411 l 658 411 l 658 463 q 598 607 658 553 q 438 661 538 661 q 297 623 357 661 q 215 519 238 585 l 133 519 q 241 678 160 619 q 436 736 322 736 q 594 702 525 736 q 701 607 663 668 q 739 467 739 546 l 739 0 l 672 0 l 664 124 q 540 24 617 58 q 368 -11 464 -11 m 178 204 q 230 100 178 139 q 371 61 282 61 q 519 93 453 61 q 622 182 585 125 q 660 310 660 239 l 660 340 l 344 340 q 224 303 271 340 q 178 204 178 265 m 233 882 q 263 970 233 938 q 342 1003 292 1003 q 397 991 375 1003 q 447 956 419 979 q 484 927 469 936 q 519 918 499 918 q 558 934 544 918 q 572 979 572 950 l 572 1000 l 638 1000 l 638 974 q 608 885 638 918 q 529 853 579 853 q 474 865 496 853 q 424 900 451 876 q 387 928 401 919 q 351 938 372 938 q 313 922 326 938 q 299 876 299 906 l 299 856 l 233 856 l 233 882 z "},"æ":{"ha":1463,"x_min":97,"x_max":1386,"o":"m 1032 -18 q 844 33 925 -18 q 721 174 763 83 q 590 33 679 85 q 382 -18 500 -18 q 175 42 253 -18 q 97 197 97 101 q 167 347 97 290 q 350 404 238 404 l 678 404 l 678 461 q 614 606 678 550 q 449 661 550 661 q 302 623 365 661 q 218 521 239 585 l 136 521 q 246 678 161 619 q 447 736 331 736 q 624 690 549 736 q 731 564 699 644 q 853 691 775 646 q 1032 736 931 736 q 1219 685 1139 736 q 1343 543 1300 635 q 1386 332 1386 451 l 757 332 q 838 133 764 207 q 1029 58 913 58 q 1176 98 1111 58 q 1275 207 1240 138 l 1365 207 q 1237 42 1325 103 q 1032 -18 1149 -18 m 178 199 q 235 97 178 135 q 385 58 292 58 q 535 90 468 58 q 640 177 601 121 q 678 303 678 233 l 678 333 l 353 333 q 226 296 275 333 q 178 199 178 258 m 1306 404 q 1215 591 1290 522 q 1029 660 1140 660 q 843 590 917 660 q 758 404 769 521 l 1306 404 z "},"ǽ":{"ha":1463,"x_min":97,"x_max":1386,"o":"m 1032 -18 q 844 33 925 -18 q 721 174 763 83 q 590 33 679 85 q 382 -18 500 -18 q 175 42 253 -18 q 97 197 97 101 q 167 347 97 290 q 350 404 238 404 l 678 404 l 678 461 q 614 606 678 550 q 449 661 550 661 q 302 623 365 661 q 218 521 239 585 l 136 521 q 246 678 161 619 q 447 736 331 736 q 624 690 549 736 q 731 564 699 644 q 853 691 775 646 q 1032 736 931 736 q 1219 685 1139 736 q 1343 543 1300 635 q 1386 332 1386 451 l 757 332 q 838 133 764 207 q 1029 58 913 58 q 1176 98 1111 58 q 1275 207 1240 138 l 1365 207 q 1237 42 1325 103 q 1032 -18 1149 -18 m 178 199 q 235 97 178 135 q 385 58 292 58 q 535 90 468 58 q 640 177 601 121 q 678 303 678 233 l 678 333 l 353 333 q 226 296 275 333 q 178 199 178 258 m 750 1047 l 836 1047 l 749 838 l 674 838 l 750 1047 m 1306 404 q 1215 591 1290 522 q 1029 660 1140 660 q 843 590 917 660 q 758 404 769 521 l 1306 404 z "},"b":{"ha":975,"x_min":143,"x_max":894,"o":"m 526 -18 q 347 25 426 -18 q 219 143 267 68 l 211 0 l 143 0 l 143 1028 l 224 1028 l 224 582 q 351 696 272 656 q 526 736 429 736 q 717 688 633 736 q 848 553 801 639 q 894 360 894 468 q 848 165 894 251 q 717 31 801 79 q 526 -18 633 -18 m 221 360 q 258 204 221 272 q 363 98 296 136 q 518 60 431 60 q 672 98 606 60 q 776 204 739 136 q 814 360 814 272 q 776 514 814 446 q 672 620 739 582 q 518 658 606 658 q 363 620 431 658 q 258 514 296 582 q 221 360 221 446 z "},"c":{"ha":883,"x_min":81,"x_max":807,"o":"m 447 -18 q 257 31 340 -18 q 127 165 174 79 q 81 360 81 250 q 127 555 81 469 q 257 688 174 640 q 447 736 340 736 q 672 666 575 736 q 800 479 769 596 l 718 479 q 612 611 683 564 q 447 658 540 658 q 299 621 364 658 q 197 515 233 583 q 161 360 161 447 q 197 204 161 272 q 299 98 233 136 q 447 60 364 60 q 619 111 546 60 q 722 251 692 163 l 807 251 q 675 53 771 125 q 447 -18 579 -18 z "},"ć":{"ha":883,"x_min":81,"x_max":807,"o":"m 447 -18 q 257 31 340 -18 q 127 165 174 79 q 81 360 81 250 q 127 555 81 469 q 257 688 174 640 q 447 736 340 736 q 672 666 575 736 q 800 479 769 596 l 718 479 q 612 611 683 564 q 447 658 540 658 q 299 621 364 658 q 197 515 233 583 q 161 360 161 447 q 197 204 161 272 q 299 98 233 136 q 447 60 364 60 q 619 111 546 60 q 722 251 692 163 l 807 251 q 675 53 771 125 q 447 -18 579 -18 m 471 1047 l 558 1047 l 471 838 l 394 838 l 471 1047 z "},"č":{"ha":883,"x_min":81,"x_max":807,"o":"m 447 -18 q 257 31 340 -18 q 127 165 174 79 q 81 360 81 250 q 127 555 81 469 q 257 688 174 640 q 447 736 340 736 q 672 666 575 736 q 800 479 769 596 l 718 479 q 612 611 683 564 q 447 658 540 658 q 299 621 364 658 q 197 515 233 583 q 161 360 161 447 q 197 204 161 272 q 299 98 233 136 q 447 60 364 60 q 619 111 546 60 q 722 251 692 163 l 807 251 q 675 53 771 125 q 447 -18 579 -18 m 331 1047 l 447 901 l 564 1047 l 651 1047 l 479 838 l 415 838 l 243 1047 l 331 1047 z "},"ç":{"ha":883,"x_min":81,"x_max":807,"o":"m 363 -275 l 436 -275 q 498 -258 476 -275 q 519 -208 519 -240 q 498 -160 519 -178 q 436 -143 476 -143 l 394 -143 l 383 -128 l 422 -18 q 244 38 322 -12 q 124 171 167 88 q 81 360 81 254 q 127 555 81 469 q 257 688 174 640 q 447 736 340 736 q 672 666 575 736 q 800 479 769 596 l 718 479 q 612 611 683 564 q 447 658 540 658 q 299 621 364 658 q 197 515 233 583 q 161 360 161 447 q 197 204 161 272 q 299 98 233 136 q 447 60 364 60 q 619 111 546 60 q 722 251 692 163 l 807 251 q 688 63 772 133 q 483 -17 603 -7 l 456 -89 q 553 -126 518 -93 q 588 -212 588 -158 q 549 -304 588 -271 q 442 -337 510 -337 l 363 -337 l 363 -275 z "},"ĉ":{"ha":883,"x_min":81,"x_max":807,"o":"m 447 -18 q 257 31 340 -18 q 127 165 174 79 q 81 360 81 250 q 127 555 81 469 q 257 688 174 640 q 447 736 340 736 q 672 666 575 736 q 800 479 769 596 l 718 479 q 612 611 683 564 q 447 658 540 658 q 299 621 364 658 q 197 515 233 583 q 161 360 161 447 q 197 204 161 272 q 299 98 233 136 q 447 60 364 60 q 619 111 546 60 q 722 251 692 163 l 807 251 q 675 53 771 125 q 447 -18 579 -18 m 415 1047 l 479 1047 l 651 838 l 564 838 l 447 983 l 331 838 l 243 838 l 415 1047 z "},"ċ":{"ha":883,"x_min":81,"x_max":807,"o":"m 447 -18 q 257 31 340 -18 q 127 165 174 79 q 81 360 81 250 q 127 555 81 469 q 257 688 174 640 q 447 736 340 736 q 672 666 575 736 q 800 479 769 596 l 718 479 q 612 611 683 564 q 447 658 540 658 q 299 621 364 658 q 197 515 233 583 q 161 360 161 447 q 197 204 161 272 q 299 98 233 136 q 447 60 364 60 q 619 111 546 60 q 722 251 692 163 l 807 251 q 675 53 771 125 q 447 -18 579 -18 m 374 922 q 394 974 374 953 q 447 994 414 994 q 501 974 481 994 q 521 922 521 953 q 501 869 521 890 q 447 849 481 849 q 394 869 414 849 q 374 922 374 890 z "},"d":{"ha":975,"x_min":81,"x_max":832,"o":"m 449 -18 q 258 31 342 -18 q 127 165 174 79 q 81 360 81 251 q 127 553 81 468 q 258 688 174 639 q 449 736 342 736 q 624 696 546 736 q 751 585 703 656 l 751 1028 l 832 1028 l 832 0 l 765 0 l 756 142 q 628 24 708 67 q 449 -18 549 -18 m 161 360 q 199 204 161 272 q 303 98 236 136 q 458 60 371 60 q 612 98 544 60 q 717 204 679 136 q 754 360 754 272 q 717 514 754 446 q 612 620 679 582 q 458 658 544 658 q 303 620 371 658 q 199 514 236 582 q 161 360 161 446 z "},"ð":{"ha":922,"x_min":81,"x_max":832,"o":"m 458 -18 q 263 29 349 -18 q 128 161 176 76 q 81 354 81 246 q 128 546 81 461 q 259 678 175 631 q 450 726 343 726 q 620 686 546 726 q 736 574 694 646 q 659 753 717 671 q 507 893 601 836 l 196 760 l 196 836 l 425 936 q 165 999 308 985 l 165 1074 q 510 971 368 1047 l 736 1067 l 736 992 l 583 925 q 832 389 832 749 q 785 169 832 261 q 653 30 738 78 q 458 -18 568 -18 m 161 354 q 199 202 161 269 q 303 97 236 135 q 456 60 369 60 q 607 97 540 60 q 711 202 674 135 q 749 354 749 269 q 711 506 749 439 q 607 611 674 574 q 456 649 540 649 q 303 611 369 649 q 199 506 236 574 q 161 354 161 439 z "},"ď":{"ha":1013,"x_min":81,"x_max":1072,"o":"m 449 -18 q 258 31 342 -18 q 127 165 174 79 q 81 360 81 251 q 127 553 81 468 q 258 688 174 639 q 449 736 342 736 q 624 696 546 736 q 751 585 703 656 l 751 1028 l 832 1028 l 832 0 l 765 0 l 756 142 q 628 24 708 67 q 449 -18 549 -18 m 161 360 q 199 204 161 272 q 303 98 236 136 q 458 60 371 60 q 612 98 544 60 q 717 204 679 136 q 754 360 754 272 q 717 514 754 446 q 612 620 679 582 q 458 658 544 658 q 303 620 371 658 q 199 514 236 582 q 161 360 161 446 m 992 1028 l 1072 1028 l 1013 764 l 944 764 l 992 1028 z "},"đ":{"ha":1007,"x_min":81,"x_max":993,"o":"m 449 -18 q 258 31 342 -18 q 127 165 174 79 q 81 360 81 251 q 127 553 81 468 q 258 688 174 639 q 449 736 342 736 q 624 696 546 736 q 751 585 703 656 l 751 869 l 469 869 l 469 940 l 751 940 l 751 1028 l 832 1028 l 832 940 l 993 940 l 993 869 l 832 869 l 832 0 l 765 0 l 756 142 q 628 24 708 67 q 449 -18 549 -18 m 161 360 q 199 204 161 272 q 303 98 236 136 q 458 60 371 60 q 612 98 544 60 q 717 204 679 136 q 754 360 754 272 q 717 514 754 446 q 612 620 679 582 q 458 658 544 658 q 303 620 371 658 q 199 514 236 582 q 161 360 161 446 z "},"e":{"ha":893,"x_min":81,"x_max":818,"o":"m 447 -18 q 256 30 339 -18 q 126 163 172 78 q 81 360 81 249 q 127 555 81 469 q 257 688 174 640 q 449 736 340 736 q 644 685 560 736 q 774 540 729 633 q 815 326 818 447 l 163 326 q 251 131 174 204 q 447 58 328 58 q 601 97 535 58 q 704 206 668 136 l 794 204 q 660 42 753 101 q 447 -18 568 -18 m 736 397 q 644 590 722 519 q 449 660 567 660 q 251 588 329 660 q 163 397 174 517 l 736 397 z "},"é":{"ha":893,"x_min":81,"x_max":818,"o":"m 447 -18 q 256 30 339 -18 q 126 163 172 78 q 81 360 81 249 q 127 555 81 469 q 257 688 174 640 q 449 736 340 736 q 644 685 560 736 q 774 540 729 633 q 815 326 818 447 l 163 326 q 251 131 174 204 q 447 58 328 58 q 601 97 535 58 q 704 206 668 136 l 794 204 q 660 42 753 101 q 447 -18 568 -18 m 736 397 q 644 590 722 519 q 449 660 567 660 q 251 588 329 660 q 163 397 174 517 l 736 397 m 472 1047 l 560 1047 l 472 838 l 396 838 l 472 1047 z "},"ĕ":{"ha":893,"x_min":81,"x_max":818,"o":"m 447 -18 q 256 30 339 -18 q 126 163 172 78 q 81 360 81 249 q 127 555 81 469 q 257 688 174 640 q 449 736 340 736 q 644 685 560 736 q 774 540 729 633 q 815 326 818 447 l 163 326 q 251 131 174 204 q 447 58 328 58 q 601 97 535 58 q 704 206 668 136 l 794 204 q 660 42 753 101 q 447 -18 568 -18 m 736 397 q 644 590 722 519 q 449 660 567 660 q 251 588 329 660 q 163 397 174 517 l 736 397 m 257 1047 l 324 1047 l 324 1017 q 358 924 324 958 q 449 890 392 890 q 540 924 506 890 q 574 1017 574 958 l 574 1047 l 640 1047 l 640 1013 q 588 880 640 931 q 449 829 535 829 q 310 880 363 829 q 257 1013 257 931 l 257 1047 z "},"ě":{"ha":893,"x_min":81,"x_max":818,"o":"m 447 -18 q 256 30 339 -18 q 126 163 172 78 q 81 360 81 249 q 127 555 81 469 q 257 688 174 640 q 449 736 340 736 q 644 685 560 736 q 774 540 729 633 q 815 326 818 447 l 163 326 q 251 131 174 204 q 447 58 328 58 q 601 97 535 58 q 704 206 668 136 l 794 204 q 660 42 753 101 q 447 -18 568 -18 m 736 397 q 644 590 722 519 q 449 660 567 660 q 251 588 329 660 q 163 397 174 517 l 736 397 m 332 1047 l 449 901 l 565 1047 l 653 1047 l 481 838 l 417 838 l 244 1047 l 332 1047 z "},"ê":{"ha":893,"x_min":81,"x_max":818,"o":"m 447 -18 q 256 30 339 -18 q 126 163 172 78 q 81 360 81 249 q 127 555 81 469 q 257 688 174 640 q 449 736 340 736 q 644 685 560 736 q 774 540 729 633 q 815 326 818 447 l 163 326 q 251 131 174 204 q 447 58 328 58 q 601 97 535 58 q 704 206 668 136 l 794 204 q 660 42 753 101 q 447 -18 568 -18 m 736 397 q 644 590 722 519 q 449 660 567 660 q 251 588 329 660 q 163 397 174 517 l 736 397 m 417 1047 l 481 1047 l 653 838 l 565 838 l 449 983 l 332 838 l 244 838 l 417 1047 z "},"ë":{"ha":893,"x_min":81,"x_max":818,"o":"m 447 -18 q 256 30 339 -18 q 126 163 172 78 q 81 360 81 249 q 127 555 81 469 q 257 688 174 640 q 449 736 340 736 q 644 685 560 736 q 774 540 729 633 q 815 326 818 447 l 163 326 q 251 131 174 204 q 447 58 328 58 q 601 97 535 58 q 704 206 668 136 l 794 204 q 660 42 753 101 q 447 -18 568 -18 m 736 397 q 644 590 722 519 q 449 660 567 660 q 251 588 329 660 q 163 397 174 517 l 736 397 m 243 922 q 263 972 243 953 q 314 992 283 992 q 365 972 344 992 q 385 922 385 953 q 365 872 385 892 q 314 851 346 851 q 263 872 283 851 q 243 922 243 892 m 513 922 q 533 972 513 953 q 583 992 553 992 q 634 972 614 992 q 654 922 654 953 q 635 872 654 892 q 583 851 615 851 q 533 872 553 851 q 513 922 513 892 z "},"ė":{"ha":893,"x_min":81,"x_max":818,"o":"m 447 -18 q 256 30 339 -18 q 126 163 172 78 q 81 360 81 249 q 127 555 81 469 q 257 688 174 640 q 449 736 340 736 q 644 685 560 736 q 774 540 729 633 q 815 326 818 447 l 163 326 q 251 131 174 204 q 447 58 328 58 q 601 97 535 58 q 704 206 668 136 l 794 204 q 660 42 753 101 q 447 -18 568 -18 m 736 397 q 644 590 722 519 q 449 660 567 660 q 251 588 329 660 q 163 397 174 517 l 736 397 m 375 922 q 395 974 375 953 q 449 994 415 994 q 502 974 482 994 q 522 922 522 953 q 502 869 522 890 q 449 849 482 849 q 395 869 415 849 q 375 922 375 890 z "},"è":{"ha":893,"x_min":81,"x_max":818,"o":"m 447 -18 q 256 30 339 -18 q 126 163 172 78 q 81 360 81 249 q 127 555 81 469 q 257 688 174 640 q 449 736 340 736 q 644 685 560 736 q 774 540 729 633 q 815 326 818 447 l 163 326 q 251 131 174 204 q 447 58 328 58 q 601 97 535 58 q 704 206 668 136 l 794 204 q 660 42 753 101 q 447 -18 568 -18 m 736 397 q 644 590 722 519 q 449 660 567 660 q 251 588 329 660 q 163 397 174 517 l 736 397 m 425 1047 l 501 838 l 425 838 l 338 1047 l 425 1047 z "},"ē":{"ha":893,"x_min":81,"x_max":818,"o":"m 447 -18 q 256 30 339 -18 q 126 163 172 78 q 81 360 81 249 q 127 555 81 469 q 257 688 174 640 q 449 736 340 736 q 644 685 560 736 q 774 540 729 633 q 815 326 818 447 l 163 326 q 251 131 174 204 q 447 58 328 58 q 601 97 535 58 q 704 206 668 136 l 794 204 q 660 42 753 101 q 447 -18 568 -18 m 736 397 q 644 590 722 519 q 449 660 567 660 q 251 588 329 660 q 163 397 174 517 l 736 397 m 256 954 l 642 954 l 642 888 l 256 888 l 256 954 z "},"ę":{"ha":893,"x_min":81,"x_max":817,"o":"m 558 -260 q 454 -230 490 -260 q 418 -146 418 -200 q 475 -17 418 -78 q 447 -18 467 -18 q 256 30 339 -18 q 126 163 172 78 q 81 360 81 249 q 127 555 81 469 q 257 688 174 640 q 449 736 340 736 q 644 685 560 736 q 772 540 728 633 q 815 326 817 447 l 163 326 q 251 131 174 204 q 447 58 328 58 q 601 97 533 58 q 704 206 668 135 l 796 206 q 719 91 769 142 q 600 8 669 40 q 517 -53 547 -17 q 488 -131 488 -90 q 565 -194 488 -194 l 610 -194 l 610 -260 l 558 -260 m 736 397 q 644 590 721 519 q 449 660 567 660 q 251 588 329 660 q 163 397 174 517 l 736 397 z "},"ə":{"ha":893,"x_min":75,"x_max":813,"o":"m 446 736 q 638 688 554 736 q 767 555 721 640 q 813 358 813 469 q 766 163 813 249 q 636 30 719 78 q 444 -18 553 -18 q 249 33 333 -18 q 119 178 164 85 q 78 392 75 271 l 731 392 q 642 587 719 514 q 446 660 565 660 q 292 621 358 660 q 189 513 225 582 l 99 514 q 233 676 140 617 q 446 736 325 736 m 157 321 q 249 128 171 199 q 444 58 326 58 q 642 130 564 58 q 731 321 719 201 l 157 321 z "},"f":{"ha":579,"x_min":49,"x_max":565,"o":"m 213 801 q 453 1046 213 1046 l 565 1046 l 565 969 l 460 969 q 333 928 372 969 q 293 796 293 888 l 293 718 l 558 718 l 558 644 l 293 644 l 293 0 l 213 0 l 213 644 l 49 644 l 49 718 l 213 718 l 213 801 z "},"g":{"ha":953,"x_min":81,"x_max":810,"o":"m 458 -296 q 235 -231 326 -296 q 124 -57 144 -167 l 206 -57 q 292 -176 224 -132 q 458 -219 360 -219 q 656 -151 582 -219 q 729 32 729 -83 l 729 149 q 606 45 681 82 q 440 8 531 8 q 254 55 336 8 q 126 185 172 101 q 81 372 81 268 q 126 560 81 476 q 255 690 172 643 q 440 736 338 736 q 610 697 533 736 q 735 589 686 658 l 742 718 l 810 718 l 810 29 q 766 -140 810 -67 q 642 -255 722 -214 q 458 -296 563 -296 m 161 372 q 198 224 161 289 q 300 124 235 160 q 449 88 365 88 q 597 124 532 88 q 699 224 663 160 q 735 372 735 289 q 699 521 735 456 q 597 622 663 586 q 449 658 532 658 q 300 622 365 658 q 198 521 235 586 q 161 372 161 456 z "},"ğ":{"ha":953,"x_min":81,"x_max":810,"o":"m 458 -296 q 235 -231 326 -296 q 124 -57 144 -167 l 206 -57 q 292 -176 224 -132 q 458 -219 360 -219 q 656 -151 582 -219 q 729 32 729 -83 l 729 149 q 606 45 681 82 q 440 8 531 8 q 254 55 336 8 q 126 185 172 101 q 81 372 81 268 q 126 560 81 476 q 255 690 172 643 q 440 736 338 736 q 610 697 533 736 q 735 589 686 658 l 742 718 l 810 718 l 810 29 q 766 -140 810 -67 q 642 -255 722 -214 q 458 -296 563 -296 m 161 372 q 198 224 161 289 q 300 124 235 160 q 449 88 365 88 q 597 124 532 88 q 699 224 663 160 q 735 372 735 289 q 699 521 735 456 q 597 622 663 586 q 449 658 532 658 q 300 622 365 658 q 198 521 235 586 q 161 372 161 456 m 286 1047 l 354 1047 l 354 1017 q 388 924 354 958 q 478 890 421 890 q 569 924 536 890 q 603 1017 603 958 l 603 1047 l 671 1047 l 671 1013 q 617 880 671 931 q 478 829 564 829 q 339 880 392 829 q 286 1013 286 931 l 286 1047 z "},"ǧ":{"ha":953,"x_min":81,"x_max":810,"o":"m 458 -296 q 235 -231 326 -296 q 124 -57 144 -167 l 206 -57 q 292 -176 224 -132 q 458 -219 360 -219 q 656 -151 582 -219 q 729 32 729 -83 l 729 149 q 606 45 681 82 q 440 8 531 8 q 254 55 336 8 q 126 185 172 101 q 81 372 81 268 q 126 560 81 476 q 255 690 172 643 q 440 736 338 736 q 610 697 533 736 q 735 589 686 658 l 742 718 l 810 718 l 810 29 q 766 -140 810 -67 q 642 -255 722 -214 q 458 -296 563 -296 m 161 372 q 198 224 161 289 q 300 124 235 160 q 449 88 365 88 q 597 124 532 88 q 699 224 663 160 q 735 372 735 289 q 699 521 735 456 q 597 622 663 586 q 449 658 532 658 q 300 622 365 658 q 198 521 235 586 q 161 372 161 456 m 361 1047 l 478 901 l 594 1047 l 682 1047 l 510 838 l 446 838 l 274 1047 l 361 1047 z "},"ĝ":{"ha":953,"x_min":81,"x_max":810,"o":"m 458 -296 q 235 -231 326 -296 q 124 -57 144 -167 l 206 -57 q 292 -176 224 -132 q 458 -219 360 -219 q 656 -151 582 -219 q 729 32 729 -83 l 729 149 q 606 45 681 82 q 440 8 531 8 q 254 55 336 8 q 126 185 172 101 q 81 372 81 268 q 126 560 81 476 q 255 690 172 643 q 440 736 338 736 q 610 697 533 736 q 735 589 686 658 l 742 718 l 810 718 l 810 29 q 766 -140 810 -67 q 642 -255 722 -214 q 458 -296 563 -296 m 161 372 q 198 224 161 289 q 300 124 235 160 q 449 88 365 88 q 597 124 532 88 q 699 224 663 160 q 735 372 735 289 q 699 521 735 456 q 597 622 663 586 q 449 658 532 658 q 300 622 365 658 q 198 521 235 586 q 161 372 161 456 m 446 1047 l 511 1047 l 682 838 l 594 838 l 478 983 l 363 838 l 275 838 l 446 1047 z "},"ģ":{"ha":953,"x_min":81,"x_max":810,"o":"m 458 -296 q 235 -231 326 -296 q 124 -57 144 -167 l 206 -57 q 292 -176 224 -132 q 458 -219 360 -219 q 656 -151 582 -219 q 729 32 729 -83 l 729 149 q 606 45 681 82 q 440 8 531 8 q 254 55 336 8 q 126 185 172 101 q 81 372 81 268 q 126 560 81 476 q 255 690 172 643 q 440 736 338 736 q 610 697 533 736 q 735 589 686 658 l 742 718 l 810 718 l 810 29 q 766 -140 810 -67 q 642 -255 722 -214 q 458 -296 563 -296 m 161 372 q 198 224 161 289 q 300 124 235 160 q 449 88 365 88 q 597 124 532 88 q 699 224 663 160 q 735 372 735 289 q 699 521 735 456 q 597 622 663 586 q 449 658 532 658 q 300 622 365 658 q 198 521 235 586 q 161 372 161 456 m 403 924 q 438 1042 403 990 q 524 1106 472 1094 l 524 1058 q 474 1008 492 1043 q 460 933 457 974 q 493 942 476 942 q 538 924 521 942 q 556 879 556 907 q 537 833 556 851 q 488 815 518 815 q 426 845 450 815 q 403 924 403 875 z "},"ġ":{"ha":953,"x_min":81,"x_max":810,"o":"m 458 -296 q 235 -231 326 -296 q 124 -57 144 -167 l 206 -57 q 292 -176 224 -132 q 458 -219 360 -219 q 656 -151 582 -219 q 729 32 729 -83 l 729 149 q 606 45 681 82 q 440 8 531 8 q 254 55 336 8 q 126 185 172 101 q 81 372 81 268 q 126 560 81 476 q 255 690 172 643 q 440 736 338 736 q 610 697 533 736 q 735 589 686 658 l 742 718 l 810 718 l 810 29 q 766 -140 810 -67 q 642 -255 722 -214 q 458 -296 563 -296 m 161 372 q 198 224 161 289 q 300 124 235 160 q 449 88 365 88 q 597 124 532 88 q 699 224 663 160 q 735 372 735 289 q 699 521 735 456 q 597 622 663 586 q 449 658 532 658 q 300 622 365 658 q 198 521 235 586 q 161 372 161 456 m 404 922 q 425 974 404 953 q 478 994 446 994 q 532 974 511 994 q 553 922 553 953 q 532 869 553 890 q 478 849 511 849 q 425 869 446 849 q 404 922 404 890 z "},"h":{"ha":921,"x_min":143,"x_max":793,"o":"m 143 1028 l 224 1028 l 224 588 q 336 698 265 660 q 493 736 407 736 q 713 646 632 736 q 793 400 793 556 l 793 0 l 713 0 l 713 393 q 651 588 713 517 q 482 658 589 658 q 348 623 407 658 q 256 523 289 588 q 224 374 224 458 l 224 0 l 143 0 l 143 1028 z "},"ħ":{"ha":953,"x_min":14,"x_max":825,"o":"m 175 857 l 14 857 l 14 926 l 175 926 l 175 1028 l 256 1028 l 256 926 l 538 926 l 538 857 l 256 857 l 256 583 q 367 694 297 656 q 524 732 438 732 q 744 642 664 732 q 825 396 825 553 l 825 0 l 744 0 l 744 389 q 683 584 744 514 q 514 654 621 654 q 380 619 439 654 q 288 519 321 583 q 256 371 256 456 l 256 0 l 175 0 l 175 857 z "},"ĥ":{"ha":921,"x_min":-19,"x_max":793,"o":"m 143 1028 l 224 1028 l 224 588 q 336 698 265 660 q 493 736 407 736 q 713 646 632 736 q 793 400 793 556 l 793 0 l 713 0 l 713 393 q 651 588 713 517 q 482 658 589 658 q 348 623 407 658 q 256 523 289 588 q 224 374 224 458 l 224 0 l 143 0 l 143 1028 m 150 1314 l 218 1314 l 388 1125 l 299 1125 l 183 1254 l 69 1125 l -19 1125 l 150 1314 z "},"i":{"ha":367,"x_min":110,"x_max":257,"o":"m 143 718 l 224 718 l 224 0 l 143 0 l 143 718 m 110 922 q 130 974 110 953 q 183 994 150 994 q 237 974 217 994 q 257 922 257 953 q 237 869 257 890 q 183 849 217 849 q 130 869 150 849 q 110 922 110 890 z "},"ı":{"ha":367,"x_min":143,"x_max":224,"o":"m 143 718 l 224 718 l 224 0 l 143 0 l 143 718 z "},"í":{"ha":367,"x_min":139,"x_max":283,"o":"m 143 718 l 224 718 l 224 0 l 143 0 l 143 718 m 193 1047 l 283 1047 l 213 838 l 139 838 l 193 1047 z "},"ĭ":{"ha":367,"x_min":17,"x_max":353,"o":"m 143 718 l 224 718 l 224 0 l 143 0 l 143 718 m 17 1047 l 83 1047 l 83 1007 q 110 922 83 951 q 185 892 136 892 q 258 922 232 892 q 285 1007 285 951 l 285 1047 l 353 1047 l 353 1003 q 307 878 353 925 q 185 831 261 831 q 63 878 108 831 q 17 1003 17 925 l 17 1047 z "},"î":{"ha":367,"x_min":-8,"x_max":375,"o":"m 143 718 l 224 718 l 224 0 l 143 0 l 143 718 m 151 1047 l 215 1047 l 375 838 l 288 838 l 183 981 l 79 838 l -8 838 l 151 1047 z "},"ï":{"ha":367,"x_min":-10,"x_max":376,"o":"m 143 718 l 224 718 l 224 0 l 143 0 l 143 718 m -10 922 q 9 972 -10 953 q 58 992 28 992 q 108 972 89 992 q 126 922 126 953 q 108 871 126 890 q 58 851 89 851 q 9 871 28 851 q -10 922 -10 890 m 240 922 q 259 972 240 953 q 308 992 278 992 q 358 972 339 992 q 376 922 376 953 q 358 871 376 890 q 308 851 339 851 q 259 871 278 851 q 240 922 240 890 z "},"ì":{"ha":367,"x_min":75,"x_max":224,"o":"m 143 718 l 224 718 l 224 0 l 143 0 l 143 718 m 165 1047 l 219 838 l 146 838 l 75 1047 l 165 1047 z "},"ĳ":{"ha":735,"x_min":110,"x_max":625,"o":"m 143 718 l 224 718 l 224 0 l 143 0 l 143 718 m 110 922 q 130 974 110 953 q 183 994 150 994 q 237 974 217 994 q 257 922 257 953 q 237 869 257 890 q 183 849 217 849 q 130 869 150 849 q 110 922 110 890 m 306 -206 l 374 -206 q 481 -173 450 -206 q 511 -53 511 -140 l 511 718 l 592 718 l 592 -54 q 543 -228 592 -175 q 378 -282 494 -282 l 306 -282 l 306 -206 m 478 922 q 498 974 478 953 q 551 994 518 994 q 605 974 585 994 q 625 922 625 953 q 605 869 625 890 q 551 849 585 849 q 498 869 518 849 q 478 922 478 890 z "},"ī":{"ha":367,"x_min":11,"x_max":356,"o":"m 143 718 l 224 718 l 224 0 l 143 0 l 143 718 m 11 954 l 356 954 l 356 888 l 11 888 l 11 954 z "},"į":{"ha":367,"x_min":63,"x_max":257,"o":"m 183 849 q 130 869 150 849 q 110 922 110 890 q 130 974 110 953 q 183 994 150 994 q 237 974 217 994 q 257 922 257 953 q 237 869 257 890 q 183 849 217 849 m 63 -153 q 143 0 63 -71 l 143 718 l 224 718 l 224 0 q 132 -139 132 -61 q 210 -201 132 -201 l 253 -201 l 253 -265 l 201 -265 q 99 -236 135 -265 q 63 -153 63 -207 z "},"ĩ":{"ha":367,"x_min":-4,"x_max":354,"o":"m 143 718 l 224 718 l 224 0 l 143 0 l 143 718 m -4 885 q 22 968 -4 938 q 93 999 47 999 q 143 987 122 999 q 188 954 164 975 q 219 929 206 938 q 249 921 232 921 q 279 935 268 921 q 290 976 290 950 l 290 996 l 354 996 l 354 971 q 328 888 354 918 q 257 857 303 857 q 207 869 228 857 q 163 903 186 881 q 131 927 143 919 q 103 935 118 935 q 71 920 82 935 q 60 879 60 906 l 60 860 l -4 860 l -4 885 z "},"j":{"ha":368,"x_min":-61,"x_max":258,"o":"m -61 -206 l 7 -206 q 115 -174 85 -206 q 144 -53 144 -142 l 144 718 l 225 718 l 225 -54 q 176 -228 225 -175 q 11 -282 128 -282 l -61 -282 l -61 -206 m 111 922 q 131 974 111 953 q 185 994 151 994 q 238 974 218 994 q 258 922 258 953 q 238 869 258 890 q 185 849 218 849 q 131 869 151 849 q 111 922 111 890 z "},"ȷ":{"ha":368,"x_min":-61,"x_max":225,"o":"m -61 -206 l 7 -206 q 115 -174 85 -206 q 144 -53 144 -142 l 144 718 l 225 718 l 225 -54 q 176 -228 225 -175 q 11 -282 128 -282 l -61 -282 l -61 -206 z "},"ĵ":{"ha":368,"x_min":-61,"x_max":376,"o":"m -61 -206 l 7 -206 q 115 -174 85 -206 q 144 -53 144 -142 l 144 718 l 225 718 l 225 -54 q 176 -228 225 -175 q 11 -282 128 -282 l -61 -282 l -61 -206 m 153 1047 l 217 1047 l 376 838 l 289 838 l 185 981 l 81 838 l -7 838 l 153 1047 z "},"k":{"ha":804,"x_min":143,"x_max":749,"o":"m 143 1028 l 224 1028 l 224 403 l 329 403 q 482 435 431 403 q 567 558 533 468 l 628 718 l 714 718 l 642 528 q 587 427 617 467 q 515 365 557 388 l 749 0 l 653 0 l 440 338 q 326 328 393 328 l 224 328 l 224 0 l 143 0 l 143 1028 z "},"ķ":{"ha":804,"x_min":143,"x_max":749,"o":"m 143 1028 l 224 1028 l 224 403 l 329 403 q 482 435 431 403 q 567 558 533 468 l 628 718 l 714 718 l 642 528 q 587 427 617 467 q 515 365 557 388 l 749 0 l 653 0 l 440 338 q 326 328 393 328 l 224 328 l 224 0 l 143 0 l 143 1028 m 367 -161 q 385 -115 367 -133 q 435 -97 404 -97 q 496 -127 472 -97 q 519 -206 519 -157 q 485 -324 519 -272 q 399 -387 450 -376 l 399 -340 q 448 -290 431 -325 q 463 -215 465 -256 q 429 -224 446 -224 q 385 -206 403 -224 q 367 -161 367 -189 z "},"ĸ":{"ha":804,"x_min":143,"x_max":749,"o":"m 143 718 l 224 718 l 224 403 l 329 403 q 482 435 431 403 q 567 558 533 468 l 628 718 l 714 718 l 642 528 q 588 427 618 467 q 517 365 558 388 l 749 0 l 653 0 l 439 338 q 326 328 394 328 l 224 328 l 224 0 l 143 0 l 143 718 z "},"l":{"ha":367,"x_min":143,"x_max":224,"o":"m 143 1028 l 224 1028 l 224 0 l 143 0 l 143 1028 z "},"ĺ":{"ha":367,"x_min":139,"x_max":313,"o":"m 143 1028 l 224 1028 l 224 0 l 143 0 l 143 1028 m 225 1314 l 313 1314 l 214 1125 l 139 1125 l 225 1314 z "},"ľ":{"ha":404,"x_min":143,"x_max":463,"o":"m 143 1028 l 224 1028 l 224 0 l 143 0 l 143 1028 m 382 1028 l 463 1028 l 403 764 l 335 764 l 382 1028 z "},"ļ":{"ha":367,"x_min":114,"x_max":265,"o":"m 143 1028 l 224 1028 l 224 0 l 143 0 l 143 1028 m 114 -161 q 133 -115 114 -133 q 181 -97 151 -97 q 242 -127 218 -97 q 265 -206 265 -157 q 231 -324 265 -272 q 146 -387 197 -376 l 146 -340 q 195 -290 178 -325 q 210 -215 213 -256 q 175 -224 193 -224 q 131 -206 149 -224 q 114 -161 114 -187 z "},"ŀ":{"ha":511,"x_min":143,"x_max":485,"o":"m 143 1028 l 224 1028 l 224 0 l 143 0 l 143 1028 m 357 442 q 374 487 357 469 q 421 504 392 504 q 467 487 450 504 q 485 442 485 469 q 467 397 485 414 q 421 379 450 379 q 374 397 392 379 q 357 442 357 414 z "},"ł":{"ha":439,"x_min":24,"x_max":417,"o":"m 179 522 l 24 465 l 24 543 l 179 600 l 179 1028 l 260 1028 l 260 629 l 417 686 l 417 608 l 260 551 l 260 0 l 179 0 l 179 522 z "},"m":{"ha":1426,"x_min":143,"x_max":1300,"o":"m 143 718 l 211 718 l 218 601 q 319 701 256 667 q 467 736 383 736 q 630 691 561 736 q 729 564 699 646 q 837 691 765 646 q 1003 736 908 736 q 1219 649 1139 736 q 1300 413 1300 563 l 1300 0 l 1219 0 l 1219 400 q 1158 589 1219 519 q 993 658 1097 658 q 824 587 888 658 q 761 394 761 515 l 761 0 l 681 0 l 681 400 q 619 589 681 519 q 456 658 558 658 q 287 587 350 658 q 224 394 224 515 l 224 0 l 143 0 l 143 718 z "},"n":{"ha":921,"x_min":143,"x_max":793,"o":"m 143 718 l 211 718 l 218 579 q 331 696 260 656 q 490 736 403 736 q 712 644 631 736 q 793 397 793 553 l 793 0 l 713 0 l 713 390 q 650 586 713 514 q 481 658 588 658 q 347 622 406 658 q 256 522 289 586 q 224 372 224 457 l 224 0 l 143 0 l 143 718 z "},"ń":{"ha":921,"x_min":143,"x_max":793,"o":"m 143 718 l 211 718 l 218 579 q 331 696 260 656 q 490 736 403 736 q 712 644 631 736 q 793 397 793 553 l 793 0 l 713 0 l 713 390 q 650 586 713 514 q 481 658 588 658 q 347 622 406 658 q 256 522 289 586 q 224 372 224 457 l 224 0 l 143 0 l 143 718 m 488 1047 l 574 1047 l 488 838 l 411 838 l 488 1047 z "},"ŉ":{"ha":1050,"x_min":0,"x_max":922,"o":"m 272 718 l 339 718 l 347 578 q 460 695 389 654 q 618 736 532 736 q 840 644 758 736 q 922 397 922 553 l 922 0 l 842 0 l 842 390 q 778 586 842 514 q 608 658 715 658 q 475 622 533 658 q 385 522 417 586 q 353 372 353 457 l 353 0 l 272 0 l 272 718 m 0 965 q 21 1016 0 996 q 74 1036 42 1036 q 142 1003 115 1036 q 168 917 168 971 q 130 787 168 844 q 36 717 92 729 l 36 769 q 90 824 71 786 q 106 906 108 861 q 68 896 86 896 q 19 915 39 896 q 0 965 0 935 z "},"ň":{"ha":921,"x_min":143,"x_max":793,"o":"m 143 718 l 211 718 l 218 579 q 331 696 260 656 q 490 736 403 736 q 712 644 631 736 q 793 397 793 553 l 793 0 l 713 0 l 713 390 q 650 586 713 514 q 481 658 588 658 q 347 622 406 658 q 256 522 289 586 q 224 372 224 457 l 224 0 l 143 0 l 143 718 m 347 1047 l 464 901 l 581 1047 l 668 1047 l 496 838 l 432 838 l 260 1047 l 347 1047 z "},"ņ":{"ha":921,"x_min":143,"x_max":793,"o":"m 143 718 l 211 718 l 218 579 q 331 696 260 656 q 490 736 403 736 q 712 644 631 736 q 793 397 793 553 l 793 0 l 713 0 l 713 390 q 650 586 713 514 q 481 658 588 658 q 347 622 406 658 q 256 522 289 586 q 224 372 224 457 l 224 0 l 143 0 l 143 718 m 399 -161 q 417 -115 399 -133 q 467 -97 436 -97 q 528 -127 504 -97 q 551 -206 551 -157 q 517 -324 551 -272 q 431 -387 482 -376 l 431 -340 q 480 -290 463 -325 q 494 -215 497 -256 q 461 -224 478 -224 q 417 -206 435 -224 q 399 -161 399 -189 z "},"ñ":{"ha":921,"x_min":143,"x_max":793,"o":"m 143 718 l 211 718 l 218 579 q 331 696 260 656 q 490 736 403 736 q 712 644 631 736 q 793 397 793 553 l 793 0 l 713 0 l 713 390 q 650 586 713 514 q 481 658 588 658 q 347 622 406 658 q 256 522 289 586 q 224 372 224 457 l 224 0 l 143 0 l 143 718 m 261 882 q 290 970 261 938 q 369 1003 319 1003 q 425 991 403 1003 q 475 956 447 979 q 512 927 497 936 q 547 918 526 918 q 586 934 572 918 q 600 979 600 950 l 600 1000 l 665 1000 l 665 974 q 636 885 665 918 q 557 853 607 853 q 501 865 524 853 q 451 900 479 876 q 415 928 429 919 q 379 938 400 938 q 340 922 353 938 q 326 876 326 906 l 326 856 l 261 856 l 261 882 z "},"ŋ":{"ha":921,"x_min":143,"x_max":793,"o":"m 521 -206 l 575 -206 q 683 -174 653 -206 q 713 -53 713 -142 l 713 390 q 650 586 713 514 q 481 658 588 658 q 347 622 406 658 q 256 522 289 586 q 224 372 224 457 l 224 0 l 143 0 l 143 718 l 211 718 l 219 582 q 333 697 261 657 q 490 736 404 736 q 712 644 631 736 q 793 397 793 553 l 793 -54 q 745 -228 793 -175 q 581 -282 697 -282 l 521 -282 l 521 -206 z "},"o":{"ha":915,"x_min":81,"x_max":835,"o":"m 458 -18 q 263 30 349 -18 q 128 164 176 78 q 81 360 81 250 q 128 555 81 469 q 263 688 176 640 q 458 736 349 736 q 653 688 568 736 q 787 555 739 640 q 835 360 835 469 q 787 164 835 250 q 653 30 739 78 q 458 -18 568 -18 m 161 360 q 199 204 161 272 q 303 98 236 136 q 458 60 371 60 q 612 98 544 60 q 717 204 679 136 q 754 360 754 272 q 717 515 754 447 q 612 621 679 583 q 458 658 544 658 q 303 621 371 658 q 199 515 236 583 q 161 360 161 447 z "},"ó":{"ha":915,"x_min":81,"x_max":835,"o":"m 458 -18 q 263 30 349 -18 q 128 164 176 78 q 81 360 81 250 q 128 555 81 469 q 263 688 176 640 q 458 736 349 736 q 653 688 568 736 q 787 555 739 640 q 835 360 835 469 q 787 164 835 250 q 653 30 739 78 q 458 -18 568 -18 m 161 360 q 199 204 161 272 q 303 98 236 136 q 458 60 371 60 q 612 98 544 60 q 717 204 679 136 q 754 360 754 272 q 717 515 754 447 q 612 621 679 583 q 458 658 544 658 q 303 621 371 658 q 199 515 236 583 q 161 360 161 447 m 482 1047 l 568 1047 l 481 838 l 406 838 l 482 1047 z "},"ŏ":{"ha":915,"x_min":81,"x_max":835,"o":"m 458 -18 q 263 30 349 -18 q 128 164 176 78 q 81 360 81 250 q 128 555 81 469 q 263 688 176 640 q 458 736 349 736 q 653 688 568 736 q 787 555 739 640 q 835 360 835 469 q 787 164 835 250 q 653 30 739 78 q 458 -18 568 -18 m 161 360 q 199 204 161 272 q 303 98 236 136 q 458 60 371 60 q 612 98 544 60 q 717 204 679 136 q 754 360 754 272 q 717 515 754 447 q 612 621 679 583 q 458 658 544 658 q 303 621 371 658 q 199 515 236 583 q 161 360 161 447 m 265 1047 l 333 1047 l 333 1017 q 367 924 333 958 q 458 890 401 890 q 549 924 515 890 q 582 1017 582 958 l 582 1047 l 650 1047 l 650 1013 q 597 880 650 931 q 458 829 544 829 q 319 880 372 829 q 265 1013 265 931 l 265 1047 z "},"ô":{"ha":915,"x_min":81,"x_max":835,"o":"m 458 -18 q 263 30 349 -18 q 128 164 176 78 q 81 360 81 250 q 128 555 81 469 q 263 688 176 640 q 458 736 349 736 q 653 688 568 736 q 787 555 739 640 q 835 360 835 469 q 787 164 835 250 q 653 30 739 78 q 458 -18 568 -18 m 161 360 q 199 204 161 272 q 303 98 236 136 q 458 60 371 60 q 612 98 544 60 q 717 204 679 136 q 754 360 754 272 q 717 515 754 447 q 612 621 679 583 q 458 658 544 658 q 303 621 371 658 q 199 515 236 583 q 161 360 161 447 m 425 1047 l 490 1047 l 661 838 l 574 838 l 458 983 l 342 838 l 254 838 l 425 1047 z "},"ö":{"ha":915,"x_min":81,"x_max":835,"o":"m 458 -18 q 263 30 349 -18 q 128 164 176 78 q 81 360 81 250 q 128 555 81 469 q 263 688 176 640 q 458 736 349 736 q 653 688 568 736 q 787 555 739 640 q 835 360 835 469 q 787 164 835 250 q 653 30 739 78 q 458 -18 568 -18 m 161 360 q 199 204 161 272 q 303 98 236 136 q 458 60 371 60 q 612 98 544 60 q 717 204 679 136 q 754 360 754 272 q 717 515 754 447 q 612 621 679 583 q 458 658 544 658 q 303 621 371 658 q 199 515 236 583 q 161 360 161 447 m 251 922 q 272 972 251 953 q 322 992 292 992 q 374 972 354 992 q 393 922 393 953 q 374 871 393 890 q 322 851 354 851 q 272 872 292 851 q 251 922 251 892 m 522 922 q 542 972 522 953 q 593 992 563 992 q 644 972 624 992 q 664 922 664 953 q 644 872 664 892 q 593 851 625 851 q 542 872 563 851 q 522 922 522 892 z "},"ò":{"ha":915,"x_min":81,"x_max":835,"o":"m 458 -18 q 263 30 349 -18 q 128 164 176 78 q 81 360 81 250 q 128 555 81 469 q 263 688 176 640 q 458 736 349 736 q 653 688 568 736 q 787 555 739 640 q 835 360 835 469 q 787 164 835 250 q 653 30 739 78 q 458 -18 568 -18 m 161 360 q 199 204 161 272 q 303 98 236 136 q 458 60 371 60 q 612 98 544 60 q 717 204 679 136 q 754 360 754 272 q 717 515 754 447 q 612 621 679 583 q 458 658 544 658 q 303 621 371 658 q 199 515 236 583 q 161 360 161 447 m 433 1047 l 510 838 l 435 838 l 347 1047 l 433 1047 z "},"ő":{"ha":915,"x_min":81,"x_max":835,"o":"m 458 -18 q 263 30 349 -18 q 128 164 176 78 q 81 360 81 250 q 128 555 81 469 q 263 688 176 640 q 458 736 349 736 q 653 688 568 736 q 787 555 739 640 q 835 360 835 469 q 787 164 835 250 q 653 30 739 78 q 458 -18 568 -18 m 161 360 q 199 204 161 272 q 303 98 236 136 q 458 60 371 60 q 612 98 544 60 q 717 204 679 136 q 754 360 754 272 q 717 515 754 447 q 612 621 679 583 q 458 658 544 658 q 303 621 371 658 q 199 515 236 583 q 161 360 161 447 m 382 1047 l 463 1047 l 389 838 l 318 838 l 382 1047 m 568 1047 l 650 1047 l 563 838 l 494 838 l 568 1047 z "},"ō":{"ha":915,"x_min":81,"x_max":835,"o":"m 458 -18 q 263 30 349 -18 q 128 164 176 78 q 81 360 81 250 q 128 555 81 469 q 263 688 176 640 q 458 736 349 736 q 653 688 568 736 q 787 555 739 640 q 835 360 835 469 q 787 164 835 250 q 653 30 739 78 q 458 -18 568 -18 m 161 360 q 199 204 161 272 q 303 98 236 136 q 458 60 371 60 q 612 98 544 60 q 717 204 679 136 q 754 360 754 272 q 717 515 754 447 q 612 621 679 583 q 458 658 544 658 q 303 621 371 658 q 199 515 236 583 q 161 360 161 447 m 264 954 l 651 954 l 651 888 l 264 888 l 264 954 z "},"ø":{"ha":915,"x_min":81,"x_max":835,"o":"m 208 67 q 114 194 147 118 q 81 360 81 269 q 128 555 81 469 q 263 688 176 640 q 458 736 349 736 q 643 693 560 736 l 697 771 l 792 771 l 707 651 q 801 526 768 601 q 835 360 835 450 q 787 164 835 250 q 653 30 739 78 q 458 -18 568 -18 q 272 25 354 -18 l 218 -51 l 124 -51 l 208 67 m 161 360 q 185 231 161 289 q 256 132 210 172 l 599 628 q 458 658 535 658 q 303 621 371 658 q 199 515 236 583 q 161 360 161 447 m 317 90 q 458 60 382 60 q 612 98 544 60 q 717 204 679 136 q 754 360 754 272 q 730 488 754 429 q 660 586 706 546 l 317 90 z "},"ǿ":{"ha":915,"x_min":81,"x_max":835,"o":"m 208 67 q 114 194 147 118 q 81 360 81 269 q 128 555 81 469 q 263 688 176 640 q 458 736 349 736 q 643 693 560 736 l 697 771 l 792 771 l 707 651 q 801 526 768 601 q 835 360 835 450 q 787 164 835 250 q 653 30 739 78 q 458 -18 568 -18 q 272 25 354 -18 l 218 -51 l 124 -51 l 208 67 m 161 360 q 185 231 161 289 q 256 132 210 172 l 599 628 q 458 658 535 658 q 303 621 371 658 q 199 515 236 583 q 161 360 161 447 m 317 90 q 458 60 382 60 q 612 98 544 60 q 717 204 679 136 q 754 360 754 272 q 730 488 754 429 q 660 586 706 546 l 317 90 m 482 1047 l 568 1047 l 481 838 l 406 838 l 482 1047 z "},"õ":{"ha":915,"x_min":81,"x_max":835,"o":"m 458 -18 q 263 30 349 -18 q 128 164 176 78 q 81 360 81 250 q 128 555 81 469 q 263 688 176 640 q 458 736 349 736 q 653 688 568 736 q 787 555 739 640 q 835 360 835 469 q 787 164 835 250 q 653 30 739 78 q 458 -18 568 -18 m 161 360 q 199 204 161 272 q 303 98 236 136 q 458 60 371 60 q 612 98 544 60 q 717 204 679 136 q 754 360 754 272 q 717 515 754 447 q 612 621 679 583 q 458 658 544 658 q 303 621 371 658 q 199 515 236 583 q 161 360 161 447 m 256 882 q 285 970 256 938 q 364 1003 314 1003 q 419 991 397 1003 q 469 956 442 979 q 506 927 492 936 q 542 918 521 918 q 580 934 567 918 q 593 979 593 950 l 593 1000 l 660 1000 l 660 974 q 630 885 660 918 q 550 853 600 853 q 495 865 517 853 q 446 900 474 876 q 408 928 424 919 q 372 938 393 938 q 334 922 347 938 q 321 876 321 906 l 321 856 l 256 856 l 256 882 z "},"œ":{"ha":1550,"x_min":81,"x_max":1475,"o":"m 451 -18 q 260 31 344 -18 q 128 165 175 79 q 81 360 81 250 q 128 554 81 468 q 260 688 175 640 q 451 736 344 736 q 653 683 565 736 q 786 535 740 629 q 913 683 828 629 q 1111 736 999 736 q 1303 685 1221 736 q 1431 540 1386 633 q 1472 326 1475 447 l 828 326 q 914 131 838 204 q 1110 58 990 58 q 1260 97 1194 58 q 1361 206 1326 135 l 1451 206 q 1320 42 1411 101 q 1110 -18 1229 -18 q 913 35 999 -18 q 786 183 828 89 q 653 35 740 89 q 451 -18 565 -18 m 161 360 q 199 204 161 272 q 303 98 236 136 q 456 60 369 60 q 608 98 542 60 q 712 204 675 136 q 749 360 749 272 q 712 515 749 447 q 608 621 675 583 q 456 658 542 658 q 303 621 369 658 q 199 515 236 583 q 161 360 161 447 m 1393 397 q 1303 590 1379 519 q 1110 660 1226 660 q 916 588 993 660 q 828 397 839 515 l 1393 397 z "},"p":{"ha":975,"x_min":143,"x_max":894,"o":"m 526 -18 q 351 23 429 -18 q 224 136 272 64 l 224 -278 l 143 -278 l 143 718 l 211 718 l 219 575 q 347 694 267 651 q 526 736 426 736 q 717 688 633 736 q 848 553 801 639 q 894 360 894 468 q 848 165 894 251 q 717 31 801 79 q 526 -18 633 -18 m 221 360 q 258 204 221 272 q 363 98 296 136 q 518 60 431 60 q 672 98 606 60 q 776 204 739 136 q 814 360 814 272 q 776 514 814 446 q 672 620 739 582 q 518 658 606 658 q 363 620 431 658 q 258 514 296 582 q 221 360 221 446 z "},"þ":{"ha":975,"x_min":143,"x_max":894,"o":"m 526 -18 q 351 23 429 -18 q 224 136 272 64 l 224 -278 l 143 -278 l 143 1028 l 224 1028 l 224 582 q 351 696 272 656 q 526 736 429 736 q 717 688 633 736 q 848 553 801 639 q 894 360 894 468 q 848 165 894 251 q 717 31 801 79 q 526 -18 633 -18 m 221 360 q 258 204 221 272 q 363 98 296 136 q 518 60 431 60 q 672 98 606 60 q 776 204 739 136 q 814 360 814 272 q 776 514 814 446 q 672 620 739 582 q 518 658 606 658 q 363 620 431 658 q 258 514 296 582 q 221 360 221 446 z "},"q":{"ha":975,"x_min":81,"x_max":832,"o":"m 449 -18 q 258 31 342 -18 q 127 165 174 79 q 81 360 81 251 q 127 553 81 468 q 258 688 174 639 q 449 736 342 736 q 628 694 549 736 q 757 576 708 651 l 765 718 l 832 718 l 832 -278 l 751 -278 l 751 135 q 624 22 703 63 q 449 -18 546 -18 m 161 360 q 199 204 161 272 q 303 98 236 136 q 458 60 371 60 q 612 98 544 60 q 717 204 679 136 q 754 360 754 272 q 717 514 754 446 q 612 620 679 582 q 458 658 544 658 q 303 620 371 658 q 199 514 236 582 q 161 360 161 446 z "},"r":{"ha":603,"x_min":143,"x_max":543,"o":"m 143 718 l 211 718 l 219 557 q 320 678 256 639 q 483 718 385 718 l 543 718 l 543 643 l 481 643 q 292 566 360 643 q 224 331 224 489 l 224 0 l 143 0 l 143 718 z "},"ŕ":{"ha":603,"x_min":143,"x_max":543,"o":"m 143 718 l 211 718 l 219 557 q 320 678 256 639 q 483 718 385 718 l 543 718 l 543 643 l 481 643 q 292 566 360 643 q 224 331 224 489 l 224 0 l 143 0 l 143 718 m 375 1047 l 461 1047 l 374 838 l 299 838 l 375 1047 z "},"ř":{"ha":603,"x_min":143,"x_max":554,"o":"m 143 718 l 211 718 l 219 557 q 320 678 256 639 q 483 718 385 718 l 543 718 l 543 643 l 481 643 q 292 566 360 643 q 224 331 224 489 l 224 0 l 143 0 l 143 718 m 233 1047 l 350 901 l 467 1047 l 554 1047 l 382 838 l 318 838 l 146 1047 l 233 1047 z "},"ŗ":{"ha":603,"x_min":114,"x_max":543,"o":"m 143 718 l 211 718 l 219 557 q 320 678 256 639 q 483 718 385 718 l 543 718 l 543 643 l 481 643 q 292 566 360 643 q 224 331 224 489 l 224 0 l 143 0 l 143 718 m 114 -161 q 133 -115 114 -133 q 181 -97 151 -97 q 242 -127 218 -97 q 265 -206 265 -157 q 231 -324 265 -272 q 146 -387 197 -376 l 146 -340 q 195 -290 178 -325 q 210 -215 213 -256 q 175 -224 193 -224 q 131 -206 149 -224 q 114 -161 114 -187 z "},"s":{"ha":764,"x_min":88,"x_max":674,"o":"m 390 -18 q 173 45 254 -18 q 88 217 92 108 l 167 217 q 231 98 174 140 q 392 56 289 56 q 540 90 486 56 q 594 183 594 124 q 541 276 594 240 q 374 331 488 311 q 167 405 233 354 q 101 539 101 456 q 174 683 101 631 q 374 736 247 736 q 577 678 501 736 q 661 518 653 621 l 581 518 q 522 626 575 589 q 374 664 468 664 q 233 630 285 664 q 182 538 182 596 q 232 452 182 485 q 401 397 282 419 q 674 182 674 346 q 597 37 674 92 q 390 -18 519 -18 z "},"ś":{"ha":764,"x_min":88,"x_max":674,"o":"m 390 -18 q 173 45 254 -18 q 88 217 92 108 l 167 217 q 231 98 174 140 q 392 56 289 56 q 540 90 486 56 q 594 183 594 124 q 541 276 594 240 q 374 331 488 311 q 167 405 233 354 q 101 539 101 456 q 174 683 101 631 q 374 736 247 736 q 577 678 501 736 q 661 518 653 621 l 581 518 q 522 626 575 589 q 374 664 468 664 q 233 630 285 664 q 182 538 182 596 q 232 452 182 485 q 401 397 282 419 q 674 182 674 346 q 597 37 674 92 q 390 -18 519 -18 m 397 1047 l 483 1047 l 396 838 l 321 838 l 397 1047 z "},"š":{"ha":764,"x_min":88,"x_max":674,"o":"m 390 -18 q 173 45 254 -18 q 88 217 92 108 l 167 217 q 231 98 174 140 q 392 56 289 56 q 540 90 486 56 q 594 183 594 124 q 541 276 594 240 q 374 331 488 311 q 167 405 233 354 q 101 539 101 456 q 174 683 101 631 q 374 736 247 736 q 577 678 501 736 q 661 518 653 621 l 581 518 q 522 626 575 589 q 374 664 468 664 q 233 630 285 664 q 182 538 182 596 q 232 452 182 485 q 401 397 282 419 q 674 182 674 346 q 597 37 674 92 q 390 -18 519 -18 m 256 1047 l 372 901 l 489 1047 l 576 1047 l 404 838 l 340 838 l 168 1047 l 256 1047 z "},"ş":{"ha":764,"x_min":88,"x_max":674,"o":"m 306 -275 l 379 -275 q 440 -258 419 -275 q 461 -208 461 -240 q 440 -160 461 -176 q 379 -143 418 -143 l 336 -143 l 326 -128 l 365 -18 q 166 51 240 -12 q 88 217 92 114 l 167 217 q 231 98 174 140 q 392 56 289 56 q 540 90 486 56 q 594 183 594 124 q 541 276 594 240 q 374 331 488 311 q 167 405 233 354 q 101 539 101 456 q 174 683 101 631 q 374 736 247 736 q 577 678 501 736 q 661 518 653 621 l 581 518 q 522 626 575 589 q 374 664 468 664 q 233 630 285 664 q 182 538 182 596 q 232 452 182 485 q 401 397 282 419 q 674 182 674 346 q 607 44 674 97 q 425 -17 540 -10 l 399 -89 q 494 -124 460 -92 q 529 -212 529 -157 q 491 -304 529 -271 q 385 -337 453 -337 l 306 -337 l 306 -275 z "},"ŝ":{"ha":764,"x_min":88,"x_max":674,"o":"m 390 -18 q 173 45 254 -18 q 88 217 92 108 l 167 217 q 231 98 174 140 q 392 56 289 56 q 540 90 486 56 q 594 183 594 124 q 541 276 594 240 q 374 331 488 311 q 167 405 233 354 q 101 539 101 456 q 174 683 101 631 q 374 736 247 736 q 577 678 501 736 q 661 518 653 621 l 581 518 q 522 626 575 589 q 374 664 468 664 q 233 630 285 664 q 182 538 182 596 q 232 452 182 485 q 401 397 282 419 q 674 182 674 346 q 597 37 674 92 q 390 -18 519 -18 m 340 1047 l 406 1047 l 576 838 l 489 838 l 374 983 l 257 838 l 169 838 l 340 1047 z "},"ș":{"ha":764,"x_min":88,"x_max":674,"o":"m 390 -18 q 173 45 254 -18 q 88 217 92 108 l 167 217 q 231 98 174 140 q 392 56 289 56 q 540 90 486 56 q 594 183 594 124 q 541 276 594 240 q 374 331 488 311 q 167 405 233 354 q 101 539 101 456 q 174 683 101 631 q 374 736 247 736 q 577 678 501 736 q 661 518 653 621 l 581 518 q 522 626 575 589 q 374 664 468 664 q 233 630 285 664 q 182 538 182 596 q 232 452 182 485 q 401 397 282 419 q 674 182 674 346 q 597 37 674 92 q 390 -18 519 -18 m 319 -161 q 338 -115 319 -133 q 388 -97 357 -97 q 449 -127 425 -97 q 472 -206 472 -157 q 438 -324 472 -272 q 353 -387 403 -376 l 353 -340 q 401 -291 385 -325 q 415 -215 418 -257 q 382 -224 399 -224 q 338 -206 356 -224 q 319 -161 319 -189 z "},"ß":{"ha":910,"x_min":143,"x_max":846,"o":"m 143 714 q 231 956 143 867 q 475 1046 319 1046 q 637 1012 567 1046 q 746 916 707 978 q 785 774 785 854 q 748 635 785 696 q 646 542 711 574 q 792 443 738 514 q 846 276 846 372 q 806 132 846 194 q 694 35 767 69 q 529 0 622 0 l 379 0 l 379 76 l 525 76 q 699 134 632 76 q 765 285 765 192 q 697 435 765 378 q 519 492 629 492 l 386 492 l 386 568 l 492 568 q 644 626 583 568 q 704 772 704 683 q 642 917 704 863 q 475 972 581 972 q 289 903 354 972 q 224 710 224 833 l 224 0 l 143 0 l 143 714 z "},"ſ":{"ha":476,"x_min":49,"x_max":525,"o":"m 213 801 q 454 1046 213 1046 l 525 1046 l 525 969 l 461 969 q 332 928 371 969 q 293 796 293 888 l 293 0 l 213 0 l 213 644 l 49 644 l 49 718 l 213 718 l 213 801 z "},"t":{"ha":611,"x_min":43,"x_max":539,"o":"m 435 0 q 260 63 319 0 q 200 249 200 126 l 200 644 l 43 644 l 43 718 l 135 718 q 190 731 175 718 q 210 785 206 744 l 217 894 l 281 894 l 281 718 l 529 718 l 529 644 l 281 644 l 281 251 q 319 120 281 163 q 438 78 357 78 l 539 78 l 539 0 l 435 0 z "},"ŧ":{"ha":624,"x_min":47,"x_max":544,"o":"m 440 0 q 264 65 324 0 q 204 256 204 129 l 204 350 l 56 350 l 56 422 l 204 422 l 204 644 l 47 644 l 47 718 l 140 718 q 195 731 179 718 q 214 785 211 744 l 221 894 l 285 894 l 285 718 l 533 718 l 533 644 l 285 644 l 285 422 l 525 422 l 525 350 l 285 350 l 285 258 q 323 121 285 164 q 443 78 361 78 l 544 78 l 544 0 l 440 0 z "},"ť":{"ha":610,"x_min":43,"x_max":539,"o":"m 435 0 q 260 63 319 0 q 200 249 200 126 l 200 644 l 43 644 l 43 718 l 135 718 q 190 731 175 718 q 210 785 206 744 l 217 894 l 281 894 l 281 718 l 529 718 l 529 644 l 281 644 l 281 251 q 319 120 281 163 q 438 78 357 78 l 539 78 l 539 0 l 435 0 m 453 1028 l 528 1028 l 490 792 l 422 792 l 453 1028 z "},"ţ":{"ha":611,"x_min":43,"x_max":539,"o":"m 428 0 l 394 -89 q 492 -124 457 -92 q 526 -212 526 -157 q 488 -304 526 -271 q 382 -337 450 -337 l 301 -337 l 301 -275 l 375 -275 q 437 -258 415 -275 q 458 -208 458 -240 q 437 -160 458 -178 q 375 -143 415 -143 l 333 -143 l 322 -128 l 371 6 q 243 84 286 22 q 200 249 200 146 l 200 644 l 43 644 l 43 718 l 135 718 q 190 731 175 718 q 210 785 206 744 l 217 894 l 281 894 l 281 718 l 529 718 l 529 644 l 281 644 l 281 251 q 319 120 281 163 q 438 78 357 78 l 539 78 l 539 0 l 435 0 l 428 0 z "},"ț":{"ha":611,"x_min":43,"x_max":539,"o":"m 435 0 q 260 63 319 0 q 200 249 200 126 l 200 644 l 43 644 l 43 718 l 135 718 q 190 731 175 718 q 210 785 206 744 l 217 894 l 281 894 l 281 718 l 529 718 l 529 644 l 281 644 l 281 251 q 319 120 281 163 q 438 78 357 78 l 539 78 l 539 0 l 435 0 m 317 -161 q 335 -115 317 -133 q 383 -97 354 -97 q 445 -127 422 -97 q 468 -206 468 -157 q 434 -324 468 -272 q 349 -387 400 -376 l 349 -340 q 398 -290 381 -325 q 413 -215 415 -256 q 378 -224 396 -224 q 334 -206 351 -224 q 317 -161 317 -187 z "},"u":{"ha":913,"x_min":128,"x_max":769,"o":"m 426 -18 q 208 74 289 -18 q 128 321 128 165 l 128 718 l 208 718 l 208 328 q 270 132 208 204 q 438 60 332 60 q 568 96 511 60 q 657 197 625 132 q 689 347 689 263 l 689 718 l 769 718 l 769 0 l 703 0 l 694 140 q 583 23 653 64 q 426 -18 513 -18 z "},"ú":{"ha":913,"x_min":128,"x_max":769,"o":"m 426 -18 q 208 74 289 -18 q 128 321 128 165 l 128 718 l 208 718 l 208 328 q 270 132 208 204 q 438 60 332 60 q 568 96 511 60 q 657 197 625 132 q 689 347 689 263 l 689 718 l 769 718 l 769 0 l 703 0 l 694 140 q 583 23 653 64 q 426 -18 513 -18 m 472 1047 l 558 1047 l 471 838 l 396 838 l 472 1047 z "},"ŭ":{"ha":913,"x_min":128,"x_max":769,"o":"m 426 -18 q 208 74 289 -18 q 128 321 128 165 l 128 718 l 208 718 l 208 328 q 270 132 208 204 q 438 60 332 60 q 568 96 511 60 q 657 197 625 132 q 689 347 689 263 l 689 718 l 769 718 l 769 0 l 703 0 l 694 140 q 583 23 653 64 q 426 -18 513 -18 m 256 1047 l 324 1047 l 324 1017 q 358 924 324 958 q 449 890 392 890 q 540 924 506 890 q 574 1017 574 958 l 574 1047 l 640 1047 l 640 1013 q 588 880 640 931 q 449 829 535 829 q 309 880 363 829 q 256 1013 256 931 l 256 1047 z "},"û":{"ha":913,"x_min":128,"x_max":769,"o":"m 426 -18 q 208 74 289 -18 q 128 321 128 165 l 128 718 l 208 718 l 208 328 q 270 132 208 204 q 438 60 332 60 q 568 96 511 60 q 657 197 625 132 q 689 347 689 263 l 689 718 l 769 718 l 769 0 l 703 0 l 694 140 q 583 23 653 64 q 426 -18 513 -18 m 417 1047 l 481 1047 l 653 838 l 564 838 l 449 983 l 332 838 l 244 838 l 417 1047 z "},"ü":{"ha":913,"x_min":128,"x_max":769,"o":"m 426 -18 q 208 74 289 -18 q 128 321 128 165 l 128 718 l 208 718 l 208 328 q 270 132 208 204 q 438 60 332 60 q 568 96 511 60 q 657 197 625 132 q 689 347 689 263 l 689 718 l 769 718 l 769 0 l 703 0 l 694 140 q 583 23 653 64 q 426 -18 513 -18 m 243 922 q 263 972 243 953 q 314 992 282 992 q 365 972 344 992 q 385 922 385 953 q 365 872 385 892 q 314 851 346 851 q 263 871 282 851 q 243 922 243 890 m 513 922 q 533 972 513 953 q 583 992 553 992 q 634 972 614 992 q 654 922 654 953 q 635 872 654 892 q 583 851 615 851 q 533 872 553 851 q 513 922 513 892 z "},"ù":{"ha":913,"x_min":128,"x_max":769,"o":"m 426 -18 q 208 74 289 -18 q 128 321 128 165 l 128 718 l 208 718 l 208 328 q 270 132 208 204 q 438 60 332 60 q 568 96 511 60 q 657 197 625 132 q 689 347 689 263 l 689 718 l 769 718 l 769 0 l 703 0 l 694 140 q 583 23 653 64 q 426 -18 513 -18 m 424 1047 l 501 838 l 425 838 l 338 1047 l 424 1047 z "},"ű":{"ha":913,"x_min":128,"x_max":769,"o":"m 426 -18 q 208 74 289 -18 q 128 321 128 165 l 128 718 l 208 718 l 208 328 q 270 132 208 204 q 438 60 332 60 q 568 96 511 60 q 657 197 625 132 q 689 347 689 263 l 689 718 l 769 718 l 769 0 l 703 0 l 694 140 q 583 23 653 64 q 426 -18 513 -18 m 372 1047 l 453 1047 l 379 838 l 310 838 l 372 1047 m 558 1047 l 640 1047 l 553 838 l 485 838 l 558 1047 z "},"ū":{"ha":913,"x_min":128,"x_max":769,"o":"m 426 -18 q 208 74 289 -18 q 128 321 128 165 l 128 718 l 208 718 l 208 328 q 270 132 208 204 q 438 60 332 60 q 568 96 511 60 q 657 197 625 132 q 689 347 689 263 l 689 718 l 769 718 l 769 0 l 703 0 l 694 140 q 583 23 653 64 q 426 -18 513 -18 m 254 954 l 642 954 l 642 888 l 254 888 l 254 954 z "},"ų":{"ha":913,"x_min":128,"x_max":785,"o":"m 426 -18 q 208 74 289 -18 q 128 321 128 165 l 128 718 l 208 718 l 208 328 q 270 132 208 204 q 438 60 332 60 q 568 96 511 60 q 657 197 625 132 q 689 347 689 263 l 689 718 l 769 718 l 769 0 q 663 -139 663 -67 q 740 -201 663 -201 l 785 -201 l 785 -265 l 733 -265 q 629 -236 665 -265 q 593 -153 593 -207 q 701 18 593 -60 l 694 140 q 583 23 653 64 q 426 -18 513 -18 z "},"ů":{"ha":913,"x_min":128,"x_max":769,"o":"m 426 -18 q 208 74 289 -18 q 128 321 128 165 l 128 718 l 208 718 l 208 328 q 270 132 208 204 q 438 60 332 60 q 568 96 511 60 q 657 197 625 132 q 689 347 689 263 l 689 718 l 769 718 l 769 0 l 703 0 l 694 140 q 583 23 653 64 q 426 -18 513 -18 m 296 965 q 339 1072 296 1031 q 449 1114 382 1114 q 558 1072 515 1114 q 601 965 601 1031 q 558 859 601 900 q 449 818 515 818 q 339 859 382 818 q 296 965 296 900 m 356 965 q 382 899 356 925 q 449 872 408 872 q 515 899 489 872 q 540 965 540 925 q 515 1033 540 1007 q 449 1060 489 1060 q 382 1033 408 1060 q 356 965 356 1007 z "},"ũ":{"ha":913,"x_min":128,"x_max":769,"o":"m 426 -18 q 208 74 289 -18 q 128 321 128 165 l 128 718 l 208 718 l 208 328 q 270 132 208 204 q 438 60 332 60 q 568 96 511 60 q 657 197 625 132 q 689 347 689 263 l 689 718 l 769 718 l 769 0 l 703 0 l 694 140 q 583 23 653 64 q 426 -18 513 -18 m 246 882 q 275 970 246 938 q 354 1003 304 1003 q 410 991 388 1003 q 460 956 432 979 q 497 927 482 936 q 532 918 511 918 q 571 934 557 918 q 585 979 585 950 l 585 1000 l 650 1000 l 650 974 q 621 885 650 918 q 542 853 592 853 q 486 865 508 853 q 436 900 464 876 q 399 928 414 919 q 364 938 385 938 q 324 922 338 938 q 311 876 311 906 l 311 856 l 246 856 l 246 882 z "},"v":{"ha":778,"x_min":28,"x_max":749,"o":"m 28 718 l 115 718 l 240 440 l 389 106 l 536 440 l 663 718 l 749 718 l 428 0 l 349 0 l 28 718 z "},"w":{"ha":1196,"x_min":31,"x_max":1165,"o":"m 31 718 l 117 718 l 329 121 l 431 382 l 560 718 l 635 718 l 765 382 l 867 121 l 1081 718 l 1165 718 l 906 0 l 828 0 l 704 321 l 597 600 l 367 0 l 289 0 l 31 718 z "},"ẃ":{"ha":1196,"x_min":31,"x_max":1165,"o":"m 31 718 l 117 718 l 329 121 l 431 382 l 560 718 l 635 718 l 765 382 l 867 121 l 1081 718 l 1165 718 l 906 0 l 828 0 l 704 321 l 597 600 l 367 0 l 289 0 l 31 718 m 621 1047 l 708 1047 l 621 838 l 544 838 l 621 1047 z "},"ŵ":{"ha":1196,"x_min":31,"x_max":1165,"o":"m 31 718 l 117 718 l 329 121 l 431 382 l 560 718 l 635 718 l 765 382 l 867 121 l 1081 718 l 1165 718 l 906 0 l 828 0 l 704 321 l 597 600 l 367 0 l 289 0 l 31 718 m 565 1047 l 629 1047 l 801 838 l 714 838 l 597 983 l 481 838 l 393 838 l 565 1047 z "},"ẅ":{"ha":1196,"x_min":31,"x_max":1165,"o":"m 31 718 l 117 718 l 329 121 l 431 382 l 560 718 l 635 718 l 765 382 l 867 121 l 1081 718 l 1165 718 l 906 0 l 828 0 l 704 321 l 597 600 l 367 0 l 289 0 l 31 718 m 392 922 q 412 972 392 953 q 463 992 432 992 q 513 972 493 992 q 533 922 533 953 q 514 872 533 892 q 463 851 494 851 q 412 872 432 851 q 392 922 392 892 m 661 922 q 681 972 661 953 q 732 992 701 992 q 783 972 763 992 q 803 922 803 953 q 783 872 803 892 q 732 851 764 851 q 681 872 701 851 q 661 922 661 892 z "},"ẁ":{"ha":1196,"x_min":31,"x_max":1165,"o":"m 31 718 l 117 718 l 329 121 l 431 382 l 560 718 l 635 718 l 765 382 l 867 121 l 1081 718 l 1165 718 l 906 0 l 828 0 l 704 321 l 597 600 l 367 0 l 289 0 l 31 718 m 574 1047 l 650 838 l 574 838 l 488 1047 l 574 1047 z "},"x":{"ha":785,"x_min":56,"x_max":729,"o":"m 339 368 l 74 718 l 169 718 l 315 528 l 392 425 l 468 528 l 614 718 l 711 718 l 446 368 l 729 0 l 631 0 l 474 204 l 393 311 l 311 204 l 154 0 l 56 0 l 339 368 z "},"y":{"ha":774,"x_min":28,"x_max":744,"o":"m 99 -201 l 158 -201 q 241 -192 211 -201 q 290 -160 271 -183 q 329 -90 310 -137 l 369 11 l 28 718 l 118 718 l 288 364 l 411 108 l 514 364 l 660 718 l 744 718 l 401 -121 q 347 -217 376 -183 q 275 -265 317 -251 q 167 -278 233 -278 l 99 -278 l 99 -201 z "},"ý":{"ha":774,"x_min":28,"x_max":744,"o":"m 99 -201 l 158 -201 q 241 -192 211 -201 q 290 -160 271 -183 q 329 -90 310 -137 l 369 11 l 28 718 l 118 718 l 288 364 l 411 108 l 514 364 l 660 718 l 744 718 l 401 -121 q 347 -217 376 -183 q 275 -265 317 -251 q 167 -278 233 -278 l 99 -278 l 99 -201 m 419 1047 l 506 1047 l 418 838 l 343 838 l 419 1047 z "},"ŷ":{"ha":774,"x_min":28,"x_max":744,"o":"m 99 -201 l 158 -201 q 241 -192 211 -201 q 290 -160 271 -183 q 329 -90 310 -137 l 369 11 l 28 718 l 118 718 l 288 364 l 411 108 l 514 364 l 660 718 l 744 718 l 401 -121 q 347 -217 376 -183 q 275 -265 317 -251 q 167 -278 233 -278 l 99 -278 l 99 -201 m 363 1047 l 428 1047 l 599 838 l 511 838 l 396 983 l 279 838 l 192 838 l 363 1047 z "},"ÿ":{"ha":774,"x_min":28,"x_max":744,"o":"m 99 -201 l 158 -201 q 241 -192 211 -201 q 290 -160 271 -183 q 329 -90 310 -137 l 369 11 l 28 718 l 118 718 l 288 364 l 411 108 l 514 364 l 660 718 l 744 718 l 401 -121 q 347 -217 376 -183 q 275 -265 317 -251 q 167 -278 233 -278 l 99 -278 l 99 -201 m 189 922 q 209 972 189 953 q 260 992 229 992 q 311 972 292 992 q 331 922 331 953 q 311 871 331 890 q 260 851 292 851 q 209 872 229 851 q 189 922 189 892 m 460 922 q 480 972 460 953 q 531 992 500 992 q 581 972 561 992 q 601 922 601 953 q 582 872 601 892 q 531 851 563 851 q 480 872 500 851 q 460 922 460 892 z "},"ỳ":{"ha":774,"x_min":28,"x_max":744,"o":"m 99 -201 l 158 -201 q 241 -192 211 -201 q 290 -160 271 -183 q 329 -90 310 -137 l 369 11 l 28 718 l 118 718 l 288 364 l 411 108 l 514 364 l 660 718 l 744 718 l 401 -121 q 347 -217 376 -183 q 275 -265 317 -251 q 167 -278 233 -278 l 99 -278 l 99 -201 m 371 1047 l 447 838 l 372 838 l 285 1047 l 371 1047 z "},"z":{"ha":728,"x_min":74,"x_max":658,"o":"m 74 63 l 540 644 l 90 644 l 90 718 l 649 718 l 649 657 l 185 75 l 658 75 l 658 0 l 74 0 l 74 63 z "},"ź":{"ha":728,"x_min":74,"x_max":658,"o":"m 74 63 l 540 644 l 90 644 l 90 718 l 649 718 l 649 657 l 185 75 l 658 75 l 658 0 l 74 0 l 74 63 m 388 1047 l 475 1047 l 388 838 l 311 838 l 388 1047 z "},"ž":{"ha":728,"x_min":74,"x_max":658,"o":"m 74 63 l 540 644 l 90 644 l 90 718 l 649 718 l 649 657 l 185 75 l 658 75 l 658 0 l 74 0 l 74 63 m 247 1047 l 364 901 l 481 1047 l 568 1047 l 396 838 l 332 838 l 160 1047 l 247 1047 z "},"ż":{"ha":728,"x_min":74,"x_max":658,"o":"m 74 63 l 540 644 l 90 644 l 90 718 l 649 718 l 649 657 l 185 75 l 658 75 l 658 0 l 74 0 l 74 63 m 290 922 q 310 974 290 953 q 364 994 331 994 q 417 974 397 994 q 438 922 438 953 q 417 869 438 890 q 364 849 397 849 q 310 869 331 849 q 290 922 290 890 z "},"ﬁ":{"ha":969,"x_min":49,"x_max":860,"o":"m 746 644 l 293 644 l 293 0 l 213 0 l 213 644 l 49 644 l 49 718 l 213 718 l 213 801 q 457 1046 213 1046 l 561 1046 l 561 969 l 464 969 q 333 928 374 969 q 293 796 293 888 l 293 718 l 826 718 l 826 0 l 746 0 l 746 644 m 711 922 q 732 974 711 953 q 786 994 753 994 q 839 974 818 994 q 860 922 860 953 q 839 869 860 890 q 786 849 818 849 q 732 869 753 849 q 711 922 711 890 z "},"ﬂ":{"ha":947,"x_min":49,"x_max":804,"o":"m 213 801 q 457 1046 213 1046 l 804 1046 l 804 0 l 724 0 l 724 969 l 464 969 q 333 928 374 969 q 293 796 293 888 l 293 718 l 558 718 l 558 644 l 293 644 l 293 0 l 213 0 l 213 644 l 49 644 l 49 718 l 213 718 l 213 801 z "},"ª":{"ha":644,"x_min":88,"x_max":531,"o":"m 274 478 q 139 517 190 478 q 88 622 88 556 q 133 725 88 686 q 254 764 178 764 l 467 764 l 467 786 q 427 888 467 851 q 324 925 388 925 q 233 900 271 925 q 179 832 194 875 l 114 832 q 188 940 132 900 q 324 981 244 981 q 473 928 415 981 q 531 788 531 875 l 531 486 l 478 486 l 472 564 q 391 501 442 524 q 274 478 340 478 m 153 625 q 188 558 153 582 q 281 533 222 533 q 415 578 363 533 q 468 692 468 622 l 468 711 l 260 711 q 182 687 211 711 q 153 625 153 663 z "},"º":{"ha":647,"x_min":72,"x_max":575,"o":"m 324 478 q 195 510 253 478 q 105 599 138 542 q 72 729 72 657 q 105 859 72 801 q 195 949 138 917 q 324 981 253 981 q 452 949 394 981 q 542 859 510 917 q 575 729 575 801 q 542 599 575 657 q 452 510 510 542 q 324 478 394 478 m 138 729 q 190 591 138 644 q 324 538 242 538 q 458 591 406 538 q 511 729 511 644 q 458 867 511 814 q 324 921 406 921 q 190 867 242 921 q 138 729 138 814 z "},"А":{"ha":949,"x_min":31,"x_max":917,"o":"m 433 972 l 514 972 l 917 0 l 828 0 l 726 244 l 221 244 l 121 0 l 31 0 l 433 972 m 694 322 l 474 857 l 254 322 l 694 322 z "},"Б":{"ha":919,"x_min":157,"x_max":831,"o":"m 157 972 l 767 972 l 767 892 l 242 892 l 242 589 l 506 589 q 744 508 657 589 q 831 294 831 428 q 744 81 831 161 q 506 0 657 0 l 157 0 l 157 972 m 500 81 q 681 139 615 81 q 746 294 746 197 q 681 450 746 392 q 500 508 615 508 l 242 508 l 242 81 l 500 81 z "},"В":{"ha":939,"x_min":157,"x_max":849,"o":"m 157 972 l 526 972 q 741 903 661 972 q 821 719 821 835 q 781 583 821 640 q 671 501 742 526 q 802 415 756 476 q 849 265 849 353 q 766 72 849 143 q 542 0 683 0 l 157 0 l 157 972 m 539 79 q 703 129 644 79 q 763 268 763 179 q 703 408 763 358 q 535 457 643 457 l 242 457 l 242 79 l 539 79 m 524 535 q 679 582 624 535 q 735 714 735 629 q 679 845 735 797 q 525 893 624 893 l 242 893 l 242 535 l 524 535 z "},"Г":{"ha":794,"x_min":157,"x_max":744,"o":"m 157 972 l 744 972 l 744 892 l 242 892 l 242 0 l 157 0 l 157 972 z "},"Ѓ":{"ha":794,"x_min":157,"x_max":744,"o":"m 157 972 l 744 972 l 744 892 l 242 892 l 242 0 l 157 0 l 157 972 m 479 1258 l 565 1258 l 468 1069 l 393 1069 l 479 1258 z "},"Ґ":{"ha":794,"x_min":157,"x_max":744,"o":"m 157 972 l 665 972 l 665 1160 l 744 1160 l 744 892 l 242 892 l 242 0 l 157 0 l 157 972 z "},"Д":{"ha":1076,"x_min":28,"x_max":1026,"o":"m 28 82 l 138 82 q 194 149 175 108 q 219 264 213 190 l 279 972 l 879 972 l 879 82 l 1026 82 l 1026 -211 l 944 -211 l 944 0 l 110 0 l 110 -211 l 28 -211 l 28 82 m 794 81 l 794 892 l 356 892 l 301 254 q 283 152 296 193 q 242 81 269 111 l 794 81 z "},"Е":{"ha":846,"x_min":157,"x_max":744,"o":"m 157 972 l 729 972 l 729 893 l 242 893 l 242 535 l 693 535 l 693 457 l 242 457 l 242 79 l 744 79 l 744 0 l 157 0 l 157 972 z "},"Ѐ":{"ha":846,"x_min":157,"x_max":744,"o":"m 157 972 l 729 972 l 729 893 l 242 893 l 242 535 l 693 535 l 693 457 l 242 457 l 242 79 l 744 79 l 744 0 l 157 0 l 157 972 m 401 1258 l 488 1069 l 413 1069 l 315 1258 l 401 1258 z "},"Ё":{"ha":846,"x_min":157,"x_max":744,"o":"m 157 972 l 729 972 l 729 893 l 242 893 l 242 535 l 693 535 l 693 457 l 242 457 l 242 79 l 744 79 l 744 0 l 157 0 l 157 972 m 238 1160 q 258 1210 238 1190 q 308 1229 278 1229 q 359 1210 339 1229 q 379 1160 379 1190 q 360 1109 379 1129 q 308 1089 340 1089 q 258 1109 278 1089 q 238 1160 238 1129 m 508 1160 q 528 1210 508 1190 q 579 1229 547 1229 q 630 1210 610 1229 q 650 1160 650 1190 q 631 1109 650 1129 q 579 1089 611 1089 q 528 1108 547 1089 q 508 1160 508 1128 z "},"Ж":{"ha":1457,"x_min":61,"x_max":1396,"o":"m 553 454 q 429 467 483 454 l 158 0 l 61 0 l 350 499 q 272 565 304 524 q 217 668 240 607 l 100 972 l 189 972 l 293 701 q 384 574 326 613 q 553 535 442 535 l 686 535 l 686 972 l 771 972 l 771 535 l 904 535 q 1072 574 1015 535 q 1164 701 1129 613 l 1268 972 l 1357 972 l 1240 668 q 1107 497 1194 549 l 1396 0 l 1299 0 l 1028 468 q 904 454 976 454 l 771 454 l 771 0 l 686 0 l 686 454 l 553 454 z "},"З":{"ha":897,"x_min":93,"x_max":807,"o":"m 454 -18 q 199 58 296 -18 q 93 272 103 135 l 179 272 q 260 120 186 175 q 454 65 333 65 q 648 119 575 65 q 721 263 721 174 q 651 403 721 350 q 465 456 581 456 l 313 456 l 313 535 l 465 535 q 631 585 569 535 q 692 719 692 635 q 626 857 692 807 q 449 907 561 907 q 266 857 336 907 q 186 718 196 807 l 103 718 q 152 862 107 800 q 274 957 197 924 q 449 990 350 990 q 621 958 546 990 q 737 865 696 925 q 778 725 778 804 q 737 591 778 649 q 622 501 696 533 q 757 407 707 472 q 807 256 807 342 q 764 113 807 175 q 640 16 721 50 q 454 -18 560 -18 z "},"И":{"ha":1068,"x_min":157,"x_max":911,"o":"m 157 972 l 242 972 l 242 144 l 832 972 l 911 972 l 911 0 l 828 0 l 828 832 l 236 0 l 157 0 l 157 972 z "},"Й":{"ha":1068,"x_min":157,"x_max":911,"o":"m 157 972 l 242 972 l 242 144 l 832 972 l 911 972 l 911 0 l 828 0 l 828 832 l 236 0 l 157 0 l 157 972 m 354 1258 l 422 1258 l 422 1236 q 452 1153 422 1183 q 535 1124 482 1124 q 617 1153 588 1124 q 647 1236 647 1183 l 647 1258 l 715 1258 l 715 1232 q 666 1109 715 1156 q 535 1063 617 1063 q 403 1109 453 1063 q 354 1232 354 1156 l 354 1258 z "},"Ѝ":{"ha":1068,"x_min":157,"x_max":911,"o":"m 157 972 l 242 972 l 242 144 l 832 972 l 911 972 l 911 0 l 828 0 l 828 832 l 236 0 l 157 0 l 157 972 m 493 1258 l 579 1069 l 503 1069 l 406 1258 l 493 1258 z "},"К":{"ha":947,"x_min":157,"x_max":888,"o":"m 157 972 l 242 972 l 242 535 l 396 535 q 564 574 507 535 q 656 701 621 613 l 758 972 l 847 972 l 731 668 q 675 565 707 607 q 597 499 643 524 l 888 0 l 790 0 l 519 468 q 396 454 468 454 l 242 454 l 242 0 l 157 0 l 157 972 z "},"Ќ":{"ha":947,"x_min":157,"x_max":888,"o":"m 157 972 l 242 972 l 242 535 l 396 535 q 564 574 507 535 q 656 701 621 613 l 758 972 l 847 972 l 731 668 q 675 565 707 607 q 597 499 643 524 l 888 0 l 790 0 l 519 468 q 396 454 468 454 l 242 454 l 242 0 l 157 0 l 157 972 m 488 1258 l 574 1258 l 476 1069 l 401 1069 l 488 1258 z "},"Л":{"ha":1054,"x_min":28,"x_max":897,"o":"m 28 81 l 71 81 q 174 115 140 81 q 215 231 208 149 l 279 972 l 897 972 l 897 0 l 813 0 l 813 892 l 356 892 l 299 224 q 236 53 289 107 q 78 0 183 0 l 28 0 l 28 81 z "},"М":{"ha":1279,"x_min":157,"x_max":1122,"o":"m 157 972 l 236 972 l 640 364 l 1044 972 l 1122 972 l 1122 0 l 1039 0 l 1039 817 l 675 271 l 606 271 l 242 817 l 242 0 l 157 0 l 157 972 z "},"Н":{"ha":1053,"x_min":157,"x_max":896,"o":"m 811 456 l 242 456 l 242 0 l 157 0 l 157 972 l 242 972 l 242 536 l 811 536 l 811 972 l 896 972 l 896 0 l 811 0 l 811 456 z "},"О":{"ha":1181,"x_min":89,"x_max":1092,"o":"m 590 -18 q 331 46 444 -18 q 153 224 217 110 q 89 486 89 339 q 153 748 89 633 q 331 926 217 863 q 590 990 444 990 q 851 926 738 990 q 1028 748 965 863 q 1092 486 1092 633 q 1028 224 1092 339 q 851 46 965 110 q 590 -18 738 -18 m 175 486 q 228 268 175 364 q 374 119 281 172 q 590 67 468 67 q 807 119 713 67 q 954 267 901 172 q 1007 486 1007 363 q 954 705 1007 610 q 807 853 901 800 q 590 906 713 906 q 374 853 468 906 q 228 705 281 800 q 175 486 175 610 z "},"П":{"ha":1053,"x_min":157,"x_max":896,"o":"m 157 972 l 896 972 l 896 0 l 811 0 l 811 892 l 242 892 l 242 0 l 157 0 l 157 972 z "},"Р":{"ha":889,"x_min":157,"x_max":824,"o":"m 157 972 l 465 972 q 729 888 635 972 q 824 653 824 804 q 729 417 824 501 q 465 333 635 333 l 242 333 l 242 0 l 157 0 l 157 972 m 464 411 q 669 472 600 411 q 739 651 739 532 q 669 831 739 771 q 464 892 600 892 l 242 892 l 242 411 l 464 411 z "},"С":{"ha":1142,"x_min":89,"x_max":1058,"o":"m 582 -18 q 328 47 440 -18 q 152 226 215 111 q 89 486 89 340 q 152 747 89 632 q 328 926 215 861 q 582 990 440 990 q 876 900 749 990 q 1050 657 1003 810 l 961 657 q 818 839 919 772 q 583 906 717 906 q 372 853 465 906 q 227 704 279 800 q 175 486 175 608 q 227 268 175 364 q 372 119 279 172 q 583 67 465 67 q 825 136 721 67 q 969 326 929 206 l 1058 326 q 960 144 1029 222 q 793 24 890 67 q 582 -18 696 -18 z "},"Т":{"ha":860,"x_min":53,"x_max":807,"o":"m 388 892 l 53 892 l 53 972 l 807 972 l 807 892 l 471 892 l 471 0 l 388 0 l 388 892 z "},"У":{"ha":883,"x_min":46,"x_max":854,"o":"m 149 81 l 239 81 q 338 106 301 81 q 406 194 375 131 l 433 253 l 46 972 l 142 972 l 394 503 l 476 347 l 547 508 l 764 972 l 854 972 l 476 158 q 385 37 438 74 q 250 0 332 0 l 149 0 l 149 81 z "},"Ў":{"ha":883,"x_min":46,"x_max":854,"o":"m 149 81 l 239 81 q 338 106 301 81 q 406 194 375 131 l 433 253 l 46 972 l 142 972 l 394 503 l 476 347 l 547 508 l 764 972 l 854 972 l 476 158 q 385 37 438 74 q 250 0 332 0 l 149 0 l 149 81 m 285 1258 l 353 1258 l 353 1236 q 383 1153 353 1183 q 465 1124 413 1124 q 548 1153 518 1124 q 578 1236 578 1183 l 578 1258 l 646 1258 l 646 1232 q 597 1109 646 1156 q 465 1063 547 1063 q 334 1109 383 1063 q 285 1232 285 1156 l 285 1258 z "},"Ф":{"ha":1175,"x_min":85,"x_max":1090,"o":"m 546 58 q 304 114 408 61 q 142 263 200 167 q 85 490 85 360 q 142 713 85 617 q 304 861 200 808 q 546 917 408 914 l 546 1039 l 629 1039 l 629 917 q 871 863 767 915 q 1033 714 975 810 q 1090 490 1090 618 q 1033 263 1090 360 q 871 113 975 167 q 629 58 767 60 l 629 -60 l 546 -60 l 546 58 m 169 490 q 217 306 169 383 q 349 185 264 228 q 547 140 433 143 l 547 835 q 349 791 435 833 q 217 671 264 749 q 169 490 169 593 m 629 140 q 902 238 800 144 q 1004 490 1004 331 q 958 670 1004 593 q 826 790 911 747 q 629 835 740 832 l 629 140 z "},"Х":{"ha":946,"x_min":61,"x_max":885,"o":"m 419 497 l 76 972 l 176 972 l 394 671 l 474 560 l 551 671 l 769 972 l 868 972 l 525 497 l 885 0 l 785 0 l 549 325 l 474 432 l 397 325 l 163 0 l 61 0 l 419 497 z "},"Ч":{"ha":963,"x_min":113,"x_max":806,"o":"m 489 329 q 208 424 303 329 q 113 704 113 518 l 113 972 l 196 972 l 196 707 q 267 481 196 551 q 492 410 338 410 l 722 410 l 722 972 l 806 972 l 806 0 l 722 0 l 722 329 l 489 329 z "},"Ц":{"ha":1093,"x_min":157,"x_max":1043,"o":"m 961 0 l 157 0 l 157 972 l 242 972 l 242 81 l 811 81 l 811 972 l 896 972 l 896 82 l 1043 82 l 1043 -211 l 961 -211 l 961 0 z "},"Ш":{"ha":1653,"x_min":157,"x_max":1496,"o":"m 157 972 l 242 972 l 242 81 l 785 81 l 785 972 l 868 972 l 868 81 l 1413 81 l 1413 972 l 1496 972 l 1496 0 l 157 0 l 157 972 z "},"Щ":{"ha":1693,"x_min":157,"x_max":1643,"o":"m 1561 0 l 157 0 l 157 972 l 242 972 l 242 81 l 785 81 l 785 972 l 868 972 l 868 81 l 1413 81 l 1413 972 l 1496 972 l 1496 82 l 1643 82 l 1643 -211 l 1561 -211 l 1561 0 z "},"Џ":{"ha":1053,"x_min":157,"x_max":896,"o":"m 157 972 l 242 972 l 242 81 l 811 81 l 811 972 l 896 972 l 896 0 l 568 0 l 568 -211 l 485 -211 l 485 0 l 157 0 l 157 972 z "},"Ь":{"ha":889,"x_min":157,"x_max":824,"o":"m 157 972 l 242 972 l 242 614 l 492 614 q 734 531 644 614 q 824 307 824 447 q 783 144 824 214 q 668 38 743 75 q 492 0 593 0 l 157 0 l 157 972 m 486 81 q 671 142 604 81 q 738 307 738 203 q 671 473 738 413 q 486 533 604 533 l 242 533 l 242 81 l 486 81 z "},"Ы":{"ha":1288,"x_min":157,"x_max":1131,"o":"m 157 972 l 242 972 l 242 614 l 492 614 q 734 531 644 614 q 824 307 824 447 q 783 144 824 214 q 668 38 743 75 q 492 0 593 0 l 157 0 l 157 972 m 486 81 q 671 142 604 81 q 738 307 738 203 q 671 473 738 413 q 486 533 604 533 l 242 533 l 242 81 l 486 81 m 1046 972 l 1131 972 l 1131 0 l 1046 0 l 1046 972 z "},"Ъ":{"ha":1058,"x_min":28,"x_max":993,"o":"m 326 892 l 28 892 l 28 972 l 410 972 l 410 614 l 661 614 q 903 531 814 614 q 993 307 993 447 q 953 144 993 214 q 838 38 913 75 q 661 0 763 0 l 326 0 l 326 892 m 656 81 q 840 142 774 81 q 907 307 907 203 q 840 473 907 413 q 656 533 774 533 l 410 533 l 410 81 l 656 81 z "},"Љ":{"ha":1526,"x_min":28,"x_max":1461,"o":"m 28 81 l 71 81 q 174 115 140 81 q 215 231 208 149 l 279 972 l 888 972 l 888 610 l 1129 610 q 1304 572 1229 610 q 1420 466 1379 535 q 1461 306 1461 397 q 1371 83 1461 165 q 1129 0 1281 0 l 804 0 l 804 892 l 356 892 l 300 224 q 237 54 290 108 q 78 0 183 0 l 28 0 l 28 81 m 1125 81 q 1308 140 1242 81 q 1375 306 1375 200 q 1308 469 1375 410 q 1125 529 1240 529 l 888 529 l 888 81 l 1125 81 z "},"Њ":{"ha":1535,"x_min":157,"x_max":1469,"o":"m 811 475 l 242 475 l 242 0 l 157 0 l 157 972 l 242 972 l 242 556 l 811 556 l 811 972 l 896 972 l 896 569 l 1150 569 q 1318 534 1246 569 q 1430 434 1390 499 q 1469 285 1469 369 q 1430 135 1469 200 q 1318 35 1390 71 q 1150 0 1246 0 l 811 0 l 811 475 m 1144 81 q 1319 135 1256 81 q 1383 285 1383 190 q 1319 434 1383 379 q 1144 489 1256 489 l 896 489 l 896 81 l 1144 81 z "},"Ѕ":{"ha":913,"x_min":97,"x_max":814,"o":"m 469 -18 q 276 19 360 -18 q 147 126 193 57 q 97 289 100 196 l 181 289 q 264 122 186 182 q 469 63 342 63 q 658 112 589 63 q 728 246 728 161 q 663 370 728 322 q 453 450 599 418 q 192 558 272 492 q 113 732 113 624 q 202 920 113 850 q 446 990 292 990 q 699 913 607 990 q 797 694 792 835 l 714 694 q 638 853 708 797 q 446 910 568 910 q 263 861 329 910 q 197 732 197 813 q 260 610 197 658 q 474 529 324 563 q 735 420 656 488 q 814 247 814 353 q 721 53 814 125 q 469 -18 628 -18 z "},"Є":{"ha":1142,"x_min":89,"x_max":1058,"o":"m 582 -18 q 328 47 440 -18 q 152 226 215 111 q 89 486 89 340 q 152 747 89 632 q 328 926 215 861 q 582 990 440 990 q 876 900 749 990 q 1050 657 1003 810 l 961 657 q 818 839 919 772 q 583 906 717 906 q 383 858 472 906 q 240 726 294 811 q 176 528 185 640 l 708 528 l 708 449 l 176 449 q 239 249 185 336 q 383 115 293 163 q 583 67 472 67 q 825 136 721 67 q 969 326 929 206 l 1058 326 q 960 144 1029 222 q 793 24 890 67 q 582 -18 696 -18 z "},"Э":{"ha":1142,"x_min":83,"x_max":1053,"o":"m 561 -18 q 349 24 447 -18 q 182 144 251 67 q 83 326 113 222 l 172 326 q 317 136 214 206 q 558 67 421 67 q 759 115 669 67 q 903 249 849 163 q 965 449 957 336 l 433 449 l 433 528 l 965 528 q 902 726 957 640 q 758 858 847 811 q 558 906 669 906 q 325 839 426 906 q 181 657 224 772 l 92 657 q 266 900 139 810 q 561 990 393 990 q 815 926 703 990 q 990 747 926 861 q 1053 486 1053 632 q 990 226 1053 340 q 815 47 926 111 q 561 -18 703 -18 z "},"І":{"ha":399,"x_min":157,"x_max":242,"o":"m 157 972 l 242 972 l 242 0 l 157 0 l 157 972 z "},"Ї":{"ha":399,"x_min":-7,"x_max":406,"o":"m 157 972 l 242 972 l 242 0 l 157 0 l 157 972 m -7 1160 q 13 1210 -7 1190 q 64 1229 33 1229 q 115 1210 94 1229 q 135 1160 135 1190 q 115 1109 135 1129 q 64 1089 96 1089 q 13 1109 33 1089 q -7 1160 -7 1129 m 264 1160 q 283 1210 264 1190 q 335 1229 303 1229 q 385 1210 365 1229 q 406 1160 406 1190 q 386 1109 406 1129 q 335 1089 367 1089 q 283 1108 303 1089 q 264 1160 264 1128 z "},"Ј":{"ha":665,"x_min":65,"x_max":511,"o":"m 65 81 l 206 81 q 374 138 321 81 q 428 307 428 196 l 428 972 l 511 972 l 511 303 q 434 79 511 158 q 206 0 357 0 l 65 0 l 65 81 z "},"Ћ":{"ha":1138,"x_min":53,"x_max":1025,"o":"m 942 253 q 881 459 942 399 q 676 519 819 519 l 471 519 l 471 0 l 388 0 l 388 892 l 53 892 l 53 972 l 844 972 l 844 892 l 471 892 l 471 600 l 681 600 q 941 517 857 600 q 1025 256 1025 433 l 1025 0 l 942 0 l 942 253 z "},"Ю":{"ha":1547,"x_min":157,"x_max":1458,"o":"m 961 -18 q 713 41 822 -18 q 538 206 603 100 q 467 451 474 313 l 242 451 l 242 0 l 157 0 l 157 972 l 242 972 l 242 532 l 467 532 q 541 771 476 667 q 715 933 606 875 q 961 990 824 990 q 1220 926 1107 990 q 1396 748 1333 863 q 1458 486 1458 633 q 1396 224 1458 339 q 1220 46 1333 110 q 961 -18 1107 -18 m 549 486 q 601 267 549 363 q 747 119 653 172 q 961 67 840 67 q 1175 119 1082 67 q 1320 267 1268 172 q 1372 486 1372 363 q 1321 705 1372 610 q 1176 853 1269 800 q 961 906 1082 906 q 747 853 840 906 q 601 705 653 800 q 549 486 549 610 z "},"Я":{"ha":946,"x_min":93,"x_max":789,"o":"m 704 365 l 446 365 l 192 0 l 93 0 l 353 372 q 172 471 239 392 q 106 669 106 550 q 193 890 106 808 q 428 972 281 972 l 789 972 l 789 0 l 704 0 l 704 365 m 193 669 q 258 506 193 565 q 436 446 322 446 l 704 446 l 704 892 l 436 892 q 258 833 322 892 q 193 669 193 774 z "},"Ђ":{"ha":1138,"x_min":53,"x_max":1025,"o":"m 743 -201 l 807 -201 q 912 -170 882 -201 q 942 -56 942 -139 l 942 253 q 881 459 942 399 q 676 519 819 519 l 471 519 l 471 0 l 388 0 l 388 892 l 53 892 l 53 972 l 844 972 l 844 892 l 471 892 l 471 600 l 681 600 q 941 517 857 600 q 1025 256 1025 433 l 1025 -58 q 976 -226 1025 -174 q 808 -278 928 -278 l 743 -278 l 743 -201 z "},"Ӕ":{"ha":1353,"x_min":28,"x_max":1253,"o":"m 672 972 l 1238 972 l 1238 893 l 782 893 l 782 535 l 1201 535 l 1201 457 l 782 457 l 782 79 l 1253 79 l 1253 0 l 697 0 l 697 243 l 286 243 l 126 0 l 28 0 l 672 972 m 697 322 l 697 868 l 338 322 l 697 322 z "},"а":{"ha":867,"x_min":97,"x_max":739,"o":"m 368 -11 q 170 47 243 -11 q 97 203 97 104 q 164 355 97 299 q 342 411 231 411 l 658 411 l 658 463 q 598 607 658 553 q 438 661 538 661 q 297 623 357 661 q 215 519 238 585 l 133 519 q 241 678 160 619 q 436 736 322 736 q 594 702 525 736 q 701 607 663 668 q 739 467 739 546 l 739 0 l 672 0 l 664 124 q 540 24 617 58 q 368 -11 464 -11 m 178 204 q 230 100 178 139 q 371 61 282 61 q 519 93 453 61 q 622 182 585 125 q 660 310 660 239 l 660 340 l 344 340 q 224 303 271 340 q 178 204 178 265 z "},"б":{"ha":954,"x_min":114,"x_max":874,"o":"m 492 -18 q 296 30 382 -18 q 162 164 210 78 q 114 360 114 250 l 114 456 q 147 727 114 619 q 253 898 181 835 q 444 990 325 961 l 813 1078 l 813 992 l 464 911 q 274 800 339 882 q 200 572 210 718 q 326 688 247 647 q 504 729 406 729 q 695 681 611 729 q 826 549 779 633 q 874 356 874 464 q 825 162 874 247 q 690 29 776 76 q 492 -18 603 -18 m 194 356 q 232 202 194 269 q 338 97 269 135 q 493 60 406 60 q 649 97 581 60 q 755 202 717 135 q 793 356 793 269 q 755 510 793 443 q 649 615 717 578 q 493 653 581 653 q 338 615 406 653 q 232 510 269 578 q 194 356 194 443 z "},"в":{"ha":807,"x_min":143,"x_max":725,"o":"m 143 718 l 483 718 q 645 665 583 718 q 707 528 707 613 q 678 428 707 472 q 599 365 649 385 q 692 298 658 343 q 725 192 725 253 q 662 53 725 106 q 494 0 599 0 l 143 0 l 143 718 m 494 74 q 603 108 564 74 q 643 201 643 142 q 603 294 643 260 q 494 328 563 328 l 224 328 l 224 74 l 494 74 m 490 399 q 588 433 550 399 q 625 522 625 467 q 588 612 625 578 q 490 646 550 646 l 224 646 l 224 399 l 490 399 z "},"г":{"ha":642,"x_min":143,"x_max":597,"o":"m 143 718 l 597 718 l 597 643 l 224 643 l 224 0 l 143 0 l 143 718 z "},"ѓ":{"ha":642,"x_min":143,"x_max":597,"o":"m 143 718 l 597 718 l 597 643 l 224 643 l 224 0 l 143 0 l 143 718 m 388 1047 l 475 1047 l 388 838 l 311 838 l 388 1047 z "},"ґ":{"ha":644,"x_min":143,"x_max":600,"o":"m 143 718 l 521 718 l 521 896 l 600 896 l 600 643 l 224 643 l 224 0 l 143 0 l 143 718 z "},"д":{"ha":914,"x_min":25,"x_max":868,"o":"m 25 76 l 113 76 q 160 125 144 92 q 182 218 176 158 l 222 718 l 742 718 l 742 76 l 868 76 l 868 -197 l 789 -197 l 789 0 l 103 0 l 103 -197 l 25 -197 l 25 76 m 661 75 l 661 643 l 296 643 l 261 208 q 219 75 253 118 l 661 75 z "},"е":{"ha":893,"x_min":81,"x_max":818,"o":"m 447 -18 q 256 30 339 -18 q 126 163 172 78 q 81 360 81 249 q 127 555 81 469 q 257 688 174 640 q 449 736 340 736 q 644 685 560 736 q 774 540 729 633 q 815 326 818 447 l 163 326 q 251 131 174 204 q 447 58 328 58 q 601 97 535 58 q 704 206 668 136 l 794 204 q 660 42 753 101 q 447 -18 568 -18 m 736 397 q 644 590 722 519 q 449 660 567 660 q 251 588 329 660 q 163 397 174 517 l 736 397 z "},"ѐ":{"ha":893,"x_min":81,"x_max":818,"o":"m 447 -18 q 256 30 339 -18 q 126 163 172 78 q 81 360 81 249 q 127 555 81 469 q 257 688 174 640 q 449 736 340 736 q 644 685 560 736 q 774 540 729 633 q 815 326 818 447 l 163 326 q 251 131 174 204 q 447 58 328 58 q 601 97 535 58 q 704 206 668 136 l 794 204 q 660 42 753 101 q 447 -18 568 -18 m 736 397 q 644 590 722 519 q 449 660 567 660 q 251 588 329 660 q 163 397 174 517 l 736 397 m 425 1047 l 501 838 l 425 838 l 338 1047 l 425 1047 z "},"ё":{"ha":893,"x_min":81,"x_max":818,"o":"m 447 -18 q 256 30 339 -18 q 126 163 172 78 q 81 360 81 249 q 127 555 81 469 q 257 688 174 640 q 449 736 340 736 q 644 685 560 736 q 774 540 729 633 q 815 326 818 447 l 163 326 q 251 131 174 204 q 447 58 328 58 q 601 97 535 58 q 704 206 668 136 l 794 204 q 660 42 753 101 q 447 -18 568 -18 m 736 397 q 644 590 722 519 q 449 660 567 660 q 251 588 329 660 q 163 397 174 517 l 736 397 m 243 922 q 263 972 243 953 q 314 992 283 992 q 365 972 344 992 q 385 922 385 953 q 365 872 385 892 q 314 851 346 851 q 263 872 283 851 q 243 922 243 892 m 513 922 q 533 972 513 953 q 583 992 553 992 q 634 972 614 992 q 654 922 654 953 q 635 872 654 892 q 583 851 615 851 q 533 872 553 851 q 513 922 513 892 z "},"ж":{"ha":1213,"x_min":56,"x_max":1158,"o":"m 478 328 q 365 338 410 328 l 151 0 l 56 0 l 288 365 q 216 427 246 388 q 163 528 186 467 l 90 718 l 176 718 l 236 558 q 322 435 271 468 q 474 403 372 403 l 567 403 l 567 718 l 647 718 l 647 403 l 739 403 q 851 416 808 403 q 924 463 894 429 q 976 558 953 496 l 1036 718 l 1124 718 l 1050 528 q 997 427 1026 467 q 925 365 967 388 l 1158 0 l 1061 0 l 847 338 q 736 328 803 328 l 647 328 l 647 0 l 567 0 l 567 328 l 478 328 z "},"з":{"ha":756,"x_min":85,"x_max":674,"o":"m 383 -18 q 172 44 251 -18 q 85 213 92 106 l 165 213 q 228 98 174 138 q 383 58 283 58 q 535 95 479 58 q 590 194 590 132 q 540 290 590 254 q 407 326 490 326 l 275 326 l 275 401 l 407 401 q 522 436 479 401 q 565 529 565 471 q 516 625 565 590 q 382 660 467 660 q 237 622 292 660 q 175 518 182 583 l 94 518 q 180 676 101 617 q 382 736 258 736 q 574 681 501 736 q 647 536 647 626 q 618 436 647 481 q 539 368 589 392 q 637 298 600 346 q 674 189 674 250 q 594 39 674 96 q 383 -18 514 -18 z "},"и":{"ha":935,"x_min":143,"x_max":792,"o":"m 143 718 l 224 718 l 224 125 l 714 718 l 792 718 l 792 0 l 711 0 l 711 596 l 219 0 l 143 0 l 143 718 z "},"й":{"ha":935,"x_min":143,"x_max":792,"o":"m 143 718 l 224 718 l 224 125 l 714 718 l 792 718 l 792 0 l 711 0 l 711 596 l 219 0 l 143 0 l 143 718 m 275 1047 l 343 1047 l 343 1017 q 376 924 343 958 q 467 890 410 890 q 558 924 525 890 q 592 1017 592 958 l 592 1047 l 660 1047 l 660 1013 q 607 880 660 931 q 467 829 554 829 q 328 880 381 829 q 275 1013 275 931 l 275 1047 z "},"ѝ":{"ha":935,"x_min":143,"x_max":792,"o":"m 143 718 l 224 718 l 224 125 l 714 718 l 792 718 l 792 0 l 711 0 l 711 596 l 219 0 l 143 0 l 143 718 m 443 1047 l 519 838 l 444 838 l 357 1047 l 443 1047 z "},"к":{"ha":804,"x_min":143,"x_max":749,"o":"m 143 718 l 224 718 l 224 403 l 329 403 q 482 435 431 403 q 567 558 533 468 l 628 718 l 714 718 l 642 528 q 588 427 618 467 q 517 365 558 388 l 749 0 l 653 0 l 439 338 q 326 328 394 328 l 224 328 l 224 0 l 143 0 l 143 718 z "},"ќ":{"ha":804,"x_min":143,"x_max":749,"o":"m 143 718 l 224 718 l 224 403 l 329 403 q 482 435 431 403 q 567 558 533 468 l 628 718 l 714 718 l 642 528 q 588 427 618 467 q 517 365 558 388 l 749 0 l 653 0 l 439 338 q 326 328 394 328 l 224 328 l 224 0 l 143 0 l 143 718 m 450 1047 l 536 1047 l 449 838 l 374 838 l 450 1047 z "},"л":{"ha":889,"x_min":25,"x_max":746,"o":"m 25 76 l 61 76 q 144 106 117 76 q 175 201 171 135 l 217 718 l 746 718 l 746 0 l 665 0 l 665 643 l 292 643 l 256 194 q 201 48 247 96 q 65 0 154 0 l 25 0 l 25 76 z "},"м":{"ha":1053,"x_min":143,"x_max":910,"o":"m 143 718 l 218 718 l 526 292 l 833 718 l 910 718 l 910 0 l 829 0 l 829 583 l 556 203 l 499 203 l 224 583 l 224 0 l 143 0 l 143 718 z "},"н":{"ha":919,"x_min":143,"x_max":776,"o":"m 696 325 l 224 325 l 224 0 l 143 0 l 143 718 l 224 718 l 224 401 l 696 401 l 696 718 l 776 718 l 776 0 l 696 0 l 696 325 z "},"о":{"ha":915,"x_min":81,"x_max":835,"o":"m 458 -18 q 263 30 349 -18 q 128 164 176 78 q 81 360 81 250 q 128 555 81 469 q 263 688 176 640 q 458 736 349 736 q 653 688 568 736 q 787 555 739 640 q 835 360 835 469 q 787 164 835 250 q 653 30 739 78 q 458 -18 568 -18 m 161 360 q 199 204 161 272 q 303 98 236 136 q 458 60 371 60 q 612 98 544 60 q 717 204 679 136 q 754 360 754 272 q 717 515 754 447 q 612 621 679 583 q 458 658 544 658 q 303 621 371 658 q 199 515 236 583 q 161 360 161 447 z "},"п":{"ha":919,"x_min":143,"x_max":776,"o":"m 143 718 l 776 718 l 776 0 l 696 0 l 696 643 l 224 643 l 224 0 l 143 0 l 143 718 z "},"р":{"ha":975,"x_min":143,"x_max":894,"o":"m 526 -18 q 351 23 429 -18 q 224 136 272 64 l 224 -278 l 143 -278 l 143 718 l 211 718 l 219 575 q 347 694 267 651 q 526 736 426 736 q 717 688 633 736 q 848 553 801 639 q 894 360 894 468 q 848 165 894 251 q 717 31 801 79 q 526 -18 633 -18 m 221 360 q 258 204 221 272 q 363 98 296 136 q 518 60 431 60 q 672 98 606 60 q 776 204 739 136 q 814 360 814 272 q 776 514 814 446 q 672 620 739 582 q 518 658 606 658 q 363 620 431 658 q 258 514 296 582 q 221 360 221 446 z "},"с":{"ha":883,"x_min":81,"x_max":807,"o":"m 447 -18 q 257 31 340 -18 q 127 165 174 79 q 81 360 81 250 q 127 555 81 469 q 257 688 174 640 q 447 736 340 736 q 672 666 575 736 q 800 479 769 596 l 718 479 q 612 611 683 564 q 447 658 540 658 q 299 621 364 658 q 197 515 233 583 q 161 360 161 447 q 197 204 161 272 q 299 98 233 136 q 447 60 364 60 q 619 111 546 60 q 722 251 692 163 l 807 251 q 675 53 771 125 q 447 -18 579 -18 z "},"т":{"ha":739,"x_min":49,"x_max":690,"o":"m 329 643 l 49 643 l 49 718 l 690 718 l 690 643 l 410 643 l 410 0 l 329 0 l 329 643 z "},"у":{"ha":774,"x_min":28,"x_max":744,"o":"m 99 -201 l 158 -201 q 241 -192 211 -201 q 290 -160 271 -183 q 329 -90 310 -137 l 369 11 l 28 718 l 118 718 l 288 364 l 411 108 l 514 364 l 660 718 l 744 718 l 401 -121 q 347 -217 376 -183 q 275 -265 317 -251 q 167 -278 233 -278 l 99 -278 l 99 -201 z "},"ў":{"ha":774,"x_min":28,"x_max":744,"o":"m 99 -201 l 158 -201 q 241 -192 211 -201 q 290 -160 271 -183 q 329 -90 310 -137 l 369 11 l 28 718 l 118 718 l 288 364 l 411 108 l 514 364 l 660 718 l 744 718 l 401 -121 q 347 -217 376 -183 q 275 -265 317 -251 q 167 -278 233 -278 l 99 -278 l 99 -201 m 203 1047 l 271 1047 l 271 1017 q 304 924 271 958 q 394 890 338 890 q 486 924 453 890 q 519 1017 519 958 l 519 1047 l 588 1047 l 588 1013 q 535 880 588 931 q 394 829 482 829 q 256 880 308 829 q 203 1013 203 931 l 203 1047 z "},"ф":{"ha":1024,"x_min":81,"x_max":943,"o":"m 471 -18 q 267 32 356 -17 q 130 165 179 81 q 81 360 81 250 q 130 554 81 469 q 267 687 179 639 q 471 736 356 735 l 471 1028 l 551 1028 l 551 736 q 756 687 667 735 q 894 554 844 639 q 943 360 943 469 q 894 165 943 250 q 756 31 844 79 q 551 -18 667 -17 l 551 -278 l 471 -278 l 471 -18 m 161 360 q 199 204 161 272 q 308 99 238 136 q 472 60 379 61 l 472 658 q 308 619 379 657 q 199 515 238 582 q 161 360 161 447 m 551 60 q 778 144 693 63 q 863 360 863 226 q 778 574 863 493 q 551 658 693 656 l 551 60 z "},"х":{"ha":785,"x_min":56,"x_max":729,"o":"m 339 368 l 74 718 l 169 718 l 315 528 l 392 425 l 468 528 l 614 718 l 711 718 l 446 368 l 729 0 l 631 0 l 474 204 l 393 311 l 311 204 l 154 0 l 56 0 l 339 368 z "},"ч":{"ha":826,"x_min":101,"x_max":683,"o":"m 397 233 q 174 306 247 233 q 101 528 101 379 l 101 718 l 182 718 l 182 529 q 233 360 182 410 q 407 310 285 310 l 603 310 l 603 718 l 683 718 l 683 0 l 603 0 l 603 233 l 397 233 z "},"ц":{"ha":949,"x_min":143,"x_max":904,"o":"m 825 0 l 143 0 l 143 718 l 224 718 l 224 76 l 696 76 l 696 718 l 776 718 l 776 76 l 904 76 l 904 -197 l 825 -197 l 825 0 z "},"ш":{"ha":1393,"x_min":143,"x_max":1250,"o":"m 143 718 l 224 718 l 224 76 l 657 76 l 657 718 l 736 718 l 736 76 l 1169 76 l 1169 718 l 1250 718 l 1250 0 l 143 0 l 143 718 z "},"щ":{"ha":1422,"x_min":143,"x_max":1376,"o":"m 1297 0 l 143 0 l 143 718 l 224 718 l 224 76 l 657 76 l 657 718 l 736 718 l 736 76 l 1169 76 l 1169 718 l 1250 718 l 1250 76 l 1376 76 l 1376 -197 l 1297 -197 l 1297 0 z "},"џ":{"ha":921,"x_min":143,"x_max":778,"o":"m 143 718 l 224 718 l 224 76 l 697 76 l 697 718 l 778 718 l 778 0 l 500 0 l 500 -197 l 421 -197 l 421 0 l 143 0 l 143 718 z "},"ь":{"ha":769,"x_min":143,"x_max":711,"o":"m 143 718 l 224 718 l 224 482 l 450 482 q 640 417 569 482 q 711 242 711 351 q 640 65 711 131 q 450 0 569 0 l 143 0 l 143 718 m 449 76 q 582 121 533 76 q 631 242 631 165 q 582 363 631 318 q 449 407 533 407 l 224 407 l 224 76 l 449 76 z "},"ы":{"ha":1136,"x_min":143,"x_max":993,"o":"m 143 718 l 224 718 l 224 482 l 450 482 q 640 417 569 482 q 711 242 711 351 q 640 65 711 131 q 450 0 569 0 l 143 0 l 143 718 m 449 76 q 582 121 533 76 q 631 242 631 165 q 582 363 631 318 q 449 407 533 407 l 224 407 l 224 76 l 449 76 m 913 718 l 993 718 l 993 0 l 913 0 l 913 718 z "},"ъ":{"ha":901,"x_min":25,"x_max":843,"o":"m 274 643 l 25 643 l 25 718 l 354 718 l 354 482 l 581 482 q 772 417 700 482 q 843 242 843 351 q 772 66 843 132 q 581 0 700 0 l 274 0 l 274 643 m 579 76 q 713 121 664 76 q 763 242 763 165 q 713 363 763 318 q 579 407 664 407 l 354 407 l 354 76 l 579 76 z "},"љ":{"ha":1275,"x_min":25,"x_max":1217,"o":"m 25 76 l 61 76 q 144 106 117 76 q 175 201 171 135 l 217 718 l 732 718 l 732 482 l 954 482 q 1145 417 1074 482 q 1217 242 1217 351 q 1145 66 1217 132 q 954 0 1074 0 l 651 0 l 651 643 l 290 643 l 256 194 q 201 48 247 96 q 65 0 154 0 l 25 0 l 25 76 m 953 76 q 1087 121 1038 76 q 1136 242 1136 165 q 1087 363 1136 318 q 953 407 1038 407 l 732 407 l 732 76 l 953 76 z "},"њ":{"ha":1311,"x_min":143,"x_max":1253,"o":"m 696 347 l 224 347 l 224 0 l 143 0 l 143 718 l 224 718 l 224 424 l 696 424 l 696 718 l 776 718 l 776 433 l 1008 433 q 1186 374 1119 433 q 1253 217 1253 315 q 1186 59 1253 118 q 1008 0 1119 0 l 696 0 l 696 347 m 1007 76 q 1128 114 1083 76 q 1172 217 1172 151 q 1128 319 1172 282 q 1007 357 1083 357 l 776 357 l 776 76 l 1007 76 z "},"ѕ":{"ha":764,"x_min":88,"x_max":674,"o":"m 390 -18 q 173 45 254 -18 q 88 217 92 108 l 167 217 q 231 98 174 140 q 392 56 289 56 q 540 90 486 56 q 594 183 594 124 q 541 276 594 240 q 374 331 488 311 q 167 405 233 354 q 101 539 101 456 q 174 683 101 631 q 374 736 247 736 q 577 678 501 736 q 661 518 653 621 l 581 518 q 522 626 575 589 q 374 664 468 664 q 233 630 285 664 q 182 538 182 596 q 232 452 182 485 q 401 397 282 419 q 674 182 674 346 q 597 37 674 92 q 390 -18 519 -18 z "},"є":{"ha":883,"x_min":81,"x_max":807,"o":"m 447 -18 q 257 31 340 -18 q 127 165 174 79 q 81 360 81 250 q 127 555 81 469 q 257 688 174 640 q 447 736 340 736 q 672 666 575 736 q 800 479 769 596 l 718 479 q 612 611 683 564 q 447 658 540 658 q 253 587 331 658 q 163 399 175 515 l 532 399 l 532 326 l 163 326 q 251 133 174 207 q 447 60 329 60 q 619 111 546 60 q 722 251 692 163 l 807 251 q 675 53 771 125 q 447 -18 579 -18 z "},"э":{"ha":883,"x_min":76,"x_max":803,"o":"m 436 -18 q 208 53 304 -18 q 76 251 113 125 l 161 251 q 264 111 190 163 q 436 60 338 60 q 632 133 554 60 q 721 326 710 207 l 351 326 l 351 399 l 721 399 q 631 587 708 515 q 436 658 553 658 q 272 612 343 658 q 165 479 201 565 l 83 479 q 211 666 115 596 q 436 736 307 736 q 626 688 543 736 q 756 555 710 640 q 803 360 803 469 q 756 165 803 250 q 626 31 710 79 q 436 -18 543 -18 z "},"і":{"ha":367,"x_min":110,"x_max":257,"o":"m 143 718 l 224 718 l 224 0 l 143 0 l 143 718 m 110 922 q 130 974 110 953 q 183 994 150 994 q 237 974 217 994 q 257 922 257 953 q 237 869 257 890 q 183 849 217 849 q 130 869 150 849 q 110 922 110 890 z "},"ї":{"ha":367,"x_min":-10,"x_max":376,"o":"m 143 718 l 224 718 l 224 0 l 143 0 l 143 718 m -10 922 q 9 972 -10 953 q 58 992 28 992 q 108 972 89 992 q 126 922 126 953 q 108 871 126 890 q 58 851 89 851 q 9 871 28 851 q -10 922 -10 890 m 240 922 q 259 972 240 953 q 308 992 278 992 q 358 972 339 992 q 376 922 376 953 q 358 871 376 890 q 308 851 339 851 q 259 871 278 851 q 240 922 240 890 z "},"ј":{"ha":368,"x_min":-61,"x_max":258,"o":"m -61 -206 l 7 -206 q 115 -174 85 -206 q 144 -53 144 -142 l 144 718 l 225 718 l 225 -54 q 176 -228 225 -175 q 11 -282 128 -282 l -61 -282 l -61 -206 m 111 922 q 131 974 111 953 q 185 994 151 994 q 238 974 218 994 q 258 922 258 953 q 238 869 258 890 q 185 849 218 849 q 131 869 151 849 q 111 922 111 890 z "},"ћ":{"ha":953,"x_min":14,"x_max":825,"o":"m 175 857 l 14 857 l 14 926 l 175 926 l 175 1028 l 256 1028 l 256 926 l 538 926 l 538 857 l 256 857 l 256 583 q 367 694 297 656 q 524 732 438 732 q 744 642 664 732 q 825 396 825 553 l 825 0 l 744 0 l 744 389 q 683 584 744 514 q 514 654 621 654 q 380 619 439 654 q 288 519 321 583 q 256 371 256 456 l 256 0 l 175 0 l 175 857 z "},"ю":{"ha":1240,"x_min":143,"x_max":1160,"o":"m 143 718 l 224 718 l 224 401 l 410 401 q 469 575 419 499 q 601 694 519 651 q 783 736 682 736 q 978 688 892 736 q 1112 554 1064 640 q 1160 360 1160 468 q 1112 165 1160 251 q 978 31 1064 79 q 783 -18 892 -18 q 599 25 681 -18 q 467 147 517 68 q 410 325 417 225 l 224 325 l 224 0 l 143 0 l 143 718 m 488 360 q 525 204 488 272 q 630 98 563 136 q 783 60 697 60 q 937 98 869 60 q 1042 204 1004 136 q 1079 360 1079 272 q 1042 515 1079 447 q 937 621 1004 583 q 783 658 869 658 q 630 621 697 658 q 525 515 563 583 q 488 360 488 447 z "},"я":{"ha":804,"x_min":83,"x_max":661,"o":"m 581 254 l 363 254 l 181 0 l 83 0 l 274 263 q 142 341 190 282 q 93 486 93 400 q 165 655 93 592 q 351 718 236 718 l 661 718 l 661 0 l 581 0 l 581 254 m 174 486 q 222 371 174 413 q 353 329 271 329 l 582 329 l 582 643 l 353 643 q 222 602 271 643 q 174 486 174 561 z "},"ђ":{"ha":953,"x_min":14,"x_max":825,"o":"m 553 -206 l 607 -206 q 715 -174 685 -206 q 744 -53 744 -142 l 744 389 q 683 584 744 514 q 514 654 621 654 q 380 619 439 654 q 288 519 321 583 q 256 371 256 456 l 256 0 l 175 0 l 175 857 l 14 857 l 14 926 l 175 926 l 175 1028 l 256 1028 l 256 926 l 538 926 l 538 857 l 256 857 l 256 582 q 367 693 296 654 q 524 732 439 732 q 744 642 664 732 q 825 396 825 553 l 825 -54 q 777 -228 825 -175 q 611 -282 729 -282 l 553 -282 l 553 -206 z "},"ӕ":{"ha":1463,"x_min":97,"x_max":1386,"o":"m 1032 -18 q 844 33 925 -18 q 721 174 763 83 q 590 33 679 85 q 382 -18 500 -18 q 175 42 253 -18 q 97 197 97 101 q 167 347 97 290 q 350 404 238 404 l 678 404 l 678 461 q 614 606 678 550 q 449 661 550 661 q 302 623 365 661 q 218 521 239 585 l 136 521 q 246 678 161 619 q 447 736 331 736 q 624 690 549 736 q 731 564 699 644 q 853 691 775 646 q 1032 736 931 736 q 1219 685 1139 736 q 1343 543 1300 635 q 1386 332 1386 451 l 757 332 q 838 133 764 207 q 1029 58 913 58 q 1176 98 1111 58 q 1275 207 1240 138 l 1365 207 q 1237 42 1325 103 q 1032 -18 1149 -18 m 178 199 q 235 97 178 135 q 385 58 292 58 q 535 90 468 58 q 640 177 601 121 q 678 303 678 233 l 678 333 l 353 333 q 226 296 275 333 q 178 199 178 258 m 1306 404 q 1215 591 1290 522 q 1029 660 1140 660 q 843 590 917 660 q 758 404 769 521 l 1306 404 z "},"Δ":{"ha":1011,"x_min":31,"x_max":981,"o":"m 465 972 l 546 972 l 981 0 l 31 0 l 465 972 m 856 81 l 593 661 l 506 860 l 417 661 l 156 81 l 856 81 z "},"Ω":{"ha":1221,"x_min":114,"x_max":1107,"o":"m 119 79 l 335 79 q 172 259 229 150 q 114 501 114 368 q 176 756 114 644 q 352 928 239 867 q 611 990 465 990 q 869 928 757 990 q 1044 756 982 867 q 1107 501 1107 644 q 1049 259 1107 368 q 886 79 992 150 l 1101 79 l 1101 0 l 732 0 l 732 61 q 946 249 872 136 q 1019 503 1019 363 q 968 711 1019 619 q 824 854 917 803 q 611 906 731 906 q 399 854 492 906 q 253 711 306 803 q 201 503 201 619 q 276 249 201 363 q 490 61 350 136 l 490 0 l 119 0 l 119 79 z "},"μ":{"ha":936,"x_min":143,"x_max":793,"o":"m 143 718 l 224 718 l 224 340 q 288 134 224 207 q 467 61 353 61 q 645 137 578 61 q 713 343 713 213 l 713 718 l 793 718 l 793 0 l 726 0 l 717 124 q 610 18 678 54 q 465 -18 543 -18 q 319 18 386 -18 q 218 124 253 54 l 218 -278 l 143 -278 l 143 718 z "},"π":{"ha":919,"x_min":143,"x_max":776,"o":"m 143 718 l 776 718 l 776 0 l 696 0 l 696 643 l 224 643 l 224 0 l 143 0 l 143 718 z "},"⓿":{"ha":1432,"x_min":119,"x_max":1311,"o":"m 715 -115 q 406 -40 542 -115 q 195 169 271 35 q 119 471 119 303 q 195 773 119 639 q 406 982 271 907 q 715 1057 542 1057 q 1026 982 890 1057 q 1236 773 1161 907 q 1311 471 1311 639 q 1236 169 1311 303 q 1026 -40 1161 35 q 715 -115 890 -115 m 519 471 q 572 287 519 354 q 715 219 625 219 q 859 287 806 219 q 913 471 913 354 q 859 655 913 588 q 715 722 806 722 q 572 655 625 722 q 519 471 519 588 m 589 471 q 622 609 589 560 q 715 658 656 658 q 809 609 775 658 q 843 471 843 560 q 809 333 843 382 q 715 283 775 283 q 622 333 656 283 q 589 471 589 382 z "},"❶":{"ha":1432,"x_min":119,"x_max":1311,"o":"m 715 -115 q 406 -40 542 -115 q 195 169 271 35 q 119 471 119 303 q 195 773 119 639 q 406 982 271 907 q 715 1057 542 1057 q 1026 982 890 1057 q 1236 773 1161 907 q 1311 471 1311 639 q 1236 169 1311 303 q 1026 -40 1161 35 q 715 -115 890 -115 m 694 574 l 694 228 l 764 228 l 764 714 l 710 714 l 706 676 q 687 643 700 650 q 651 636 674 636 l 586 636 l 586 574 l 694 574 z "},"❷":{"ha":1432,"x_min":119,"x_max":1311,"o":"m 715 -115 q 406 -40 542 -115 q 195 169 271 35 q 119 471 119 303 q 195 773 119 639 q 406 982 271 907 q 715 1057 542 1057 q 1026 982 890 1057 q 1236 773 1161 907 q 1311 471 1311 639 q 1236 169 1311 303 q 1026 -40 1161 35 q 715 -115 890 -115 m 893 228 l 893 290 l 654 290 l 790 417 q 857 494 835 458 q 879 574 879 529 q 834 681 879 639 q 718 722 789 722 q 600 679 646 722 q 553 563 554 636 l 618 563 q 647 635 619 608 q 715 661 674 661 q 784 636 758 661 q 810 571 810 611 q 794 517 810 542 q 750 465 779 492 l 543 279 l 543 228 l 893 228 z "},"❸":{"ha":1432,"x_min":119,"x_max":1311,"o":"m 715 -115 q 406 -40 542 -115 q 195 169 271 35 q 119 471 119 303 q 195 773 119 639 q 406 982 271 907 q 715 1057 542 1057 q 1026 982 890 1057 q 1236 773 1161 907 q 1311 471 1311 639 q 1236 169 1311 303 q 1026 -40 1161 35 q 715 -115 890 -115 m 549 367 q 598 259 551 299 q 718 219 644 219 q 840 263 793 219 q 888 372 888 306 q 846 476 888 436 q 742 517 804 517 l 726 517 l 867 665 l 867 714 l 560 714 l 560 654 l 774 654 l 643 513 l 643 469 l 718 469 q 791 443 763 469 q 819 376 819 417 q 791 308 819 333 q 717 282 763 282 q 647 305 674 282 q 617 367 619 328 l 549 367 z "},"❹":{"ha":1432,"x_min":119,"x_max":1311,"o":"m 715 -115 q 406 -40 542 -115 q 195 169 271 35 q 119 471 119 303 q 195 773 119 639 q 406 982 271 907 q 715 1057 542 1057 q 1026 982 890 1057 q 1236 773 1161 907 q 1311 471 1311 639 q 1236 169 1311 303 q 1026 -40 1161 35 q 715 -115 890 -115 m 756 331 l 756 228 l 825 228 l 825 331 l 890 331 l 890 392 l 825 392 l 825 542 l 769 542 l 758 390 l 589 390 l 753 714 l 676 714 l 506 378 l 506 331 l 756 331 z "},"❺":{"ha":1432,"x_min":119,"x_max":1311,"o":"m 715 -115 q 406 -40 542 -115 q 195 169 271 35 q 119 471 119 303 q 195 773 119 639 q 406 982 271 907 q 715 1057 542 1057 q 1026 982 890 1057 q 1236 773 1161 907 q 1311 471 1311 639 q 1236 169 1311 303 q 1026 -40 1161 35 q 715 -115 890 -115 m 549 367 q 597 260 551 300 q 718 219 643 219 q 841 262 794 219 q 888 374 888 304 q 844 484 888 442 q 729 526 800 526 l 632 526 l 644 653 l 860 653 l 860 714 l 585 714 l 560 472 l 717 472 q 791 446 763 472 q 819 378 819 419 q 791 308 819 335 q 717 282 763 282 q 647 305 674 282 q 617 367 619 328 l 549 367 z "},"❻":{"ha":1432,"x_min":119,"x_max":1311,"o":"m 715 -115 q 406 -41 542 -115 q 195 167 271 33 q 119 471 119 300 q 195 775 119 642 q 406 983 271 908 q 715 1057 542 1057 q 1024 983 889 1057 q 1235 775 1160 908 q 1311 471 1311 642 q 1235 167 1311 300 q 1024 -41 1160 33 q 715 -115 889 -115 m 536 386 q 586 266 536 313 q 715 219 636 219 q 844 267 793 219 q 894 386 894 314 q 847 503 894 457 q 729 550 800 550 q 676 540 697 550 l 792 714 l 713 714 l 578 511 q 546 447 556 475 q 536 386 536 418 m 603 386 q 635 463 603 433 q 715 493 667 493 q 795 463 764 493 q 826 386 826 433 q 795 309 826 339 q 715 279 764 279 q 635 309 667 279 q 603 386 603 339 z "},"❼":{"ha":1432,"x_min":119,"x_max":1311,"o":"m 715 -115 q 406 -40 542 -115 q 195 169 271 35 q 119 471 119 303 q 195 773 119 639 q 406 982 271 907 q 715 1057 542 1057 q 1026 982 890 1057 q 1236 773 1161 907 q 1311 471 1311 639 q 1236 169 1311 303 q 1026 -40 1161 35 q 715 -115 890 -115 m 799 653 l 618 228 l 692 228 l 876 665 l 876 714 l 557 714 l 557 653 l 799 653 z "},"❽":{"ha":1432,"x_min":119,"x_max":1311,"o":"m 715 219 q 586 257 635 219 q 538 357 538 294 q 561 432 538 400 q 626 479 585 464 q 570 524 590 494 q 550 590 550 553 q 596 685 550 649 q 715 722 642 722 q 835 685 789 722 q 882 590 882 649 q 861 524 882 553 q 806 479 840 494 q 871 431 847 464 q 894 357 894 399 q 846 257 894 294 q 715 219 797 219 m 119 471 q 195 169 119 303 q 406 -40 271 35 q 715 -115 542 -115 q 1026 -40 890 -115 q 1236 169 1161 35 q 1311 471 1311 303 q 1236 773 1311 639 q 1026 982 1161 907 q 715 1057 890 1057 q 406 982 542 1057 q 195 773 271 907 q 119 471 119 639 m 604 361 q 635 297 604 322 q 715 272 667 272 q 796 297 765 272 q 826 361 826 321 q 796 426 826 401 q 715 450 765 450 q 635 425 667 450 q 604 361 604 400 m 613 586 q 642 524 613 549 q 715 500 671 500 q 790 524 761 500 q 818 586 818 549 q 790 647 818 624 q 715 671 761 671 q 642 647 671 671 q 613 586 613 624 z "},"❾":{"ha":1432,"x_min":121,"x_max":1313,"o":"m 717 1057 q 1026 983 890 1057 q 1237 775 1161 908 q 1313 471 1313 642 q 1237 167 1313 300 q 1026 -41 1161 33 q 717 -115 890 -115 q 408 -41 543 -115 q 197 167 272 33 q 121 471 121 300 q 197 775 121 642 q 408 983 272 908 q 717 1057 543 1057 m 538 556 q 585 438 538 485 q 703 392 632 392 q 756 401 735 392 l 640 228 l 719 228 l 854 431 q 886 495 876 467 q 896 556 896 524 q 846 676 896 629 q 717 722 796 722 q 588 675 639 722 q 538 556 538 628 m 606 556 q 637 633 606 603 q 717 663 668 663 q 797 633 765 663 q 829 556 829 603 q 797 478 829 508 q 717 449 765 449 q 637 478 668 449 q 606 556 606 508 z "},"❿":{"ha":1432,"x_min":119,"x_max":1311,"o":"m 494 574 l 386 574 l 386 636 l 451 636 q 488 643 475 636 q 506 676 501 650 l 510 714 l 564 714 l 564 228 l 494 228 l 494 574 m 119 471 q 195 169 119 303 q 406 -40 271 35 q 715 -115 542 -115 q 1026 -40 890 -115 q 1236 169 1161 35 q 1311 471 1311 303 q 1236 773 1311 639 q 1026 982 1161 907 q 715 1057 890 1057 q 406 982 542 1057 q 195 773 271 907 q 119 471 119 639 m 668 471 q 722 655 668 588 q 865 722 775 722 q 1008 655 956 722 q 1061 471 1061 588 q 1008 287 1061 354 q 865 219 956 219 q 722 287 775 219 q 668 471 668 354 m 738 471 q 772 333 738 382 q 865 283 806 283 q 958 333 925 283 q 992 471 992 382 q 958 609 992 560 q 865 658 925 658 q 772 609 806 658 q 738 471 738 560 z "},"⓪":{"ha":1432,"x_min":119,"x_max":1311,"o":"m 715 -115 q 406 -40 542 -115 q 195 169 271 35 q 119 471 119 303 q 195 773 119 639 q 406 982 271 907 q 715 1057 542 1057 q 1026 982 890 1057 q 1236 773 1161 907 q 1311 471 1311 639 q 1236 169 1311 303 q 1026 -40 1161 35 q 715 -115 890 -115 m 199 471 q 263 208 199 324 q 445 26 328 92 q 715 -39 563 -39 q 985 26 868 -39 q 1167 208 1103 92 q 1232 471 1232 324 q 1167 734 1232 618 q 985 915 1103 850 q 715 981 868 981 q 445 915 563 981 q 263 734 328 850 q 199 471 199 618 m 519 471 q 572 655 519 588 q 715 722 625 722 q 859 655 806 722 q 913 471 913 588 q 859 287 913 354 q 715 219 806 219 q 572 287 625 219 q 519 471 519 354 m 589 471 q 622 333 589 382 q 715 283 656 283 q 809 333 775 283 q 843 471 843 382 q 809 609 843 560 q 715 658 775 658 q 622 609 656 658 q 589 471 589 560 z "},"①":{"ha":1432,"x_min":119,"x_max":1311,"o":"m 694 574 l 586 574 l 586 636 l 651 636 q 687 643 674 636 q 706 676 700 650 l 710 714 l 764 714 l 764 228 l 694 228 l 694 574 m 119 471 q 195 773 119 639 q 406 982 271 907 q 715 1057 542 1057 q 1026 982 890 1057 q 1236 773 1161 907 q 1311 471 1311 639 q 1236 169 1311 303 q 1026 -40 1161 35 q 715 -115 890 -115 q 406 -40 542 -115 q 195 169 271 35 q 119 471 119 303 m 199 471 q 263 208 199 324 q 445 26 328 92 q 715 -39 563 -39 q 985 26 868 -39 q 1167 208 1103 92 q 1232 471 1232 324 q 1167 734 1232 618 q 985 915 1103 850 q 715 981 868 981 q 445 915 563 981 q 263 734 328 850 q 199 471 199 618 z "},"②":{"ha":1432,"x_min":119,"x_max":1311,"o":"m 543 279 l 750 465 q 794 517 779 492 q 810 571 810 542 q 784 636 810 611 q 715 661 758 661 q 647 635 674 661 q 618 563 619 608 l 553 563 q 600 679 554 636 q 718 722 646 722 q 834 681 789 722 q 879 574 879 639 q 857 494 879 529 q 790 417 835 458 l 654 290 l 893 290 l 893 228 l 543 228 l 543 279 m 119 471 q 195 773 119 639 q 406 982 271 907 q 715 1057 542 1057 q 1026 982 890 1057 q 1236 773 1161 907 q 1311 471 1311 639 q 1236 169 1311 303 q 1026 -40 1161 35 q 715 -115 890 -115 q 406 -40 542 -115 q 195 169 271 35 q 119 471 119 303 m 199 471 q 263 208 199 324 q 445 26 328 92 q 715 -39 563 -39 q 985 26 868 -39 q 1167 208 1103 92 q 1232 471 1232 324 q 1167 734 1232 618 q 985 915 1103 850 q 715 981 868 981 q 445 915 563 981 q 263 734 328 850 q 199 471 199 618 z "},"③":{"ha":1432,"x_min":119,"x_max":1311,"o":"m 715 -115 q 406 -40 542 -115 q 195 169 271 35 q 119 471 119 303 q 195 773 119 639 q 406 982 271 907 q 715 1057 542 1057 q 1026 982 890 1057 q 1236 773 1161 907 q 1311 471 1311 639 q 1236 169 1311 303 q 1026 -40 1161 35 q 715 -115 890 -115 m 199 471 q 263 208 199 324 q 445 26 328 92 q 715 -39 563 -39 q 985 26 868 -39 q 1167 208 1103 92 q 1232 471 1232 324 q 1167 734 1232 618 q 985 915 1103 850 q 715 981 868 981 q 445 915 563 981 q 263 734 328 850 q 199 471 199 618 m 617 367 q 647 305 619 328 q 717 282 674 282 q 791 308 763 282 q 819 376 819 333 q 791 443 819 417 q 718 469 763 469 l 643 469 l 643 513 l 774 654 l 560 654 l 560 714 l 867 714 l 867 665 l 726 517 l 742 517 q 846 476 804 517 q 888 372 888 436 q 840 263 888 306 q 718 219 793 219 q 598 259 644 219 q 549 367 551 299 l 617 367 z "},"④":{"ha":1432,"x_min":119,"x_max":1311,"o":"m 890 392 l 890 331 l 825 331 l 825 228 l 756 228 l 756 331 l 506 331 l 506 378 l 676 714 l 753 714 l 589 390 l 758 390 l 769 542 l 825 542 l 825 392 l 890 392 m 119 471 q 195 773 119 639 q 406 982 271 907 q 715 1057 542 1057 q 1026 982 890 1057 q 1236 773 1161 907 q 1311 471 1311 639 q 1236 169 1311 303 q 1026 -40 1161 35 q 715 -115 890 -115 q 406 -40 542 -115 q 195 169 271 35 q 119 471 119 303 m 199 471 q 263 208 199 324 q 445 26 328 92 q 715 -39 563 -39 q 985 26 868 -39 q 1167 208 1103 92 q 1232 471 1232 324 q 1167 734 1232 618 q 985 915 1103 850 q 715 981 868 981 q 445 915 563 981 q 263 734 328 850 q 199 471 199 618 z "},"⑤":{"ha":1432,"x_min":119,"x_max":1311,"o":"m 718 219 q 597 260 643 219 q 549 367 551 300 l 617 367 q 647 305 619 328 q 717 282 674 282 q 791 308 763 282 q 819 378 819 335 q 791 446 819 419 q 717 472 763 472 l 560 472 l 585 714 l 860 714 l 860 653 l 644 653 l 632 526 l 729 526 q 844 484 800 526 q 888 374 888 442 q 841 262 888 304 q 718 219 794 219 m 119 471 q 195 773 119 639 q 406 982 271 907 q 715 1057 542 1057 q 1026 982 890 1057 q 1236 773 1161 907 q 1311 471 1311 639 q 1236 169 1311 303 q 1026 -40 1161 35 q 715 -115 890 -115 q 406 -40 542 -115 q 195 169 271 35 q 119 471 119 303 m 199 471 q 263 208 199 324 q 445 26 328 92 q 715 -39 563 -39 q 985 26 868 -39 q 1167 208 1103 92 q 1232 471 1232 324 q 1167 734 1232 618 q 985 915 1103 850 q 715 981 868 981 q 445 915 563 981 q 263 734 328 850 q 199 471 199 618 z "},"⑥":{"ha":1432,"x_min":119,"x_max":1311,"o":"m 715 -115 q 406 -41 542 -115 q 195 167 271 33 q 119 471 119 300 q 195 775 119 642 q 406 983 271 908 q 715 1057 542 1057 q 1024 983 889 1057 q 1235 775 1160 908 q 1311 471 1311 642 q 1235 167 1311 300 q 1024 -41 1160 33 q 715 -115 889 -115 m 199 471 q 264 206 199 322 q 447 26 329 90 q 715 -39 564 -39 q 984 26 867 -39 q 1167 206 1101 90 q 1232 471 1232 322 q 1167 735 1232 619 q 984 916 1101 851 q 715 981 867 981 q 447 916 564 981 q 264 735 329 851 q 199 471 199 619 m 536 386 q 546 447 536 418 q 578 511 556 475 l 713 714 l 792 714 l 676 540 q 729 550 697 550 q 847 503 800 550 q 894 386 894 457 q 844 267 894 314 q 715 219 793 219 q 586 266 636 219 q 536 386 536 313 m 603 386 q 635 309 603 339 q 715 279 667 279 q 795 309 764 279 q 826 386 826 339 q 795 463 826 433 q 715 493 764 493 q 635 463 667 493 q 603 386 603 433 z "},"⑦":{"ha":1432,"x_min":119,"x_max":1311,"o":"m 557 714 l 876 714 l 876 665 l 692 228 l 618 228 l 799 653 l 557 653 l 557 714 m 119 471 q 195 773 119 639 q 406 982 271 907 q 715 1057 542 1057 q 1026 982 890 1057 q 1236 773 1161 907 q 1311 471 1311 639 q 1236 169 1311 303 q 1026 -40 1161 35 q 715 -115 890 -115 q 406 -40 542 -115 q 195 169 271 35 q 119 471 119 303 m 199 471 q 263 208 199 324 q 445 26 328 92 q 715 -39 563 -39 q 985 26 868 -39 q 1167 208 1103 92 q 1232 471 1232 324 q 1167 734 1232 618 q 985 915 1103 850 q 715 981 868 981 q 445 915 563 981 q 263 734 328 850 q 199 471 199 618 z "},"⑧":{"ha":1432,"x_min":119,"x_max":1311,"o":"m 715 219 q 586 257 635 219 q 538 357 538 294 q 561 432 538 400 q 626 479 585 464 q 570 524 590 494 q 550 590 550 553 q 596 685 550 649 q 715 722 642 722 q 835 685 789 722 q 882 590 882 649 q 861 524 882 553 q 806 479 840 494 q 871 431 847 464 q 894 357 894 399 q 846 257 894 294 q 715 219 797 219 m 119 471 q 195 773 119 639 q 406 982 271 907 q 715 1057 542 1057 q 1026 982 890 1057 q 1236 773 1161 907 q 1311 471 1311 639 q 1236 169 1311 303 q 1026 -40 1161 35 q 715 -115 890 -115 q 406 -40 542 -115 q 195 169 271 35 q 119 471 119 303 m 199 471 q 263 208 199 324 q 445 26 328 92 q 715 -39 563 -39 q 985 26 868 -39 q 1167 208 1103 92 q 1232 471 1232 324 q 1167 734 1232 618 q 985 915 1103 850 q 715 981 868 981 q 445 915 563 981 q 263 734 328 850 q 199 471 199 618 m 604 361 q 635 297 604 322 q 715 272 667 272 q 796 297 765 272 q 826 361 826 321 q 796 426 826 401 q 715 450 765 450 q 635 425 667 450 q 604 361 604 400 m 613 586 q 642 524 613 549 q 715 500 671 500 q 790 524 761 500 q 818 586 818 549 q 790 647 818 624 q 715 671 761 671 q 642 647 671 671 q 613 586 613 624 z "},"⑨":{"ha":1432,"x_min":121,"x_max":1313,"o":"m 717 1057 q 1026 983 890 1057 q 1237 775 1161 908 q 1313 471 1313 642 q 1237 167 1313 300 q 1026 -41 1161 33 q 717 -115 890 -115 q 408 -41 543 -115 q 197 167 272 33 q 121 471 121 300 q 197 775 121 642 q 408 983 272 908 q 717 1057 543 1057 m 200 471 q 265 206 200 322 q 448 26 331 90 q 717 -39 565 -39 q 985 26 868 -39 q 1168 206 1103 90 q 1233 471 1233 322 q 1168 735 1233 619 q 985 916 1103 851 q 717 981 868 981 q 448 916 565 981 q 265 735 331 851 q 200 471 200 619 m 538 556 q 588 675 538 628 q 717 722 639 722 q 846 676 796 722 q 896 556 896 629 q 886 495 896 524 q 854 431 876 467 l 719 228 l 640 228 l 756 401 q 703 392 735 392 q 585 438 632 392 q 538 556 538 485 m 606 556 q 637 478 606 508 q 717 449 668 449 q 797 478 765 449 q 829 556 829 508 q 797 633 829 603 q 717 663 765 663 q 637 633 668 663 q 606 556 606 603 z "},"⑩":{"ha":1432,"x_min":119,"x_max":1311,"o":"m 494 574 l 386 574 l 386 636 l 451 636 q 488 643 475 636 q 506 676 501 650 l 510 714 l 564 714 l 564 228 l 494 228 l 494 574 m 119 471 q 195 773 119 639 q 406 982 271 907 q 715 1057 542 1057 q 1026 982 890 1057 q 1236 773 1161 907 q 1311 471 1311 639 q 1236 169 1311 303 q 1026 -40 1161 35 q 715 -115 890 -115 q 406 -40 542 -115 q 195 169 271 35 q 119 471 119 303 m 199 471 q 263 208 199 324 q 445 26 328 92 q 715 -39 563 -39 q 985 26 868 -39 q 1167 208 1103 92 q 1232 471 1232 324 q 1167 734 1232 618 q 985 915 1103 850 q 715 981 868 981 q 445 915 563 981 q 263 734 328 850 q 199 471 199 618 m 668 471 q 722 655 668 588 q 867 722 775 722 q 1010 655 957 722 q 1064 471 1064 588 q 1010 287 1064 354 q 867 219 957 219 q 722 287 775 219 q 668 471 668 354 m 738 471 q 772 333 738 382 q 867 283 806 283 q 960 333 926 283 q 994 471 994 382 q 960 609 994 560 q 867 658 926 658 q 772 609 806 658 q 738 471 738 560 z "},"₀":{"ha":561,"x_min":85,"x_max":476,"o":"m 281 -200 q 138 -133 190 -200 q 85 51 85 -65 q 138 235 85 168 q 281 303 190 303 q 424 235 371 303 q 476 51 476 168 q 424 -133 476 -65 q 281 -200 371 -200 m 153 51 q 187 -87 153 -37 q 281 -136 221 -136 q 374 -87 340 -136 q 407 51 407 -37 q 374 190 407 140 q 281 239 340 239 q 187 190 221 239 q 153 51 153 140 z "},"₁":{"ha":353,"x_min":47,"x_max":225,"o":"m 156 154 l 47 154 l 47 217 l 113 217 q 148 224 135 217 q 165 257 161 231 l 171 294 l 225 294 l 225 -192 l 156 -192 l 156 154 z "},"₂":{"ha":538,"x_min":93,"x_max":442,"o":"m 93 -140 l 299 46 q 344 97 329 72 q 360 151 360 122 q 333 217 360 192 q 265 242 307 242 q 196 215 224 242 q 167 143 168 189 l 101 143 q 149 260 103 217 q 267 303 194 303 q 383 261 338 303 q 428 154 428 219 q 406 74 428 110 q 340 -3 385 38 l 203 -129 l 442 -129 l 442 -192 l 93 -192 l 93 -140 z "},"₃":{"ha":496,"x_min":74,"x_max":411,"o":"m 243 -200 q 122 -160 168 -200 q 74 -53 76 -121 l 140 -53 q 172 -115 144 -92 q 242 -137 199 -137 q 316 -112 288 -137 q 344 -43 344 -86 q 316 24 344 -3 q 242 50 288 50 l 168 50 l 168 93 l 299 235 l 85 235 l 85 294 l 392 294 l 392 246 l 250 97 l 265 97 q 369 57 328 97 q 411 -47 411 17 q 365 -157 411 -114 q 243 -200 318 -200 z "},"₄":{"ha":474,"x_min":46,"x_max":431,"o":"m 296 -89 l 46 -89 l 46 -42 l 217 294 l 294 294 l 129 -29 l 299 -29 l 310 122 l 365 122 l 365 -28 l 431 -28 l 431 -89 l 365 -89 l 365 -192 l 296 -192 l 296 -89 z "},"₅":{"ha":486,"x_min":76,"x_max":415,"o":"m 247 -200 q 126 -160 172 -200 q 76 -53 81 -119 l 144 -53 q 175 -115 147 -92 q 246 -137 203 -137 q 319 -111 292 -137 q 347 -42 347 -85 q 319 26 347 0 q 246 53 292 53 l 88 53 l 113 294 l 388 294 l 388 233 l 172 233 l 161 107 l 257 107 q 372 65 328 107 q 415 -46 415 22 q 369 -158 415 -115 q 247 -200 322 -200 z "},"₆":{"ha":511,"x_min":74,"x_max":433,"o":"m 254 -200 q 124 -153 175 -200 q 74 -33 74 -107 q 83 26 74 -3 q 117 92 93 54 l 250 294 l 331 294 l 215 121 q 267 131 236 131 q 386 84 339 131 q 433 -33 433 38 q 383 -153 433 -106 q 254 -200 332 -200 m 142 -33 q 174 -110 142 -81 q 254 -140 206 -140 q 334 -110 303 -140 q 365 -33 365 -81 q 334 44 365 14 q 254 74 303 74 q 174 44 206 74 q 142 -33 142 14 z "},"₇":{"ha":422,"x_min":49,"x_max":369,"o":"m 292 233 l 49 233 l 49 294 l 369 294 l 369 246 l 185 -192 l 111 -192 l 292 233 z "},"₈":{"ha":506,"x_min":75,"x_max":431,"o":"m 253 -200 q 124 -162 172 -200 q 75 -62 75 -125 q 98 13 75 -19 q 163 60 121 44 q 107 103 126 75 q 88 171 88 132 q 133 266 88 229 q 253 303 179 303 q 372 266 326 303 q 418 171 418 229 q 398 104 418 133 q 343 60 378 75 q 408 12 385 44 q 431 -62 431 -21 q 382 -162 431 -125 q 253 -200 333 -200 m 142 -58 q 172 -123 142 -99 q 253 -147 203 -147 q 333 -123 303 -147 q 364 -58 364 -99 q 333 6 364 -18 q 253 31 303 31 q 172 6 203 31 q 142 -58 142 -18 m 150 167 q 178 105 150 129 q 253 81 207 81 q 327 105 299 81 q 356 167 356 129 q 327 228 356 204 q 253 251 299 251 q 178 228 207 251 q 150 167 150 204 z "},"₉":{"ha":511,"x_min":78,"x_max":438,"o":"m 257 303 q 387 256 336 303 q 438 136 438 210 q 428 77 438 106 q 394 11 418 49 l 261 -192 l 181 -192 l 296 -18 q 244 -28 275 -28 q 125 19 172 -28 q 78 136 78 65 q 128 256 78 208 q 257 303 179 303 m 146 136 q 177 59 146 89 q 257 29 208 29 q 338 59 306 29 q 369 136 369 89 q 338 213 369 183 q 257 243 306 243 q 177 213 208 243 q 146 136 146 183 z "},"⁰":{"ha":561,"x_min":85,"x_max":476,"o":"m 281 633 q 138 701 190 633 q 85 885 85 768 q 138 1069 85 1001 q 281 1136 190 1136 q 424 1069 371 1136 q 476 885 476 1001 q 424 701 476 768 q 281 633 371 633 m 153 885 q 187 747 153 796 q 281 697 221 697 q 374 747 340 697 q 407 885 407 796 q 374 1023 407 974 q 281 1072 340 1072 q 187 1023 221 1072 q 153 885 153 974 z "},"¹":{"ha":353,"x_min":47,"x_max":225,"o":"m 156 988 l 47 988 l 47 1050 l 113 1050 q 148 1057 135 1050 q 165 1090 161 1064 l 171 1128 l 225 1128 l 225 642 l 156 642 l 156 988 z "},"²":{"ha":538,"x_min":93,"x_max":442,"o":"m 93 693 l 299 879 q 344 931 329 906 q 360 985 360 956 q 333 1050 360 1025 q 265 1075 307 1075 q 196 1049 224 1075 q 167 976 168 1022 l 101 976 q 149 1093 103 1050 q 267 1136 194 1136 q 383 1094 338 1136 q 428 988 428 1053 q 406 907 428 943 q 340 831 385 871 l 203 704 l 442 704 l 442 642 l 93 642 l 93 693 z "},"³":{"ha":496,"x_min":74,"x_max":411,"o":"m 243 633 q 122 673 168 633 q 74 781 76 713 l 140 781 q 172 719 144 742 q 242 696 199 696 q 316 722 288 696 q 344 790 344 747 q 316 857 344 831 q 242 883 288 883 l 168 883 l 168 926 l 299 1068 l 85 1068 l 85 1128 l 392 1128 l 392 1079 l 250 931 l 265 931 q 369 890 328 931 q 411 786 411 850 q 365 676 411 719 q 243 633 318 633 z "},"⁴":{"ha":474,"x_min":46,"x_max":431,"o":"m 296 744 l 46 744 l 46 792 l 217 1128 l 294 1128 l 129 804 l 299 804 l 310 956 l 365 956 l 365 806 l 431 806 l 431 744 l 365 744 l 365 642 l 296 642 l 296 744 z "},"⁵":{"ha":486,"x_min":76,"x_max":415,"o":"m 247 633 q 126 674 172 633 q 76 781 81 714 l 144 781 q 175 719 147 742 q 246 696 203 696 q 319 722 292 696 q 347 792 347 749 q 319 860 347 833 q 246 886 292 886 l 88 886 l 113 1128 l 388 1128 l 388 1067 l 172 1067 l 161 940 l 257 940 q 372 898 328 940 q 415 788 415 856 q 369 676 415 718 q 247 633 322 633 z "},"⁶":{"ha":511,"x_min":74,"x_max":433,"o":"m 254 633 q 124 680 175 633 q 74 800 74 726 q 83 859 74 831 q 117 925 93 888 l 250 1128 l 331 1128 l 215 954 q 267 964 236 964 q 386 917 339 964 q 433 800 433 871 q 383 681 433 728 q 254 633 332 633 m 142 800 q 174 723 142 753 q 254 693 206 693 q 334 723 303 693 q 365 800 365 753 q 334 877 365 847 q 254 907 303 907 q 174 877 206 907 q 142 800 142 847 z "},"⁷":{"ha":422,"x_min":49,"x_max":369,"o":"m 292 1067 l 49 1067 l 49 1128 l 369 1128 l 369 1079 l 185 642 l 111 642 l 292 1067 z "},"⁸":{"ha":506,"x_min":75,"x_max":431,"o":"m 253 633 q 124 671 172 633 q 75 771 75 708 q 98 846 75 814 q 163 893 121 878 q 107 937 126 908 q 88 1004 88 965 q 133 1099 88 1063 q 253 1136 179 1136 q 372 1099 326 1136 q 418 1004 418 1063 q 398 938 418 967 q 343 893 378 908 q 408 845 385 878 q 431 771 431 813 q 382 671 431 708 q 253 633 333 633 m 142 775 q 172 710 142 735 q 253 686 203 686 q 333 710 303 686 q 364 775 364 735 q 333 840 364 815 q 253 864 303 864 q 172 840 203 864 q 142 775 142 815 m 150 1000 q 178 938 150 963 q 253 914 207 914 q 327 938 299 914 q 356 1000 356 963 q 327 1061 356 1038 q 253 1085 299 1085 q 178 1061 207 1085 q 150 1000 150 1038 z "},"⁹":{"ha":511,"x_min":78,"x_max":438,"o":"m 257 1136 q 387 1090 336 1136 q 438 969 438 1043 q 428 910 438 939 q 394 844 418 882 l 261 642 l 181 642 l 296 815 q 244 806 275 806 q 125 852 172 806 q 78 969 78 899 q 128 1089 78 1042 q 257 1136 179 1136 m 146 969 q 177 892 146 922 q 257 863 208 863 q 338 892 306 863 q 369 969 369 922 q 338 1047 369 1017 q 257 1076 306 1076 q 177 1047 208 1076 q 146 969 146 1017 z "},"⁄":{"ha":285,"x_min":-200,"x_max":485,"o":"m 404 972 l 485 972 l -121 0 l -200 0 l 404 972 z "},"½":{"ha":1175,"x_min":47,"x_max":1079,"o":"m 156 832 l 47 832 l 47 894 l 113 894 q 148 901 135 894 q 165 935 161 908 l 171 972 l 225 972 l 225 486 l 156 486 l 156 832 m 757 972 l 838 972 l 232 0 l 153 0 l 757 972 m 731 51 l 936 238 q 982 289 967 264 q 997 343 997 314 q 971 408 997 383 q 903 433 944 433 q 833 407 861 433 q 804 335 806 381 l 739 335 q 786 451 740 408 q 904 494 832 494 q 1020 453 975 494 q 1065 346 1065 411 q 1044 265 1065 301 q 978 189 1022 229 l 840 63 l 1079 63 l 1079 0 l 731 0 l 731 51 z "},"⅓":{"ha":1133,"x_min":47,"x_max":1049,"o":"m 156 832 l 47 832 l 47 894 l 113 894 q 148 901 135 894 q 165 935 161 908 l 171 972 l 225 972 l 225 486 l 156 486 l 156 832 m 757 972 l 838 972 l 232 0 l 153 0 l 757 972 m 881 -8 q 760 31 806 -8 q 711 139 714 71 l 778 139 q 809 77 782 100 q 879 54 836 54 q 953 80 925 54 q 982 149 982 106 q 953 215 982 189 q 879 242 925 242 l 806 242 l 806 285 l 936 426 l 722 426 l 722 486 l 1029 486 l 1029 438 l 888 289 l 903 289 q 1007 249 965 289 q 1049 144 1049 208 q 1002 35 1049 78 q 881 -8 956 -8 z "},"⅔":{"ha":1318,"x_min":93,"x_max":1233,"o":"m 93 538 l 299 724 q 344 775 329 750 q 360 829 360 800 q 333 894 360 869 q 265 919 307 919 q 196 893 224 919 q 167 821 168 867 l 101 821 q 149 938 103 894 q 267 981 194 981 q 383 939 338 981 q 428 832 428 897 q 406 751 428 788 q 340 675 385 715 l 203 549 l 442 549 l 442 486 l 93 486 l 93 538 m 942 972 l 1022 972 l 417 0 l 338 0 l 942 972 m 1065 -8 q 944 31 990 -8 q 896 139 899 71 l 963 139 q 994 77 967 100 q 1064 54 1021 54 q 1138 80 1110 54 q 1167 149 1167 106 q 1138 215 1167 189 q 1064 242 1110 242 l 990 242 l 990 285 l 1121 426 l 907 426 l 907 486 l 1214 486 l 1214 438 l 1072 289 l 1088 289 q 1192 249 1150 289 q 1233 144 1233 208 q 1187 35 1233 78 q 1065 -8 1140 -8 z "},"¼":{"ha":1111,"x_min":47,"x_max":1068,"o":"m 156 832 l 47 832 l 47 894 l 113 894 q 148 901 135 894 q 165 935 161 908 l 171 972 l 225 972 l 225 486 l 156 486 l 156 832 m 757 972 l 838 972 l 232 0 l 153 0 l 757 972 m 933 103 l 683 103 l 683 150 l 854 486 l 932 486 l 767 163 l 936 163 l 947 314 l 1003 314 l 1003 164 l 1068 164 l 1068 103 l 1003 103 l 1003 0 l 933 0 l 933 103 z "},"¾":{"ha":1254,"x_min":74,"x_max":1211,"o":"m 243 478 q 122 517 168 478 q 74 625 76 557 l 140 625 q 172 563 144 586 q 242 540 199 540 q 316 566 288 540 q 344 635 344 592 q 316 701 344 675 q 242 728 288 728 l 168 728 l 168 771 l 299 913 l 85 913 l 85 972 l 392 972 l 392 924 l 250 775 l 265 775 q 369 735 328 775 q 411 631 411 694 q 365 521 411 564 q 243 478 318 478 m 900 972 l 981 972 l 375 0 l 296 0 l 900 972 m 1076 103 l 826 103 l 826 150 l 997 486 l 1075 486 l 910 163 l 1079 163 l 1090 314 l 1146 314 l 1146 164 l 1211 164 l 1211 103 l 1146 103 l 1146 0 l 1076 0 l 1076 103 z "},"⅕":{"ha":1124,"x_min":47,"x_max":1053,"o":"m 156 832 l 47 832 l 47 894 l 113 894 q 148 901 135 894 q 165 935 161 908 l 171 972 l 225 972 l 225 486 l 156 486 l 156 832 m 757 972 l 838 972 l 232 0 l 153 0 l 757 972 m 885 -8 q 764 32 810 -8 q 714 139 718 72 l 782 139 q 813 77 785 100 q 883 54 840 54 q 957 81 929 54 q 985 150 985 107 q 957 218 985 192 q 883 244 929 244 l 725 244 l 750 486 l 1025 486 l 1025 425 l 810 425 l 799 299 l 894 299 q 1009 256 965 299 q 1053 146 1053 214 q 1006 34 1053 76 q 885 -8 960 -8 z "},"⅖":{"ha":1308,"x_min":93,"x_max":1238,"o":"m 93 538 l 299 724 q 344 775 329 750 q 360 829 360 800 q 333 894 360 869 q 265 919 307 919 q 196 893 224 919 q 167 821 168 867 l 101 821 q 149 938 103 894 q 267 981 194 981 q 383 939 338 981 q 428 832 428 897 q 406 751 428 788 q 340 675 385 715 l 203 549 l 442 549 l 442 486 l 93 486 l 93 538 m 942 972 l 1022 972 l 417 0 l 338 0 l 942 972 m 1069 -8 q 949 32 994 -8 q 899 139 903 72 l 967 139 q 997 77 969 100 q 1068 54 1025 54 q 1142 81 1114 54 q 1169 150 1169 107 q 1142 218 1169 192 q 1068 244 1114 244 l 910 244 l 935 486 l 1210 486 l 1210 425 l 994 425 l 983 299 l 1079 299 q 1194 256 1150 299 q 1238 146 1238 214 q 1191 34 1238 76 q 1069 -8 1144 -8 z "},"⅗":{"ha":1267,"x_min":74,"x_max":1196,"o":"m 243 478 q 122 517 168 478 q 74 625 76 557 l 140 625 q 172 563 144 586 q 242 540 199 540 q 316 566 288 540 q 344 635 344 592 q 316 701 344 675 q 242 728 288 728 l 168 728 l 168 771 l 299 913 l 85 913 l 85 972 l 392 972 l 392 924 l 250 775 l 265 775 q 369 735 328 775 q 411 631 411 694 q 365 521 411 564 q 243 478 318 478 m 900 972 l 981 972 l 375 0 l 296 0 l 900 972 m 1028 -8 q 907 32 953 -8 q 857 139 861 72 l 925 139 q 956 77 928 100 q 1026 54 983 54 q 1100 81 1072 54 q 1128 150 1128 107 q 1100 218 1128 192 q 1026 244 1072 244 l 868 244 l 893 486 l 1168 486 l 1168 425 l 953 425 l 942 299 l 1038 299 q 1152 256 1108 299 q 1196 146 1196 214 q 1149 34 1196 76 q 1028 -8 1103 -8 z "},"⅘":{"ha":1244,"x_min":46,"x_max":1174,"o":"m 296 589 l 46 589 l 46 636 l 217 972 l 294 972 l 129 649 l 299 649 l 310 800 l 365 800 l 365 650 l 431 650 l 431 589 l 365 589 l 365 486 l 296 486 l 296 589 m 878 972 l 958 972 l 353 0 l 274 0 l 878 972 m 1006 -8 q 885 32 931 -8 q 835 139 839 72 l 903 139 q 933 77 906 100 q 1004 54 961 54 q 1078 81 1050 54 q 1106 150 1106 107 q 1078 218 1106 192 q 1004 244 1050 244 l 846 244 l 871 486 l 1146 486 l 1146 425 l 931 425 l 919 299 l 1015 299 q 1130 256 1086 299 q 1174 146 1174 214 q 1127 34 1174 76 q 1006 -8 1081 -8 z "},"⅙":{"ha":1149,"x_min":47,"x_max":1071,"o":"m 156 832 l 47 832 l 47 894 l 113 894 q 148 901 135 894 q 165 935 161 908 l 171 972 l 225 972 l 225 486 l 156 486 l 156 832 m 757 972 l 838 972 l 232 0 l 153 0 l 757 972 m 892 -8 q 762 38 813 -8 q 711 158 711 85 q 721 217 711 189 q 754 283 731 246 l 888 486 l 968 486 l 853 313 q 904 322 874 322 q 1024 276 976 322 q 1071 158 1071 229 q 1020 39 1071 86 q 892 -8 969 -8 m 779 158 q 811 81 779 111 q 892 51 843 51 q 972 81 940 51 q 1003 158 1003 111 q 972 235 1003 206 q 892 265 940 265 q 811 235 843 265 q 779 158 779 206 z "},"⅚":{"ha":1282,"x_min":76,"x_max":1204,"o":"m 247 478 q 126 518 172 478 q 76 625 81 558 l 144 625 q 175 563 147 586 q 246 540 203 540 q 319 567 292 540 q 347 636 347 593 q 319 704 347 678 q 246 731 292 731 l 88 731 l 113 972 l 388 972 l 388 911 l 172 911 l 161 785 l 257 785 q 372 742 328 785 q 415 632 415 700 q 369 520 415 563 q 247 478 322 478 m 890 972 l 971 972 l 365 0 l 286 0 l 890 972 m 1025 -8 q 895 38 946 -8 q 844 158 844 85 q 854 217 844 189 q 888 283 864 246 l 1021 486 l 1101 486 l 986 313 q 1038 322 1007 322 q 1157 276 1110 322 q 1204 158 1204 229 q 1153 39 1204 86 q 1025 -8 1103 -8 m 913 158 q 944 81 913 111 q 1025 51 976 51 q 1105 81 1074 51 q 1136 158 1136 111 q 1105 235 1136 206 q 1025 265 1074 265 q 944 235 976 265 q 913 158 913 206 z "},"⅐":{"ha":1060,"x_min":47,"x_max":1007,"o":"m 156 832 l 47 832 l 47 894 l 113 894 q 148 901 135 894 q 165 935 161 908 l 171 972 l 225 972 l 225 486 l 156 486 l 156 832 m 757 972 l 838 972 l 232 0 l 153 0 l 757 972 m 929 425 l 686 425 l 686 486 l 1007 486 l 1007 438 l 822 0 l 749 0 l 929 425 z "},"⅛":{"ha":1143,"x_min":47,"x_max":1068,"o":"m 156 832 l 47 832 l 47 894 l 113 894 q 148 901 135 894 q 165 935 161 908 l 171 972 l 225 972 l 225 486 l 156 486 l 156 832 m 757 972 l 838 972 l 232 0 l 153 0 l 757 972 m 890 -8 q 761 29 810 -8 q 713 129 713 67 q 735 204 713 172 q 800 251 758 236 q 744 295 764 267 q 725 363 725 324 q 771 458 725 421 q 890 494 817 494 q 1010 458 964 494 q 1056 363 1056 421 q 1035 296 1056 325 q 981 251 1015 267 q 1045 203 1022 236 q 1068 129 1068 171 q 1019 29 1068 67 q 890 -8 971 -8 m 779 133 q 810 69 779 93 q 890 44 840 44 q 971 69 940 44 q 1001 133 1001 93 q 971 198 1001 174 q 890 222 940 222 q 810 198 840 222 q 779 133 779 174 m 788 358 q 816 297 788 321 q 890 272 844 272 q 965 297 936 272 q 993 358 993 321 q 965 419 993 396 q 890 443 936 443 q 816 419 844 443 q 788 358 788 396 z "},"⅜":{"ha":1286,"x_min":74,"x_max":1211,"o":"m 243 478 q 122 517 168 478 q 74 625 76 557 l 140 625 q 172 563 144 586 q 242 540 199 540 q 316 566 288 540 q 344 635 344 592 q 316 701 344 675 q 242 728 288 728 l 168 728 l 168 771 l 299 913 l 85 913 l 85 972 l 392 972 l 392 924 l 250 775 l 265 775 q 369 735 328 775 q 411 631 411 694 q 365 521 411 564 q 243 478 318 478 m 900 972 l 981 972 l 375 0 l 296 0 l 900 972 m 1033 -8 q 904 29 953 -8 q 856 129 856 67 q 878 204 856 172 q 943 251 901 236 q 888 295 907 267 q 868 363 868 324 q 914 458 868 421 q 1033 494 960 494 q 1153 458 1107 494 q 1199 363 1199 421 q 1178 296 1199 325 q 1124 251 1158 267 q 1188 203 1165 236 q 1211 129 1211 171 q 1163 29 1211 67 q 1033 -8 1114 -8 m 922 133 q 953 69 922 93 q 1033 44 983 44 q 1114 69 1083 44 q 1144 133 1144 93 q 1114 198 1144 174 q 1033 222 1083 222 q 953 198 983 222 q 922 133 922 174 m 931 358 q 959 297 931 321 q 1033 272 988 272 q 1108 297 1079 272 q 1136 358 1136 321 q 1108 419 1136 396 q 1033 443 1079 443 q 959 419 988 443 q 931 358 931 396 z "},"⅝":{"ha":1276,"x_min":76,"x_max":1201,"o":"m 247 478 q 126 518 172 478 q 76 625 81 558 l 144 625 q 175 563 147 586 q 246 540 203 540 q 319 567 292 540 q 347 636 347 593 q 319 704 347 678 q 246 731 292 731 l 88 731 l 113 972 l 388 972 l 388 911 l 172 911 l 161 785 l 257 785 q 372 742 328 785 q 415 632 415 700 q 369 520 415 563 q 247 478 322 478 m 890 972 l 971 972 l 365 0 l 286 0 l 890 972 m 1024 -8 q 894 29 943 -8 q 846 129 846 67 q 869 204 846 172 q 933 251 892 236 q 878 295 897 267 q 858 363 858 324 q 904 458 858 421 q 1024 494 950 494 q 1143 458 1097 494 q 1189 363 1189 421 q 1169 296 1189 325 q 1114 251 1149 267 q 1178 203 1156 236 q 1201 129 1201 171 q 1153 29 1201 67 q 1024 -8 1104 -8 m 913 133 q 943 69 913 93 q 1024 44 974 44 q 1104 69 1074 44 q 1135 133 1135 93 q 1104 198 1135 174 q 1024 222 1074 222 q 943 198 974 222 q 913 133 913 174 m 921 358 q 949 297 921 321 q 1024 272 978 272 q 1098 297 1069 272 q 1126 358 1126 321 q 1098 419 1126 396 q 1024 443 1069 443 q 949 419 978 443 q 921 358 921 396 z "},"⅞":{"ha":1213,"x_min":49,"x_max":1138,"o":"m 292 911 l 49 911 l 49 972 l 369 972 l 369 924 l 185 486 l 111 486 l 292 911 m 826 972 l 907 972 l 301 0 l 222 0 l 826 972 m 960 -8 q 831 29 879 -8 q 782 129 782 67 q 805 204 782 172 q 869 251 828 236 q 814 295 833 267 q 794 363 794 324 q 840 458 794 421 q 960 494 886 494 q 1079 458 1033 494 q 1125 363 1125 421 q 1105 296 1125 325 q 1050 251 1085 267 q 1115 203 1092 236 q 1138 129 1138 171 q 1089 29 1138 67 q 960 -8 1040 -8 m 849 133 q 879 69 849 93 q 960 44 910 44 q 1040 69 1010 44 q 1071 133 1071 93 q 1040 198 1071 174 q 960 222 1010 222 q 879 198 910 222 q 849 133 849 174 m 857 358 q 885 297 857 321 q 960 272 914 272 q 1034 297 1006 272 q 1063 358 1063 321 q 1034 419 1063 396 q 960 443 1006 443 q 885 419 914 443 q 857 358 857 396 z "},"⅑":{"ha":1149,"x_min":47,"x_max":1075,"o":"m 156 832 l 47 832 l 47 894 l 113 894 q 148 901 135 894 q 165 935 161 908 l 171 972 l 225 972 l 225 486 l 156 486 l 156 832 m 757 972 l 838 972 l 232 0 l 153 0 l 757 972 m 894 494 q 1024 448 974 494 q 1075 328 1075 401 q 1065 269 1075 297 q 1032 203 1056 240 l 899 0 l 818 0 l 933 174 q 882 164 913 164 q 763 210 810 164 q 715 328 715 257 q 766 447 715 400 q 894 494 817 494 m 783 328 q 815 251 783 281 q 894 221 846 221 q 975 251 943 221 q 1007 328 1007 281 q 975 405 1007 375 q 894 435 943 435 q 815 405 846 435 q 783 328 783 375 z "}," ":{"ha":372,"x_min":0,"x_max":0,"o":""}," ":{"ha":283,"x_min":0,"x_max":0,"o":""},"​":{"ha":0,"x_min":0,"x_max":0,"o":""},".":{"ha":336,"x_min":94,"x_max":242,"o":"m 168 -8 q 115 12 135 -8 q 94 64 94 32 q 115 116 94 96 q 168 136 135 136 q 222 116 201 136 q 242 64 242 96 q 222 12 242 32 q 168 -8 201 -8 z "},",":{"ha":361,"x_min":94,"x_max":267,"o":"m 132 -133 q 187 -80 168 -117 q 203 1 206 -43 q 165 -7 185 -7 q 115 13 135 -7 q 94 64 94 33 q 116 115 94 94 q 171 136 138 136 q 240 103 214 136 q 267 15 267 71 q 228 -117 267 -60 q 132 -189 189 -175 l 132 -133 z "},":":{"ha":336,"x_min":94,"x_max":242,"o":"m 168 -8 q 115 12 135 -8 q 94 64 94 32 q 115 116 94 96 q 168 136 135 136 q 222 116 201 136 q 242 64 242 96 q 222 12 242 32 q 168 -8 201 -8 m 168 586 q 115 606 135 586 q 94 658 94 626 q 115 710 94 690 q 168 731 135 731 q 222 710 201 731 q 242 658 242 690 q 222 606 242 626 q 168 586 201 586 z "},";":{"ha":361,"x_min":94,"x_max":267,"o":"m 132 -133 q 187 -80 168 -117 q 203 1 206 -43 q 165 -7 185 -7 q 115 13 135 -7 q 94 64 94 33 q 116 115 94 94 q 171 136 138 136 q 240 103 214 136 q 267 15 267 71 q 228 -117 267 -60 q 132 -189 189 -175 l 132 -133 m 174 586 q 120 606 140 586 q 100 658 100 626 q 120 710 100 690 q 174 731 140 731 q 227 710 207 731 q 247 658 247 690 q 227 606 247 626 q 174 586 207 586 z "},"…":{"ha":908,"x_min":94,"x_max":814,"o":"m 168 -8 q 115 12 135 -8 q 94 64 94 32 q 115 116 94 96 q 168 136 135 136 q 222 116 201 136 q 242 64 242 96 q 222 12 242 32 q 168 -8 201 -8 m 381 64 q 401 116 381 96 q 454 136 421 136 q 508 116 488 136 q 528 64 528 96 q 508 12 528 32 q 454 -8 488 -8 q 401 12 421 -8 q 381 64 381 32 m 667 64 q 687 116 667 96 q 740 136 707 136 q 794 116 774 136 q 814 64 814 96 q 794 12 814 32 q 740 -8 774 -8 q 687 12 707 -8 q 667 64 667 32 z "},"!":{"ha":432,"x_min":142,"x_max":290,"o":"m 171 972 l 261 972 l 258 267 l 174 267 l 171 972 m 142 64 q 163 116 142 96 q 217 136 183 136 q 269 116 249 136 q 290 64 290 96 q 269 12 290 32 q 217 -8 249 -8 q 163 12 183 -8 q 142 64 142 32 z "},"¡":{"ha":432,"x_min":142,"x_max":290,"o":"m 261 -293 l 171 -293 l 174 413 l 258 413 l 261 -293 m 142 615 q 163 667 142 647 q 215 688 183 688 q 269 667 249 688 q 290 615 290 647 q 269 563 290 583 q 215 543 249 543 q 163 563 183 543 q 142 615 142 583 z "},"?":{"ha":833,"x_min":97,"x_max":711,"o":"m 347 303 q 380 426 347 375 q 490 524 413 476 q 598 617 567 572 q 629 725 629 663 q 572 860 629 811 q 411 910 514 910 q 247 859 308 910 q 179 719 185 808 l 97 719 q 188 918 104 846 q 408 990 271 990 q 567 958 499 990 q 674 865 636 925 q 711 728 711 806 q 669 584 711 649 q 535 461 626 519 q 451 389 472 424 q 429 297 429 354 l 429 267 l 347 267 l 347 303 m 314 64 q 335 116 314 96 q 389 136 356 136 q 442 116 421 136 q 463 64 463 96 q 442 12 463 32 q 389 -8 421 -8 q 335 12 356 -8 q 314 64 314 32 z "},"¿":{"ha":833,"x_min":122,"x_max":736,"o":"m 486 378 q 453 255 486 306 q 343 157 421 204 q 235 63 267 108 q 204 -44 204 18 q 262 -180 204 -131 q 422 -229 319 -229 q 587 -178 525 -229 q 654 -39 649 -128 l 736 -39 q 646 -237 729 -165 q 425 -310 563 -310 q 266 -277 335 -310 q 160 -185 197 -244 q 122 -47 122 -125 q 165 97 122 32 q 299 219 207 161 q 383 292 361 257 q 404 383 404 326 l 404 414 l 486 414 l 486 378 m 371 617 q 392 669 371 649 q 444 689 413 689 q 499 669 478 689 q 519 617 519 649 q 499 565 519 585 q 444 544 478 544 q 392 565 413 544 q 371 617 371 585 z "},"·":{"ha":336,"x_min":94,"x_max":242,"o":"m 168 269 q 115 290 135 269 q 94 342 94 310 q 115 394 94 374 q 168 414 135 414 q 222 394 201 414 q 242 342 242 374 q 222 290 242 310 q 168 269 201 269 z "},"•":{"ha":450,"x_min":94,"x_max":357,"o":"m 225 211 q 131 248 167 211 q 94 340 94 285 q 131 433 94 397 q 225 469 167 469 q 321 433 285 469 q 357 340 357 397 q 321 248 357 285 q 225 211 285 211 z "},"*":{"ha":667,"x_min":100,"x_max":565,"o":"m 296 721 l 139 631 l 100 699 l 257 786 l 100 874 l 139 942 l 296 851 l 294 1028 l 372 1028 l 371 851 l 526 942 l 565 874 l 410 786 l 565 699 l 526 631 l 371 721 l 372 544 l 294 544 l 296 721 z "},"‽":{"ha":846,"x_min":97,"x_max":724,"o":"m 365 732 l 453 732 l 450 476 q 515 535 481 508 q 614 628 585 588 q 643 726 643 668 q 584 859 643 806 q 411 913 525 913 q 244 858 303 913 q 178 718 185 804 l 97 718 q 190 917 107 844 q 411 990 274 990 q 582 954 511 990 q 688 858 653 918 q 724 726 724 797 q 683 588 724 647 q 553 465 642 529 q 472 392 494 425 q 449 311 449 358 l 449 267 l 368 267 l 365 732 m 335 64 q 356 116 335 96 q 408 136 376 136 q 463 116 442 136 q 483 64 483 96 q 463 12 483 32 q 408 -8 442 -8 q 356 12 376 -8 q 335 64 335 32 z "},"#":{"ha":1026,"x_min":53,"x_max":974,"o":"m 643 244 l 281 244 l 229 0 l 151 0 l 203 244 l 53 244 l 53 318 l 218 318 l 292 663 l 93 663 l 93 736 l 307 736 l 357 972 l 435 972 l 385 736 l 747 736 l 797 972 l 876 972 l 826 736 l 974 736 l 974 663 l 811 663 l 738 318 l 932 318 l 932 244 l 722 244 l 671 0 l 592 0 l 643 244 m 660 318 l 732 663 l 369 663 l 297 318 l 660 318 z "},"/":{"ha":690,"x_min":118,"x_max":574,"o":"m 492 1061 l 574 1061 l 199 -89 l 118 -89 l 492 1061 z "},"\\":{"ha":690,"x_min":118,"x_max":574,"o":"m 118 1061 l 199 1061 l 574 -89 l 492 -89 l 118 1061 z "},"-":{"ha":632,"x_min":111,"x_max":521,"o":"m 111 390 l 521 390 l 521 315 l 111 315 l 111 390 z "},"­":{"ha":632,"x_min":111,"x_max":521,"o":"m 111 390 l 521 390 l 521 315 l 111 315 l 111 390 z "},"–":{"ha":796,"x_min":111,"x_max":685,"o":"m 111 390 l 685 390 l 685 315 l 111 315 l 111 390 z "},"—":{"ha":960,"x_min":111,"x_max":849,"o":"m 111 390 l 849 390 l 849 315 l 111 315 l 111 390 z "},"_":{"ha":613,"x_min":32,"x_max":582,"o":"m 32 -122 l 582 -122 l 582 -182 l 32 -182 l 32 -122 z "},"(":{"ha":572,"x_min":186,"x_max":497,"o":"m 400 -210 q 186 415 186 88 q 400 1042 186 742 l 497 1042 q 271 415 271 733 q 327 102 271 260 q 497 -210 383 -56 l 400 -210 z "},")":{"ha":572,"x_min":75,"x_max":386,"o":"m 172 1042 q 386 417 386 744 q 172 -210 386 90 l 75 -210 q 301 417 301 99 q 245 730 301 572 q 75 1042 189 888 l 172 1042 z "},"{":{"ha":682,"x_min":157,"x_max":601,"o":"m 461 -210 q 274 -25 274 -210 l 274 269 q 252 352 274 326 q 183 378 231 378 l 157 378 l 157 456 l 183 456 q 252 481 231 456 q 274 564 274 507 l 274 857 q 461 1042 274 1042 l 601 1042 l 601 964 l 468 964 q 381 938 407 964 q 354 850 354 911 l 354 557 q 338 467 354 501 q 285 417 321 433 q 338 366 321 400 q 354 276 354 332 l 354 -18 q 381 -106 354 -79 q 468 -132 408 -132 l 601 -132 l 601 -210 l 461 -210 z "},"}":{"ha":682,"x_min":81,"x_max":525,"o":"m 221 1042 q 408 857 408 1042 l 408 563 q 430 480 408 506 q 499 454 451 454 l 525 454 l 525 376 l 499 376 q 430 351 451 376 q 408 268 408 325 l 408 -25 q 221 -210 408 -210 l 81 -210 l 81 -132 l 214 -132 q 301 -106 275 -132 q 328 -18 328 -79 l 328 275 q 344 365 328 331 q 397 415 361 399 q 344 466 361 432 q 328 556 328 500 l 328 850 q 301 938 328 911 q 214 964 275 964 l 81 964 l 81 1042 l 221 1042 z "},"[":{"ha":571,"x_min":157,"x_max":474,"o":"m 157 1042 l 474 1042 l 474 964 l 238 964 l 238 -132 l 474 -132 l 474 -210 l 157 -210 l 157 1042 z "},"]":{"ha":571,"x_min":97,"x_max":414,"o":"m 414 -210 l 97 -210 l 97 -132 l 333 -132 l 333 964 l 97 964 l 97 1042 l 414 1042 l 414 -210 z "},"‚":{"ha":358,"x_min":94,"x_max":264,"o":"m 132 -132 q 185 -79 167 -115 q 201 1 204 -43 q 164 -7 183 -7 q 115 13 135 -7 q 94 63 94 33 q 115 114 94 93 q 169 135 136 135 q 238 102 213 135 q 264 15 264 69 q 226 -116 264 -58 q 132 -187 189 -174 l 132 -132 z "},"„":{"ha":582,"x_min":94,"x_max":488,"o":"m 132 -132 q 185 -79 167 -115 q 201 1 204 -43 q 164 -7 183 -7 q 115 13 135 -7 q 94 63 94 33 q 115 114 94 93 q 169 135 136 135 q 238 102 213 135 q 264 15 264 69 q 226 -116 264 -58 q 132 -187 189 -174 l 132 -132 m 356 -132 q 409 -79 390 -115 q 425 1 428 -43 q 388 -7 407 -7 q 338 13 358 -7 q 318 63 318 33 q 339 114 318 93 q 393 135 360 135 q 462 102 436 135 q 488 15 488 69 q 450 -116 488 -58 q 356 -187 413 -174 l 356 -132 z "},"“":{"ha":582,"x_min":94,"x_max":489,"o":"m 451 983 q 398 931 417 967 q 382 850 379 894 q 418 858 399 858 q 469 838 449 858 q 489 789 489 818 q 467 738 489 758 q 413 717 446 717 q 344 749 371 717 q 318 836 318 782 q 356 967 318 910 q 451 1039 394 1025 l 451 983 m 94 836 q 133 967 94 910 q 228 1039 171 1025 l 228 983 q 173 931 192 967 q 157 850 154 894 q 194 858 176 858 q 244 838 224 858 q 264 789 264 818 q 243 738 264 758 q 189 717 222 717 q 120 749 146 717 q 94 836 94 782 z "},"”":{"ha":582,"x_min":94,"x_max":488,"o":"m 132 771 q 185 824 167 788 q 201 904 204 860 q 164 896 183 896 q 115 916 135 896 q 94 965 94 936 q 115 1017 94 996 q 169 1038 136 1038 q 238 1005 213 1038 q 264 918 264 972 q 226 787 264 844 q 132 715 189 729 l 132 771 m 356 771 q 409 824 390 788 q 425 904 428 860 q 388 896 407 896 q 338 916 358 896 q 318 965 318 936 q 339 1017 318 996 q 393 1038 360 1038 q 462 1005 436 1038 q 488 918 488 972 q 450 787 488 844 q 356 715 413 729 l 356 771 z "},"‘":{"ha":358,"x_min":94,"x_max":264,"o":"m 228 983 q 173 931 192 967 q 157 850 154 894 q 194 858 176 858 q 244 838 224 858 q 264 789 264 818 q 243 738 264 758 q 189 717 222 717 q 120 749 146 717 q 94 836 94 782 q 133 967 94 910 q 228 1039 171 1025 l 228 983 z "},"’":{"ha":358,"x_min":94,"x_max":264,"o":"m 132 771 q 185 824 167 788 q 201 904 204 860 q 164 896 183 896 q 115 916 135 896 q 94 965 94 936 q 115 1017 94 996 q 169 1038 136 1038 q 238 1005 213 1038 q 264 918 264 972 q 226 787 264 844 q 132 715 189 729 l 132 771 z "},"«":{"ha":853,"x_min":99,"x_max":786,"o":"m 99 386 l 347 711 l 447 711 l 200 386 l 449 61 l 347 61 l 99 386 m 436 386 l 685 711 l 785 711 l 538 386 l 786 61 l 685 61 l 436 386 z "},"»":{"ha":853,"x_min":67,"x_max":754,"o":"m 754 386 l 506 61 l 406 61 l 653 386 l 404 711 l 506 711 l 754 386 m 168 711 l 417 386 l 168 61 l 68 61 l 315 386 l 67 711 l 168 711 z "},"‹":{"ha":515,"x_min":99,"x_max":449,"o":"m 99 386 l 347 711 l 447 711 l 200 386 l 449 61 l 347 61 l 99 386 z "},"›":{"ha":515,"x_min":67,"x_max":417,"o":"m 417 386 l 168 61 l 68 61 l 315 386 l 67 711 l 168 711 l 417 386 z "},"\"":{"ha":526,"x_min":114,"x_max":413,"o":"m 114 972 l 190 972 l 188 635 l 117 635 l 114 972 m 336 972 l 413 972 l 410 635 l 339 635 l 336 972 z "},"'":{"ha":306,"x_min":114,"x_max":190,"o":"m 114 972 l 190 972 l 188 635 l 117 635 l 114 972 z "},"ƒ":{"ha":617,"x_min":-79,"x_max":603,"o":"m -79 -203 l -3 -203 q 101 -169 68 -203 q 146 -57 133 -135 l 254 644 l 86 644 l 86 718 l 265 718 l 279 806 q 356 988 299 931 q 522 1046 413 1046 l 603 1046 l 603 969 l 514 969 q 406 929 440 969 q 357 799 371 889 l 346 718 l 581 718 l 581 644 l 336 644 l 226 -57 q 156 -224 210 -171 q -7 -278 103 -278 l -79 -278 l -79 -203 z "},"☚":{"ha":1731,"x_min":122,"x_max":1494,"o":"m 700 63 l 700 67 q 728 131 728 94 q 690 204 728 172 l 690 211 q 728 292 728 244 q 717 339 728 317 q 689 374 707 361 l 689 379 q 728 463 728 408 q 697 544 728 510 q 606 578 665 578 l 183 578 q 139 590 156 578 q 122 625 122 603 q 139 659 122 647 q 183 671 156 671 l 760 671 l 760 643 q 793 551 760 582 q 886 521 826 521 l 922 521 l 922 581 l 893 581 q 819 660 819 581 l 819 747 l 589 747 q 500 765 526 747 q 474 825 474 782 l 474 871 l 915 871 q 1056 825 1010 871 q 1103 678 1103 779 l 1103 239 q 1056 102 1103 142 q 918 63 1008 63 l 700 63 m 333 454 q 350 490 333 478 q 394 501 367 501 l 592 501 q 637 490 619 501 q 654 454 654 478 q 637 420 654 432 q 592 408 619 408 l 394 408 q 350 420 367 408 q 333 454 333 432 m 356 286 q 372 322 356 310 q 417 333 389 333 l 592 333 q 637 322 619 333 q 654 286 654 310 q 637 252 654 264 q 592 240 619 240 l 417 240 q 372 252 389 240 q 356 286 356 264 m 415 117 q 432 152 415 140 q 476 164 449 164 l 592 164 q 637 152 619 164 q 654 117 654 140 q 637 83 654 94 q 592 71 619 71 l 476 71 q 432 83 449 71 q 415 117 415 94 m 1181 876 l 1494 876 l 1494 61 l 1181 61 l 1181 876 z "},"☛":{"ha":1731,"x_min":236,"x_max":1608,"o":"m 813 63 q 675 102 722 63 q 628 239 628 142 l 628 678 q 674 825 628 779 q 815 871 721 871 l 1257 871 l 1257 825 q 1231 765 1257 782 q 1142 747 1204 747 l 911 747 l 911 660 q 838 581 911 581 l 808 581 l 808 521 l 844 521 q 938 551 904 521 q 971 643 971 582 l 971 671 l 1547 671 q 1592 659 1575 671 q 1608 625 1608 647 q 1592 590 1608 603 q 1547 578 1575 578 l 1125 578 q 1034 544 1065 578 q 1003 463 1003 510 q 1042 379 1003 408 l 1042 374 q 1013 339 1024 361 q 1003 292 1003 317 q 1040 211 1003 244 l 1040 204 q 1003 131 1003 172 q 1031 67 1003 94 l 1031 63 l 813 63 m 236 876 l 550 876 l 550 61 l 236 61 l 236 876 m 1076 117 q 1094 152 1076 140 q 1139 164 1111 164 l 1254 164 q 1299 152 1282 164 q 1315 117 1315 140 q 1299 83 1315 94 q 1254 71 1282 71 l 1139 71 q 1094 83 1111 71 q 1076 117 1076 94 m 1076 286 q 1094 322 1076 310 q 1139 333 1111 333 l 1314 333 q 1358 322 1342 333 q 1375 286 1375 310 q 1358 252 1375 264 q 1314 240 1342 240 l 1139 240 q 1094 252 1111 240 q 1076 286 1076 264 m 1076 454 q 1094 490 1076 478 q 1139 501 1111 501 l 1336 501 q 1381 490 1364 501 q 1397 454 1397 478 q 1381 420 1397 432 q 1336 408 1364 408 l 1139 408 q 1094 420 1111 408 q 1076 454 1076 432 z "}}}
